EncodeSansSemiExpanded-Bold.ufo
<glyph name="exclam" format="2">
  <advance width="630.9191919191919"/>
  <unicode hex="0021"/>
  <outline>
    <contour>
      <point x="215.8030303030303" y="468.72727272727263" type="line"/>
      <point x="419.00505050505046" y="468.72727272727263" type="line"/>
      <point x="492.1666666666666" y="964.9494949494949" type="line"/>
      <point x="492.1666666666666" y="1480.0" type="line"/>
      <point x="138.7525252525253" y="1480.0" type="line"/>
      <point x="138.7525252525253" y="964.9494949494949" type="line"/>
    </contour>
    <contour>
      <point x="315.45959595959596" y="-17.070707070707066" type="curve" smooth="yes"/>
      <point x="447.97474747474735" y="-17.070707070707066"/>
      <point x="530.8939393939393" y="56.77777777777776"/>
      <point x="530.8939393939393" y="167.9595959595959" type="curve" smooth="yes"/>
      <point x="530.8939393939393" y="279.1414141414141"/>
      <point x="450.8030303030302" y="353.57575757575745"/>
      <point x="315.45959595959596" y="353.57575757575745" type="curve" smooth="yes"/>
      <point x="180.11616161616163" y="353.57575757575745"/>
      <point x="100.02525252525255" y="281.9696969696969"/>
      <point x="100.02525252525255" y="167.9595959595959" type="curve" smooth="yes"/>
      <point x="100.02525252525255" y="53.94949494949493"/>
      <point x="182.94444444444446" y="-17.070707070707066"/>
    </contour>
  </outline>
</glyph>
<glyph name="quotedbl" format="2">
  <advance width="963.6161616161614"/>
  <unicode hex="0022"/>
  <outline>
    <contour>
      <point x="151.6818181818182" y="839.3333333333334" type="line"/>
      <point x="354.3080808080807" y="839.3333333333334" type="line"/>
      <point x="415.6717171717171" y="1616.0" type="line"/>
      <point x="90.31818181818186" y="1616.0" type="line"/>
    </contour>
    <contour>
      <point x="609.3080808080807" y="839.3333333333334" type="line"/>
      <point x="811.9343434343433" y="839.3333333333334" type="line"/>
      <point x="873.2979797979797" y="1616.0" type="line"/>
      <point x="547.9444444444443" y="1616.0" type="line"/>
    </contour>
  </outline>
</glyph>
<glyph name="numbersign" format="2">
  <advance width="1312.6262626262626"/>
  <unicode hex="0023"/>
  <outline>
    <contour>
      <point x="665.7121212121212" y="0.0" type="line"/>
      <point x="923.6818181818181" y="0.0" type="line"/>
      <point x="1092.681818181818" y="1480.0" type="line"/>
      <point x="834.7121212121212" y="1480.0" type="line"/>
    </contour>
    <contour>
      <point x="105.0" y="381.5757575757576" type="line"/>
      <point x="1207.6262626262626" y="381.5757575757576" type="line"/>
      <point x="1207.6262626262626" y="634.9494949494949" type="line"/>
      <point x="105.0" y="634.9494949494949" type="line"/>
    </contour>
    <contour>
      <point x="219.94444444444446" y="0.0" type="line"/>
      <point x="477.91414141414134" y="0.0" type="line"/>
      <point x="646.9141414141413" y="1480.0" type="line"/>
      <point x="388.94444444444446" y="1480.0" type="line"/>
    </contour>
    <contour>
      <point x="105.0" y="845.0505050505051" type="line"/>
      <point x="1207.6262626262626" y="845.0505050505051" type="line"/>
      <point x="1207.6262626262626" y="1098.4242424242423" type="line"/>
      <point x="105.0" y="1098.4242424242423" type="line"/>
    </contour>
  </outline>
</glyph>
<glyph name="dollar" format="2">
  <advance width="1233.3131313131312"/>
  <unicode hex="0024"/>
  <outline>
    <contour>
      <point x="536.5151515151515" y="-19.41414141414141" type="curve" smooth="yes"/>
      <point x="935.5151515151515" y="-19.41414141414141"/>
      <point x="1168.4494949494947" y="153.55050505050505"/>
      <point x="1168.4494949494947" y="439.6262626262626" type="curve" smooth="yes"/>
      <point x="1168.4494949494947" y="665.1565656565656"/>
      <point x="1037.0252525252524" y="802.040404040404"/>
      <point x="714.621212121212" y="871.989898989899" type="curve" smooth="yes"/>
      <point x="597.4191919191919" y="898.3030303030303" type="line" smooth="yes"/>
      <point x="446.64141414141403" y="933.2373737373737"/>
      <point x="402.7222222222221" y="975.3383838383838"/>
      <point x="402.7222222222221" y="1061.4444444444446" type="curve" smooth="yes"/>
      <point x="402.7222222222221" y="1163.358585858586"/>
      <point x="484.121212121212" y="1230.1313131313132"/>
      <point x="740.520202020202" y="1230.1313131313132" type="curve" smooth="yes"/>
      <point x="855.2272727272726" y="1230.1313131313132"/>
      <point x="990.060606060606" y="1212.7171717171718"/>
      <point x="1090.772727272727" y="1183.9343434343436" type="curve"/>
      <point x="1090.772727272727" y="1456.6313131313132" type="line"/>
      <point x="989.6868686868686" y="1482.560606060606"/>
      <point x="858.8737373737373" y="1499.4141414141413"/>
      <point x="722.2474747474747" y="1499.4141414141413" type="curve" smooth="yes"/>
      <point x="279.530303030303" y="1499.4141414141413"/>
      <point x="64.86363636363637" y="1331.79797979798"/>
      <point x="64.86363636363637" y="1046.4848484848485" type="curve" smooth="yes"/>
      <point x="64.86363636363637" y="817.979797979798"/>
      <point x="197.2878787878788" y="681.8383838383838"/>
      <point x="490.5959595959596" y="617.949494949495" type="curve" smooth="yes"/>
      <point x="607.7979797979798" y="591.6363636363637" type="line" smooth="yes"/>
      <point x="779.2424242424242" y="552.9343434343435"/>
      <point x="830.5909090909091" y="510.82323232323233"/>
      <point x="830.5909090909091" y="419.80303030303025" type="curve" smooth="yes"/>
      <point x="830.5909090909091" y="312.6060606060605"/>
      <point x="755.8585858585859" y="249.86868686868678"/>
      <point x="533.1515151515151" y="249.86868686868678" type="curve" smooth="yes"/>
      <point x="413.75252525252523" y="249.86868686868678"/>
      <point x="233.1868686868687" y="273.0252525252524"/>
      <point x="100.24747474747475" y="315.19696969696963" type="curve"/>
      <point x="100.24747474747475" y="42.5" type="line"/>
      <point x="229.64646464646466" y="3.474747474747474"/>
      <point x="383.35858585858585" y="-19.41414141414141"/>
    </contour>
    <contour>
      <point x="458.7373737373738" y="-240.0" type="line"/>
      <point x="774.4545454545454" y="-240.0" type="line"/>
      <point x="774.4545454545454" y="50.95959595959594" type="line"/>
      <point x="458.7373737373738" y="49.494949494949466" type="line"/>
    </contour>
    <contour>
      <point x="458.7373737373738" y="1437.5757575757575" type="line"/>
      <point x="774.4545454545454" y="1437.5757575757575" type="line"/>
      <point x="774.4545454545454" y="1720.0" type="line"/>
      <point x="458.7373737373738" y="1720.0" type="line"/>
    </contour>
  </outline>
</glyph>
<glyph name="percent" format="2">
  <advance width="2210.580808080808"/>
  <unicode hex="0025"/>
  <note>
450
</note>
  <outline>
    <contour>
      <point x="618.1666666666666" y="0.0" type="line"/>
      <point x="893.5959595959595" y="0.0" type="line"/>
      <point x="1592.4141414141413" y="1480.0" type="line"/>
      <point x="1316.9848484848485" y="1480.0" type="line"/>
    </contour>
    <contour>
      <point x="513.8535353535353" y="569.5151515151515" type="curve" smooth="yes"/>
      <point x="761.8434343434343" y="569.5151515151515"/>
      <point x="934.2323232323231" y="724.9191919191919"/>
      <point x="934.2323232323231" y="1034.111111111111" type="curve" smooth="yes"/>
      <point x="934.2323232323231" y="1343.3030303030303"/>
      <point x="762.8686868686868" y="1499.4141414141413"/>
      <point x="513.8535353535353" y="1499.4141414141413" type="curve" smooth="yes"/>
      <point x="264.83838383838383" y="1499.4141414141413"/>
      <point x="93.47474747474749" y="1343.3030303030303"/>
      <point x="93.47474747474749" y="1034.111111111111" type="curve" smooth="yes"/>
      <point x="93.47474747474749" y="724.9191919191919"/>
      <point x="265.8636363636364" y="569.5151515151515"/>
    </contour>
    <contour>
      <point x="513.8535353535353" y="775.489898989899" type="curve" smooth="yes"/>
      <point x="420.3585858585858" y="775.489898989899"/>
      <point x="353.29797979797974" y="843.7828282828282"/>
      <point x="353.29797979797974" y="1034.6969696969697" type="curve" smooth="yes"/>
      <point x="353.29797979797974" y="1225.318181818182"/>
      <point x="420.3585858585858" y="1293.439393939394"/>
      <point x="513.8535353535353" y="1293.439393939394" type="curve" smooth="yes"/>
      <point x="606.9090909090909" y="1293.439393939394"/>
      <point x="674.4090909090909" y="1225.318181818182"/>
      <point x="674.4090909090909" y="1033.5252525252524" type="curve" smooth="yes"/>
      <point x="674.4090909090909" y="842.0252525252524"/>
      <point x="606.9090909090909" y="775.489898989899"/>
    </contour>
    <contour>
      <point x="1696.7272727272725" y="-18.0" type="curve" smooth="yes"/>
      <point x="1944.863636363636" y="-18.0"/>
      <point x="2117.1060606060605" y="137.4040404040404"/>
      <point x="2117.1060606060605" y="446.5959595959596" type="curve" smooth="yes"/>
      <point x="2117.1060606060605" y="755.7878787878788"/>
      <point x="1945.5959595959594" y="911.8989898989898"/>
      <point x="1696.7272727272725" y="911.8989898989898" type="curve" smooth="yes"/>
      <point x="1447.8585858585857" y="911.8989898989898"/>
      <point x="1276.3484848484848" y="755.7878787878788"/>
      <point x="1276.3484848484848" y="446.5959595959596" type="curve" smooth="yes"/>
      <point x="1276.3484848484848" y="137.4040404040404"/>
      <point x="1448.590909090909" y="-18.0"/>
    </contour>
    <contour>
      <point x="1696.7272727272725" y="187.9747474747474" type="curve" smooth="yes"/>
      <point x="1603.6717171717169" y="187.9747474747474"/>
      <point x="1536.1717171717169" y="256.2676767676767"/>
      <point x="1536.1717171717169" y="447.1818181818182" type="curve" smooth="yes"/>
      <point x="1536.1717171717169" y="637.8030303030304"/>
      <point x="1603.6717171717169" y="705.9242424242425"/>
      <point x="1696.7272727272725" y="705.9242424242425" type="curve" smooth="yes"/>
      <point x="1789.7828282828282" y="705.9242424242425"/>
      <point x="1857.2828282828282" y="637.8030303030304"/>
      <point x="1857.2828282828282" y="446.010101010101" type="curve" smooth="yes"/>
      <point x="1857.2828282828282" y="254.51010101010095"/>
      <point x="1789.7828282828282" y="187.9747474747474"/>
    </contour>
  </outline>
</glyph>
<glyph name="ampersand" format="2">
  <advance width="1691.7474747474746"/>
  <unicode hex="0026"/>
  <outline>
    <contour>
      <point x="1548.6010101010102" y="-20.0" type="line"/>
      <point x="1691.7474747474746" y="223.55555555555546" type="line"/>
      <point x="771.6666666666666" y="801.8838383838383" type="line" smooth="yes"/>
      <point x="638.6363636363635" y="892.6515151515151"/>
      <point x="598.0454545454545" y="950.0808080808081"/>
      <point x="598.0454545454545" y="1032.7525252525252" type="curve" smooth="yes"/>
      <point x="598.0454545454545" y="1153.5909090909092"/>
      <point x="677.5252525252524" y="1230.1313131313132"/>
      <point x="933.8434343434343" y="1230.1313131313132" type="curve" smooth="yes"/>
      <point x="1023.0050505050505" y="1230.1313131313132"/>
      <point x="1117.611111111111" y="1218.6313131313132"/>
      <point x="1190.8080808080808" y="1202.348484848485" type="curve"/>
      <point x="1190.8080808080808" y="1475.0454545454545" type="line"/>
      <point x="1109.4949494949494" y="1489.7424242424242"/>
      <point x="1018.8131313131313" y="1499.4141414141413"/>
      <point x="910.8888888888889" y="1499.4141414141413" type="curve" smooth="yes"/>
      <point x="469.6212121212121" y="1499.4141414141413"/>
      <point x="260.1868686868687" y="1327.080808080808"/>
      <point x="260.1868686868687" y="1043.919191919192" type="curve" smooth="yes"/>
      <point x="260.1868686868687" y="886.1919191919192"/>
      <point x="331.72727272727275" y="743.1868686868687"/>
      <point x="628.5202020202021" y="558.3282828282828" type="curve" smooth="yes"/>
    </contour>
    <contour>
      <point x="738.2474747474747" y="-18.0" type="curve" smooth="yes"/>
      <point x="1180.0252525252524" y="-18.0"/>
      <point x="1439.7979797979797" y="196.3282828282828"/>
      <point x="1439.7979797979797" y="611.0757575757575" type="curve" smooth="yes"/>
      <point x="1439.7979797979797" y="689.6666666666666"/>
      <point x="1427.4191919191917" y="780.3030303030303"/>
      <point x="1404.4040404040402" y="863.2323232323232" type="curve"/>
      <point x="1138.5454545454545" y="863.2323232323232" type="line"/>
      <point x="1161.7070707070707" y="780.3030303030303"/>
      <point x="1176.171717171717" y="687.3737373737373"/>
      <point x="1176.171717171717" y="608.5404040404039" type="curve" smooth="yes"/>
      <point x="1176.171717171717" y="319.5404040404039"/>
      <point x="1012.459595959596" y="215.57575757575748"/>
      <point x="776.6616161616162" y="215.57575757575748" type="curve" smooth="yes"/>
      <point x="561.1414141414141" y="215.57575757575748"/>
      <point x="452.44949494949486" y="302.08585858585855"/>
      <point x="452.44949494949486" y="440.2323232323232" type="curve" smooth="yes"/>
      <point x="452.44949494949486" y="542.9848484848485"/>
      <point x="502.1919191919191" y="616.3181818181819"/>
      <point x="590.1616161616162" y="670.5202020202021" type="curve"/>
      <point x="414.75757575757575" y="796.2525252525253" type="line"/>
      <point x="243.08080808080808" y="738.9747474747475"/>
      <point x="115.29797979797982" y="598.7777777777778"/>
      <point x="115.29797979797982" y="404.5353535353535" type="curve" smooth="yes"/>
      <point x="115.29797979797982" y="150.63636363636363"/>
      <point x="321.53030303030306" y="-18.0"/>
    </contour>
  </outline>
</glyph>
<glyph name="quotesingle" format="2">
  <advance width="505.98989898989896"/>
  <unicode hex="0027"/>
  <outline>
    <contour>
      <point x="151.6818181818182" y="839.3333333333334" type="line"/>
      <point x="354.3080808080807" y="839.3333333333334" type="line"/>
      <point x="415.6717171717171" y="1616.0" type="line"/>
      <point x="90.31818181818186" y="1616.0" type="line"/>
    </contour>
  </outline>
</glyph>
<glyph name="parenleft" format="2">
  <advance width="756.5050505050505"/>
  <unicode hex="0028"/>
  <outline>
    <contour>
      <point x="486.520202020202" y="-440.0" type="curve"/>
      <point x="842.9494949494948" y="-440.0" type="line"/>
      <point x="561.4545454545454" y="-132.3030303030303"/>
      <point x="451.9191919191918" y="190.07070707070707"/>
      <point x="451.9191919191918" y="588.0" type="curve" smooth="yes"/>
      <point x="451.9191919191918" y="985.929292929293"/>
      <point x="561.4545454545454" y="1308.3030303030303"/>
      <point x="842.9494949494948" y="1616.0" type="curve"/>
      <point x="486.520202020202" y="1616.0" type="line"/>
      <point x="218.75757575757578" y="1344.6363636363635"/>
      <point x="111.5858585858586" y="988.3939393939394"/>
      <point x="111.5858585858586" y="588.0" type="curve" smooth="yes"/>
      <point x="111.5858585858586" y="187.60606060606062"/>
      <point x="218.75757575757578" y="-168.63636363636363"/>
    </contour>
  </outline>
</glyph>
<glyph name="parenright" format="2">
  <advance width="756.5050505050505"/>
  <unicode hex="0029"/>
  <outline>
    <contour>
      <point x="-86.44444444444437" y="-440.0" type="curve"/>
      <point x="269.9848484848484" y="-440.0" type="line"/>
      <point x="537.7474747474747" y="-168.63636363636363"/>
      <point x="644.9191919191919" y="187.60606060606062"/>
      <point x="644.9191919191919" y="588.0" type="curve" smooth="yes"/>
      <point x="644.9191919191919" y="988.3939393939394"/>
      <point x="537.7474747474747" y="1344.6363636363635"/>
      <point x="269.9848484848484" y="1616.0" type="curve"/>
      <point x="-86.44444444444437" y="1616.0" type="line"/>
      <point x="195.05050505050514" y="1308.3030303030303"/>
      <point x="304.58585858585866" y="985.929292929293"/>
      <point x="304.58585858585866" y="588.0" type="curve" smooth="yes"/>
      <point x="304.58585858585866" y="190.07070707070707"/>
      <point x="195.05050505050514" y="-132.3030303030303"/>
    </contour>
  </outline>
</glyph>
<glyph name="asterisk" format="2">
  <advance width="1030.8282828282827"/>
  <unicode hex="002A"/>
  <outline>
    <contour>
      <point x="641.1111111111111" y="1136.060606060606" type="line"/>
      <point x="822.4949494949494" y="1160.7272727272727" type="line"/>
      <point x="1000.8282828282828" y="1218.1919191919192" type="line"/>
      <point x="933.8080808080807" y="1423.4949494949494" type="line"/>
      <point x="756.060606060606" y="1365.6767676767677" type="line"/>
      <point x="588.3333333333333" y="1273.5353535353536" type="line"/>
      <point x="623.4242424242424" y="1462.3333333333333" type="line"/>
      <point x="623.4242424242424" y="1616.0" type="line"/>
      <point x="407.4040404040404" y="1616.0" type="line"/>
      <point x="407.4040404040404" y="1462.3333333333333" type="line"/>
      <point x="442.4949494949495" y="1273.5353535353536" type="line"/>
      <point x="274.76767676767673" y="1365.6767676767677" type="line"/>
      <point x="97.02020202020199" y="1423.4949494949494" type="line"/>
      <point x="30.0" y="1218.1919191919192" type="line"/>
      <point x="208.33333333333334" y="1160.7272727272727" type="line"/>
      <point x="389.7171717171717" y="1136.060606060606" type="line"/>
      <point x="254.1818181818182" y="1006.929292929293" type="line"/>
      <point x="160.2979797979798" y="876.8737373737374" type="line"/>
      <point x="335.3282828282828" y="750.1363636363637" type="line"/>
      <point x="429.2121212121212" y="879.1313131313132" type="line"/>
      <point x="515.4141414141413" y="1063.030303030303" type="line"/>
      <point x="601.6161616161615" y="879.1313131313132" type="line"/>
      <point x="695.5" y="750.1363636363637" type="line"/>
      <point x="870.530303030303" y="876.8737373737374" type="line"/>
      <point x="776.6464646464646" y="1006.929292929293" type="line"/>
    </contour>
  </outline>
</glyph>
<glyph name="plus" format="2">
  <advance width="1135.20202020202"/>
  <unicode hex="002B"/>
  <outline>
    <contour>
      <point x="435.6717171717172" y="310.1212121212121" type="line"/>
      <point x="699.530303030303" y="310.1212121212121" type="line"/>
      <point x="699.530303030303" y="633.9595959595961" type="line"/>
      <point x="1008.6717171717171" y="633.9595959595961" type="line"/>
      <point x="1008.6717171717171" y="886.0404040404039" type="line"/>
      <point x="699.530303030303" y="886.0404040404039" type="line"/>
      <point x="699.530303030303" y="1209.8787878787878" type="line"/>
      <point x="435.6717171717172" y="1209.8787878787878" type="line"/>
      <point x="435.6717171717172" y="886.0404040404039" type="line"/>
      <point x="126.53030303030306" y="886.0404040404039" type="line"/>
      <point x="126.53030303030306" y="633.9595959595961" type="line"/>
      <point x="435.6717171717172" y="633.9595959595961" type="line"/>
    </contour>
  </outline>
</glyph>
<glyph name="hyphen" format="2">
  <advance width="996.1717171717171"/>
  <unicode hex="002D"/>
  <outline>
    <contour>
      <point x="126.53030303030306" y="431.4848484848485" type="line"/>
      <point x="869.6414141414141" y="431.4848484848485" type="line"/>
      <point x="869.6414141414141" y="702.6565656565656" type="line"/>
      <point x="126.53030303030306" y="702.6565656565656" type="line"/>
    </contour>
  </outline>
</glyph>
<glyph name="period" format="2">
  <advance width="590.9191919191919"/>
  <unicode hex="002E"/>
  <outline>
    <contour>
      <point x="295.45959595959596" y="-17.070707070707066" type="curve" smooth="yes"/>
      <point x="427.97474747474735" y="-17.070707070707066"/>
      <point x="510.89393939393926" y="61.020202020202"/>
      <point x="510.89393939393926" y="179.6262626262626" type="curve" smooth="yes"/>
      <point x="510.89393939393926" y="298.2323232323231"/>
      <point x="430.8030303030302" y="376.90909090909076"/>
      <point x="295.45959595959596" y="376.90909090909076" type="curve" smooth="yes"/>
      <point x="160.11616161616163" y="376.90909090909076"/>
      <point x="80.02525252525255" y="301.06060606060595"/>
      <point x="80.02525252525255" y="179.6262626262626" type="curve" smooth="yes"/>
      <point x="80.02525252525255" y="58.19191919191917"/>
      <point x="162.94444444444446" y="-17.070707070707066"/>
    </contour>
  </outline>
</glyph>
<glyph name="slash" format="2">
  <advance width="859.2272727272726"/>
  <unicode hex="002F"/>
  <outline>
    <contour>
      <point x="0.0" y="-240.0" type="line"/>
      <point x="332.59090909090895" y="-240.0" type="line"/>
      <point x="859.2272727272726" y="1616.0" type="line"/>
      <point x="526.6363636363636" y="1616.0" type="line"/>
    </contour>
  </outline>
</glyph>
<glyph name="zero" format="2">
  <advance width="1425.010101010101"/>
  <unicode hex="0030"/>
  <note>
600
</note>
  <outline>
    <contour>
      <point x="711.9747474747475" y="-19.41414141414141" type="curve" smooth="yes"/>
      <point x="1086.949494949495" y="-19.41414141414141"/>
      <point x="1323.4242424242423" y="216.06060606060606"/>
      <point x="1323.4242424242423" y="740.0" type="curve" smooth="yes"/>
      <point x="1323.4242424242423" y="1263.939393939394"/>
      <point x="1088.4141414141413" y="1499.4141414141413"/>
      <point x="711.9747474747475" y="1499.4141414141413" type="curve" smooth="yes"/>
      <point x="335.5353535353535" y="1499.4141414141413"/>
      <point x="101.5858585858586" y="1263.939393939394"/>
      <point x="101.5858585858586" y="740.0" type="curve" smooth="yes"/>
      <point x="101.5858585858586" y="216.06060606060606"/>
      <point x="337.0" y="-19.41414141414141"/>
    </contour>
    <contour>
      <point x="713.0353535353535" y="257.64646464646455" type="curve" smooth="yes"/>
      <point x="539.1767676767677" y="257.64646464646455"/>
      <point x="435.9090909090908" y="370.74747474747466"/>
      <point x="435.9090909090908" y="741.1717171717172" type="curve" smooth="yes"/>
      <point x="435.9090909090908" y="1109.2525252525254"/>
      <point x="541.2979797979797" y="1222.3535353535353"/>
      <point x="713.0353535353535" y="1222.3535353535353" type="curve" smooth="yes"/>
      <point x="883.7121212121212" y="1222.3535353535353"/>
      <point x="989.1010101010102" y="1109.2525252525254"/>
      <point x="989.1010101010102" y="738.8282828282828" type="curve" smooth="yes"/>
      <point x="989.1010101010102" y="370.74747474747466"/>
      <point x="883.7121212121212" y="257.64646464646455"/>
    </contour>
  </outline>
</glyph>
<glyph name="one" format="2">
  <advance width="911.3282828282827"/>
  <unicode hex="0031"/>
  <outline>
    <contour>
      <point x="415.7323232323232" y="0.0" type="line"/>
      <point x="757.3686868686868" y="0.0" type="line"/>
      <point x="757.3686868686868" y="1485.4141414141413" type="line"/>
      <point x="532.3585858585858" y="1485.4141414141413" type="line"/>
      <point x="35.1060606060606" y="1134.2272727272727" type="line"/>
      <point x="35.1060606060606" y="814.9696969696971" type="line"/>
      <point x="532.3585858585858" y="1165.2777777777778" type="line"/>
      <point x="415.7323232323232" y="1291.4545454545455" type="line"/>
    </contour>
  </outline>
</glyph>
<glyph name="two" format="2">
  <advance width="1146.949494949495"/>
  <unicode hex="0032"/>
  <outline>
    <contour>
      <point x="52.93434343434345" y="0.0" type="line"/>
      <point x="1089.6262626262626" y="0.0" type="line"/>
      <point x="1089.6262626262626" y="274.3535353535352" type="line"/>
      <point x="424.5353535353534" y="274.3535353535352" type="line"/>
      <point x="429.98989898989885" y="187.070707070707" type="line"/>
      <point x="785.6111111111111" y="585.8131313131313" type="line" smooth="yes"/>
      <point x="954.9595959595958" y="775.439393939394"/>
      <point x="1013.3636363636363" y="913.8282828282828"/>
      <point x="1013.5101010101009" y="1068.8333333333335" type="curve" smooth="yes"/>
      <point x="1013.8030303030303" y="1363.4444444444443"/>
      <point x="820.6565656565656" y="1499.4141414141413"/>
      <point x="423.27272727272725" y="1499.4141414141413" type="curve" smooth="yes"/>
      <point x="290.0656565656566" y="1499.4141414141413"/>
      <point x="129.55555555555557" y="1473.671717171717"/>
      <point x="34.727272727272734" y="1441.621212121212" type="curve"/>
      <point x="34.727272727272734" y="1168.9242424242425" type="line"/>
      <point x="131.12121212121212" y="1204.6212121212122"/>
      <point x="263.6868686868687" y="1230.1313131313132"/>
      <point x="393.22222222222223" y="1230.1313131313132" type="curve" smooth="yes"/>
      <point x="597.1363636363636" y="1230.1313131313132"/>
      <point x="677.2979797979798" y="1166.9494949494951"/>
      <point x="677.2979797979798" y="1033.3080808080808" type="curve" smooth="yes"/>
      <point x="677.2979797979798" y="939.510101010101"/>
      <point x="630.939393939394" y="846.1666666666666"/>
      <point x="496.8535353535354" y="690.5" type="curve" smooth="yes"/>
      <point x="52.93434343434345" y="178.93939393939388" type="line"/>
    </contour>
  </outline>
</glyph>
<glyph name="three" format="2">
  <advance width="1158.1363636363635"/>
  <unicode hex="0033"/>
  <outline>
    <contour>
      <point x="466.89898989898984" y="-19.41414141414141" type="curve" smooth="yes"/>
      <point x="897.590909090909" y="-19.41414141414141"/>
      <point x="1091.510101010101" y="147.04545454545453"/>
      <point x="1091.510101010101" y="414.76262626262627" type="curve" smooth="yes"/>
      <point x="1091.510101010101" y="621.9494949494949"/>
      <point x="964.5050505050503" y="741.0656565656566"/>
      <point x="749.7929292929292" y="772.3939393939394" type="curve"/>
      <point x="749.6464646464646" y="755.7070707070707" type="line"/>
      <point x="927.9646464646464" y="794.6717171717172"/>
      <point x="1040.6565656565656" y="921.2474747474747"/>
      <point x="1040.6565656565656" y="1097.439393939394" type="curve" smooth="yes"/>
      <point x="1040.6565656565656" y="1351.8939393939395"/>
      <point x="852.2878787878788" y="1499.4141414141413"/>
      <point x="472.5656565656566" y="1499.4141414141413" type="curve" smooth="yes"/>
      <point x="339.04545454545456" y="1499.4141414141413"/>
      <point x="183.21717171717174" y="1476.671717171717"/>
      <point x="79.92424242424244" y="1442.939393939394" type="curve"/>
      <point x="79.92424242424244" y="1194.2828282828284" type="line"/>
      <point x="188.85353535353536" y="1231.3080808080808"/>
      <point x="321.85858585858585" y="1252.050505050505"/>
      <point x="439.04040404040404" y="1252.050505050505" type="curve" smooth="yes"/>
      <point x="629.6313131313132" y="1252.050505050505"/>
      <point x="714.3434343434344" y="1186.1212121212122"/>
      <point x="714.3434343434344" y="1069.9242424242425" type="curve" smooth="yes"/>
      <point x="714.3434343434344" y="949.9242424242424"/>
      <point x="626.7171717171717" y="881.6767676767677"/>
      <point x="404.9191919191919" y="881.6767676767677" type="curve" smooth="yes"/>
      <point x="218.15656565656568" y="881.6767676767677" type="line"/>
      <point x="218.15656565656568" y="631.8383838383838" type="line"/>
      <point x="463.2676767676768" y="631.8383838383838" type="line" smooth="yes"/>
      <point x="689.3838383838385" y="631.8383838383838"/>
      <point x="772.6212121212121" y="561.7474747474748"/>
      <point x="772.6212121212121" y="434.85353535353534" type="curve" smooth="yes"/>
      <point x="772.6212121212121" y="302.040404040404"/>
      <point x="678.7979797979798" y="227.94949494949486"/>
      <point x="451.0151515151515" y="227.94949494949486" type="curve" smooth="yes"/>
      <point x="318.63131313131316" y="227.94949494949486"/>
      <point x="170.56565656565658" y="250.3636363636363"/>
      <point x="49.8939393939394" y="283.31818181818176" type="curve"/>
      <point x="49.8939393939394" y="34.661616161616166" type="line"/>
      <point x="173.4141414141414" y="0.8787878787878798"/>
      <point x="316.14141414141415" y="-19.41414141414141"/>
    </contour>
  </outline>
</glyph>
<glyph name="four" format="2">
  <advance width="1349.141414141414"/>
  <unicode hex="0034"/>
  <outline>
    <contour>
      <point x="39.03030303030304" y="298.79797979797985" type="line"/>
      <point x="1314.2222222222222" y="298.79797979797985" type="line"/>
      <point x="1314.2222222222222" y="561.4848484848485" type="line"/>
      <point x="338.49494949494937" y="561.4848484848485" type="line"/>
      <point x="371.75757575757564" y="481.3939393939394" type="line"/>
      <point x="911.3333333333333" y="1480.0" type="line"/>
      <point x="582.6161616161617" y="1480.0" type="line"/>
      <point x="39.03030303030304" y="481.9797979797979" type="line"/>
    </contour>
    <contour>
      <point x="806.5757575757576" y="0.0" type="line"/>
      <point x="1113.5656565656564" y="0.0" type="line"/>
      <point x="1113.5656565656564" y="980.0" type="line"/>
      <point x="838.959595959596" y="980.0" type="line"/>
      <point x="806.5757575757576" y="561.4848484848485" type="line"/>
    </contour>
  </outline>
</glyph>
<glyph name="five" format="2">
  <advance width="1171.2828282828282"/>
  <unicode hex="0035"/>
  <outline>
    <contour>
      <point x="492.98484848484844" y="-19.41414141414141" type="curve" smooth="yes"/>
      <point x="911.4949494949494" y="-19.41414141414141"/>
      <point x="1116.3888888888887" y="145.14141414141415"/>
      <point x="1117.449494949495" y="443.1464646464646" type="curve" smooth="yes"/>
      <point x="1118.510101010101" y="724.2979797979798"/>
      <point x="934.9898989898988" y="875.3282828282828"/>
      <point x="451.11616161616155" y="900.6212121212121" type="curve" smooth="yes"/>
      <point x="235.40404040404036" y="911.7676767676767" type="line"/>
      <point x="451.7979797979797" y="794.2929292929293" type="line"/>
      <point x="491.9949494949494" y="1368.7070707070707" type="line"/>
      <point x="345.5454545454545" y="1226.1515151515152" type="line"/>
      <point x="1055.0959595959596" y="1226.1515151515152" type="line"/>
      <point x="1055.0959595959596" y="1480.0" type="line"/>
      <point x="179.31313131313132" y="1480.0" type="line"/>
      <point x="125.63131313131314" y="667.5858585858587" type="line"/>
      <point x="341.34343434343435" y="656.439393939394" type="line" smooth="yes"/>
      <point x="707.5050505050506" y="635.9747474747476"/>
      <point x="797.5" y="570.1313131313132"/>
      <point x="797.5" y="438.050505050505" type="curve" smooth="yes"/>
      <point x="797.5" y="304.6717171717171"/>
      <point x="702.3585858585859" y="232.1919191919191"/>
      <point x="477.2474747474747" y="232.1919191919191" type="curve" smooth="yes"/>
      <point x="343.5454545454545" y="232.1919191919191"/>
      <point x="195.47979797979798" y="255.1060606060605"/>
      <point x="75.83333333333334" y="288.2676767676767" type="curve"/>
      <point x="75.83333333333334" y="39.611111111111114" type="line"/>
      <point x="198.62121212121212" y="3.7929292929292933"/>
      <point x="341.64141414141415" y="-19.41414141414141"/>
    </contour>
  </outline>
</glyph>
<glyph name="six" format="2">
  <advance width="1326.8333333333333"/>
  <unicode hex="0036"/>
  <outline>
    <contour>
      <point x="723.4646464646464" y="-19.41414141414141" type="curve" smooth="yes"/>
      <point x="1062.70202020202" y="-19.41414141414141"/>
      <point x="1266.7929292929293" y="157.6212121212121"/>
      <point x="1266.7929292929293" y="443.0959595959596" type="curve" smooth="yes"/>
      <point x="1266.7929292929293" y="753.3181818181818"/>
      <point x="1061.1666666666665" y="891.6363636363636"/>
      <point x="767.3131313131312" y="891.6363636363636" type="curve" smooth="yes"/>
      <point x="623.8333333333333" y="891.6363636363636"/>
      <point x="473.2676767676767" y="846.7676767676767"/>
      <point x="389.8232323232322" y="773.2020202020202" type="curve"/>
      <point x="389.8232323232322" y="544.8030303030304" type="line"/>
      <point x="474.5858585858585" y="619.2171717171718"/>
      <point x="592.1919191919192" y="653.1111111111112"/>
      <point x="700.030303030303" y="653.1111111111112" type="curve" smooth="yes"/>
      <point x="861.0151515151515" y="653.1111111111112"/>
      <point x="958.8636363636364" y="585.2171717171717"/>
      <point x="958.8636363636364" y="434.58585858585855" type="curve" smooth="yes"/>
      <point x="958.8636363636364" y="289.13636363636357"/>
      <point x="865.1111111111111" y="219.81818181818173"/>
      <point x="724.3181818181818" y="219.81818181818173" type="curve" smooth="yes"/>
      <point x="548.6868686868686" y="219.81818181818173"/>
      <point x="440.9949494949494" y="318.70707070707067"/>
      <point x="440.9949494949494" y="640.3838383838385" type="curve" smooth="yes"/>
      <point x="440.9949494949494" y="782.4848484848485" type="line" smooth="yes"/>
      <point x="440.9949494949494" y="1089.2373737373737"/>
      <point x="580.5959595959595" y="1246.3939393939395"/>
      <point x="879.590909090909" y="1246.3939393939395" type="curve" smooth="yes"/>
      <point x="982.3282828282828" y="1246.3939393939395"/>
      <point x="1093.8383838383838" y="1230.358585858586"/>
      <point x="1187.712121212121" y="1196.0050505050506" type="curve"/>
      <point x="1187.712121212121" y="1450.3181818181818" type="line"/>
      <point x="1090.388888888889" y="1486.7070707070707"/>
      <point x="980.8434343434343" y="1499.4141414141413"/>
      <point x="859.2929292929292" y="1499.4141414141413" type="curve" smooth="yes"/>
      <point x="374.14141414141415" y="1499.4141414141413"/>
      <point x="110.79292929292932" y="1223.3737373737374"/>
      <point x="110.79292929292932" y="688.7575757575758" type="curve" smooth="yes"/>
      <point x="110.79292929292932" y="198.33333333333331"/>
      <point x="355.95959595959596" y="-19.41414141414141"/>
    </contour>
  </outline>
</glyph>
<glyph name="seven" format="2">
  <advance width="1090.949494949495"/>
  <unicode hex="0037"/>
  <outline>
    <contour>
      <point x="177.91919191919192" y="0.0" type="line"/>
      <point x="527.1161616161614" y="0.0" type="line"/>
      <point x="1032.5707070707072" y="1301.060606060606" type="line"/>
      <point x="1032.5707070707072" y="1480.0" type="line"/>
      <point x="12.232323232323234" y="1480.0" type="line"/>
      <point x="12.232323232323234" y="1205.6464646464647" type="line"/>
      <point x="818.3080808080808" y="1205.6464646464647" type="line"/>
      <point x="708.3535353535354" y="1301.6464646464647" type="line"/>
    </contour>
  </outline>
</glyph>
<glyph name="eight" format="2">
  <advance width="1425.010101010101"/>
  <unicode hex="0038"/>
  <outline>
    <contour>
      <point x="716.4646464646464" y="-19.41414141414141" type="curve" smooth="yes"/>
      <point x="1137.979797979798" y="-19.41414141414141"/>
      <point x="1333.2929292929293" y="168.06060606060606"/>
      <point x="1333.2929292929293" y="410.74242424242425" type="curve" smooth="yes"/>
      <point x="1333.2929292929293" y="624.4848484848485"/>
      <point x="1210.9343434343434" y="762.8939393939394"/>
      <point x="819.0353535353534" y="856.4949494949494" type="curve" smooth="yes"/>
      <point x="515.651515151515" y="927.4797979797979"/>
      <point x="452.96464646464636" y="986.7020202020202"/>
      <point x="452.96464646464636" y="1097.8636363636365" type="curve" smooth="yes"/>
      <point x="452.96464646464636" y="1196.6515151515152"/>
      <point x="533.4949494949494" y="1269.7272727272727"/>
      <point x="727.2474747474747" y="1269.7272727272727" type="curve" smooth="yes"/>
      <point x="904.7979797979798" y="1269.7272727272727"/>
      <point x="994.6969696969697" y="1204.9444444444446"/>
      <point x="994.6969696969697" y="1089.9141414141413" type="curve" smooth="yes"/>
      <point x="994.6969696969697" y="982.8282828282828"/>
      <point x="933.6616161616162" y="903.2575757575758"/>
      <point x="778.1161616161617" y="833.7777777777777" type="curve"/>
      <point x="979.4595959595958" y="752.8434343434343" type="line"/>
      <point x="1205.0353535353534" y="830.5858585858585"/>
      <point x="1289.6666666666665" y="966.5"/>
      <point x="1289.6666666666665" y="1126.4141414141413" type="curve" smooth="yes"/>
      <point x="1289.6666666666665" y="1359.121212121212"/>
      <point x="1089.0656565656564" y="1499.4141414141413"/>
      <point x="734.4040404040404" y="1499.4141414141413" type="curve" smooth="yes"/>
      <point x="328.90909090909093" y="1499.4141414141413"/>
      <point x="132.0757575757576" y="1329.0707070707072"/>
      <point x="132.0757575757576" y="1084.550505050505" type="curve" smooth="yes"/>
      <point x="132.0757575757576" y="870.3535353535353"/>
      <point x="261.3585858585859" y="711.6565656565657"/>
      <point x="653.7474747474748" y="625.6010101010102" type="curve" smooth="yes"/>
      <point x="940.5353535353536" y="563.1010101010102"/>
      <point x="1016.6464646464647" y="504.21212121212125"/>
      <point x="1016.6464646464647" y="390.3333333333333" type="curve" smooth="yes"/>
      <point x="1016.6464646464647" y="277.10606060606057"/>
      <point x="924.7828282828283" y="210.2727272727272"/>
      <point x="717.9646464646464" y="210.2727272727272" type="curve" smooth="yes"/>
      <point x="505.4949494949494" y="210.2727272727272"/>
      <point x="406.5101010101009" y="282.34848484848476"/>
      <point x="406.5101010101009" y="409.4646464646464" type="curve" smooth="yes"/>
      <point x="406.5101010101009" y="514.3686868686868"/>
      <point x="477.4040404040403" y="615.6262626262627"/>
      <point x="647.7373737373737" y="666.7626262626263" type="curve"/>
      <point x="424.33838383838383" y="744.8080808080808" type="line"/>
      <point x="208.23232323232324" y="681.6969696969697"/>
      <point x="88.1818181818182" y="545.7676767676768"/>
      <point x="88.1818181818182" y="366.5151515151515" type="curve" smooth="yes"/>
      <point x="88.1818181818182" y="139.65151515151513"/>
      <point x="274.64646464646466" y="-19.41414141414141"/>
    </contour>
  </outline>
</glyph>
<glyph name="nine" format="2">
  <advance width="1326.8333333333333"/>
  <unicode hex="0039"/>
  <outline>
    <contour>
      <point x="603.3686868686868" y="1499.4141414141413" type="curve" smooth="yes"/>
      <point x="264.13131313131316" y="1499.4141414141413"/>
      <point x="60.04040404040404" y="1322.378787878788"/>
      <point x="60.04040404040404" y="1036.9040404040404" type="curve" smooth="yes"/>
      <point x="60.04040404040404" y="726.6818181818182"/>
      <point x="265.66666666666663" y="588.3636363636364"/>
      <point x="559.5202020202021" y="588.3636363636364" type="curve" smooth="yes"/>
      <point x="703.0" y="588.3636363636364"/>
      <point x="853.5656565656566" y="633.2323232323233"/>
      <point x="937.010101010101" y="706.7979797979798" type="curve"/>
      <point x="937.010101010101" y="935.1969696969696" type="line"/>
      <point x="852.2474747474748" y="860.7828282828282"/>
      <point x="734.6414141414141" y="826.8888888888888"/>
      <point x="626.8030303030303" y="826.8888888888888" type="curve" smooth="yes"/>
      <point x="465.81818181818176" y="826.8888888888888"/>
      <point x="367.9696969696969" y="894.7828282828283"/>
      <point x="367.9696969696969" y="1045.4141414141413" type="curve" smooth="yes"/>
      <point x="367.9696969696969" y="1190.8636363636365"/>
      <point x="461.7222222222222" y="1260.1818181818182"/>
      <point x="602.5151515151515" y="1260.1818181818182" type="curve" smooth="yes"/>
      <point x="778.1464646464647" y="1260.1818181818182"/>
      <point x="885.8383838383838" y="1161.2929292929293"/>
      <point x="885.8383838383838" y="839.6161616161615" type="curve" smooth="yes"/>
      <point x="885.8383838383838" y="697.5151515151515" type="line" smooth="yes"/>
      <point x="885.8383838383838" y="390.7626262626262"/>
      <point x="746.2373737373738" y="233.6060606060605"/>
      <point x="447.24242424242425" y="233.6060606060605" type="curve" smooth="yes"/>
      <point x="344.50505050505046" y="233.6060606060605"/>
      <point x="232.99494949494948" y="249.64141414141406"/>
      <point x="139.12121212121212" y="283.9949494949494" type="curve"/>
      <point x="139.12121212121212" y="29.68181818181818" type="line"/>
      <point x="236.44444444444443" y="-6.707070707070707"/>
      <point x="345.98989898989896" y="-19.41414141414141"/>
      <point x="467.54040404040404" y="-19.41414141414141" type="curve" smooth="yes"/>
      <point x="952.6919191919192" y="-19.41414141414141"/>
      <point x="1216.040404040404" y="256.6262626262626"/>
      <point x="1216.040404040404" y="791.2424242424242" type="curve" smooth="yes"/>
      <point x="1216.040404040404" y="1281.6666666666667"/>
      <point x="970.8737373737373" y="1499.4141414141413"/>
    </contour>
  </outline>
</glyph>
<glyph name="colon" format="2">
  <advance width="590.9191919191919"/>
  <unicode hex="003A"/>
  <outline>
    <contour>
      <point x="295.45959595959596" y="-17.070707070707066" type="curve" smooth="yes"/>
      <point x="427.97474747474735" y="-17.070707070707066"/>
      <point x="510.89393939393926" y="61.020202020202"/>
      <point x="510.89393939393926" y="179.6262626262626" type="curve" smooth="yes"/>
      <point x="510.89393939393926" y="298.2323232323231"/>
      <point x="430.8030303030302" y="376.90909090909076"/>
      <point x="295.45959595959596" y="376.90909090909076" type="curve" smooth="yes"/>
      <point x="160.11616161616163" y="376.90909090909076"/>
      <point x="80.02525252525255" y="301.06060606060595"/>
      <point x="80.02525252525255" y="179.6262626262626" type="curve" smooth="yes"/>
      <point x="80.02525252525255" y="58.19191919191917"/>
      <point x="162.94444444444446" y="-17.070707070707066"/>
    </contour>
    <contour>
      <point x="295.45959595959596" y="717.2323232323233" type="curve" smooth="yes"/>
      <point x="427.97474747474735" y="717.2323232323233"/>
      <point x="510.89393939393926" y="795.3232323232324"/>
      <point x="510.89393939393926" y="913.929292929293" type="curve" smooth="yes"/>
      <point x="510.89393939393926" y="1032.5353535353536"/>
      <point x="430.8030303030302" y="1111.2121212121212"/>
      <point x="295.45959595959596" y="1111.2121212121212" type="curve" smooth="yes"/>
      <point x="160.11616161616163" y="1111.2121212121212"/>
      <point x="80.02525252525255" y="1035.3636363636365"/>
      <point x="80.02525252525255" y="913.929292929293" type="curve" smooth="yes"/>
      <point x="80.02525252525255" y="792.4949494949497"/>
      <point x="162.94444444444446" y="717.2323232323233"/>
    </contour>
  </outline>
</glyph>
<glyph name="less" format="2">
  <advance width="1135.20202020202"/>
  <unicode hex="003C"/>
  <outline>
    <contour>
      <point x="1008.6717171717171" y="276.6060606060606" type="line"/>
      <point x="1008.6717171717171" y="531.030303030303" type="line"/>
      <point x="309.67171717171715" y="783.6666666666666" type="line"/>
      <point x="309.67171717171715" y="741.6363636363636" type="line"/>
      <point x="1008.6717171717171" y="988.969696969697" type="line"/>
      <point x="1008.6717171717171" y="1243.3939393939393" type="line"/>
      <point x="126.53030303030306" y="915.3939393939393" type="line"/>
      <point x="126.53030303030306" y="604.6060606060607" type="line"/>
    </contour>
  </outline>
</glyph>
<glyph name="equal" format="2">
  <advance width="1135.20202020202"/>
  <unicode hex="003D"/>
  <outline>
    <contour>
      <point x="126.53030303030306" y="860.5050505050506" type="line"/>
      <point x="1008.6717171717171" y="860.5050505050506" type="line"/>
      <point x="1008.6717171717171" y="1112.5858585858584" type="line"/>
      <point x="126.53030303030306" y="1112.5858585858584" type="line"/>
    </contour>
    <contour>
      <point x="126.53030303030306" y="407.41414141414145" type="line"/>
      <point x="1008.6717171717171" y="407.41414141414145" type="line"/>
      <point x="1008.6717171717171" y="659.4949494949494" type="line"/>
      <point x="126.53030303030306" y="659.4949494949494" type="line"/>
    </contour>
  </outline>
</glyph>
<glyph name="greater" format="2">
  <advance width="1135.20202020202"/>
  <unicode hex="003E"/>
  <outline>
    <contour>
      <point x="126.53030303030306" y="276.6060606060606" type="line"/>
      <point x="1008.6717171717171" y="604.6060606060607" type="line"/>
      <point x="1008.6717171717171" y="915.3939393939393" type="line"/>
      <point x="126.53030303030306" y="1243.3939393939393" type="line"/>
      <point x="126.53030303030306" y="988.969696969697" type="line"/>
      <point x="825.530303030303" y="741.6363636363636" type="line"/>
      <point x="825.530303030303" y="783.6666666666666" type="line"/>
      <point x="126.53030303030306" y="531.030303030303" type="line"/>
    </contour>
  </outline>
</glyph>
<glyph name="question" format="2">
  <advance width="1054.70202020202"/>
  <unicode hex="003F"/>
  <outline>
    <contour>
      <point x="377.1010101010101" y="464.0404040404039" type="line"/>
      <point x="580.3030303030303" y="464.0404040404039" type="line"/>
      <point x="603.3838383838383" y="670.6010101010102" type="line"/>
      <point x="858.9949494949494" y="744.9191919191919"/>
      <point x="998.2474747474746" y="874.3080808080808"/>
      <point x="998.2474747474746" y="1092.1363636363637" type="curve" smooth="yes"/>
      <point x="998.2474747474746" y="1351.8939393939395"/>
      <point x="809.8787878787878" y="1499.4141414141413"/>
      <point x="430.15656565656565" y="1499.4141414141413" type="curve" smooth="yes"/>
      <point x="296.6363636363636" y="1499.4141414141413"/>
      <point x="140.80808080808083" y="1476.671717171717"/>
      <point x="37.515151515151516" y="1442.939393939394" type="curve"/>
      <point x="37.515151515151516" y="1183.6767676767677" type="line"/>
      <point x="146.44444444444446" y="1220.7020202020203"/>
      <point x="277.3282828282828" y="1241.4444444444446"/>
      <point x="394.3636363636364" y="1241.4444444444446" type="curve" smooth="yes"/>
      <point x="587.2222222222223" y="1241.4444444444446"/>
      <point x="671.9343434343434" y="1178.6969696969697"/>
      <point x="671.9343434343434" y="1067.8030303030303" type="curve" smooth="yes"/>
      <point x="671.9343434343434" y="959.9191919191919"/>
      <point x="594.8787878787879" y="883.0050505050505"/>
      <point x="319.49494949494954" y="832.0" type="curve"/>
    </contour>
    <contour>
      <point x="479.2323232323232" y="-17.070707070707066" type="curve" smooth="yes"/>
      <point x="612.3333333333333" y="-17.070707070707066"/>
      <point x="694.6666666666665" y="57.363636363636346"/>
      <point x="694.6666666666665" y="167.9595959595959" type="curve" smooth="yes"/>
      <point x="694.6666666666665" y="279.1414141414141"/>
      <point x="614.5757575757575" y="353.57575757575745"/>
      <point x="479.2323232323232" y="353.57575757575745" type="curve" smooth="yes"/>
      <point x="343.8888888888889" y="353.57575757575745"/>
      <point x="263.79797979797985" y="281.9696969696969"/>
      <point x="263.79797979797985" y="167.9595959595959" type="curve" smooth="yes"/>
      <point x="263.79797979797985" y="54.535353535353515"/>
      <point x="346.7171717171717" y="-17.070707070707066"/>
    </contour>
  </outline>
</glyph>
<glyph name="at" format="2">
  <advance width="2211.469696969697"/>
  <unicode hex="0040"/>
  <outline>
    <contour>
      <point x="1154.540404040404" y="-460.0" type="curve" smooth="yes"/>
      <point x="1320.9444444444443" y="-460.0"/>
      <point x="1484.0454545454545" y="-441.1212121212121"/>
      <point x="1639.1414141414139" y="-405.4141414141414" type="curve"/>
      <point x="1639.1414141414139" y="-193.87878787878796" type="line"/>
      <point x="1476.3333333333333" y="-230.90404040404047"/>
      <point x="1319.919191919192" y="-249.05050505050514"/>
      <point x="1154.540404040404" y="-249.05050505050514" type="curve" smooth="yes"/>
      <point x="588.0353535353535" y="-249.05050505050514"/>
      <point x="336.81818181818176" y="-30.83333333333337"/>
      <point x="336.81818181818176" y="521.1717171717172" type="curve" smooth="yes"/>
      <point x="336.81818181818176" y="1068.489898989899"/>
      <point x="587.1565656565656" y="1287.050505050505"/>
      <point x="1113.4292929292928" y="1287.050505050505" type="curve" smooth="yes"/>
      <point x="1640.3232323232323" y="1287.050505050505"/>
      <point x="1889.2575757575755" y="1075.9040404040404"/>
      <point x="1892.7929292929293" y="572.3838383838383" type="curve" smooth="yes"/>
      <point x="1895.2676767676767" y="267.0454545454545"/>
      <point x="1819.6919191919192" y="187.99999999999994"/>
      <point x="1723.7525252525252" y="187.99999999999994" type="curve" smooth="yes"/>
      <point x="1657.131313131313" y="187.99999999999994"/>
      <point x="1618.2979797979797" y="222.29797979797974"/>
      <point x="1618.2979797979797" y="312.3636363636363" type="curve" smooth="yes"/>
      <point x="1618.2979797979797" y="634.6111111111112" type="line" smooth="yes"/>
      <point x="1618.2979797979797" y="980.1818181818182"/>
      <point x="1453.671717171717" y="1097.4141414141413"/>
      <point x="1089.3737373737372" y="1097.4141414141413" type="curve" smooth="yes"/>
      <point x="968.4545454545455" y="1097.4141414141413"/>
      <point x="831.570707070707" y="1077.439393939394"/>
      <point x="719.3838383838383" y="1040.611111111111" type="curve"/>
      <point x="718.6767676767677" y="796.1969696969697" type="line"/>
      <point x="819.7777777777778" y="831.4545454545455"/>
      <point x="940.4696969696969" y="850.0505050505051"/>
      <point x="1031.6868686868688" y="850.0505050505051" type="curve" smooth="yes"/>
      <point x="1217.8737373737374" y="850.0505050505051"/>
      <point x="1291.5101010101012" y="800.5353535353536"/>
      <point x="1291.5101010101012" y="648.1060606060606" type="curve" smooth="yes"/>
      <point x="1291.5101010101012" y="276.27272727272725" type="line"/>
      <point x="1241.7373737373737" y="229.2727272727272"/>
      <point x="1156.9292929292928" y="207.6767676767676"/>
      <point x="1098.8434343434342" y="207.6767676767676" type="curve" smooth="yes"/>
      <point x="1006.5101010101009" y="207.6767676767676"/>
      <point x="943.4545454545453" y="246.10606060606057"/>
      <point x="943.4545454545453" y="330.1262626262626" type="curve" smooth="yes"/>
      <point x="943.4545454545453" y="415.07070707070704"/>
      <point x="997.4898989898988" y="453.77777777777777"/>
      <point x="1118.5050505050503" y="464.84343434343435" type="curve" smooth="yes"/>
      <point x="1381.4545454545455" y="487.01010101010104" type="line"/>
      <point x="1350.3939393939395" y="661.8989898989898" type="line"/>
      <point x="1088.9545454545455" y="639.7323232323232" type="line" smooth="yes"/>
      <point x="755.8131313131313" y="615.5959595959596"/>
      <point x="612.7878787878788" y="502.0656565656565"/>
      <point x="612.7878787878788" y="297.9040404040404" type="curve" smooth="yes"/>
      <point x="612.7878787878788" y="106.59090909090908"/>
      <point x="747.3333333333333" y="-20.242424242424242"/>
      <point x="992.6969696969696" y="-20.242424242424242" type="curve" smooth="yes"/>
      <point x="1123.530303030303" y="-20.242424242424242"/>
      <point x="1246.6313131313132" y="22.20202020202021"/>
      <point x="1299.848484848485" y="130.82828282828282" type="curve"/>
      <point x="1318.5404040404042" y="130.82828282828282" type="line"/>
      <point x="1379.2828282828282" y="30.540404040404045"/>
      <point x="1488.2070707070707" y="-20.242424242424242"/>
      <point x="1645.1565656565656" y="-20.242424242424242" type="curve" smooth="yes"/>
      <point x="1926.3030303030303" y="-20.242424242424242"/>
      <point x="2119.4444444444443" y="142.63636363636363"/>
      <point x="2119.8838383838383" y="579.7979797979798" type="curve" smooth="yes"/>
      <point x="2120.3232323232323" y="1189.7525252525252"/>
      <point x="1763.4292929292928" y="1498.0"/>
      <point x="1113.4292929292928" y="1498.0" type="curve" smooth="yes"/>
      <point x="464.7828282828283" y="1498.0"/>
      <point x="91.5858585858586" y="1189.7525252525252"/>
      <point x="91.5858585858586" y="520.0" type="curve" smooth="yes"/>
      <point x="91.5858585858586" y="-151.2171717171717"/>
      <point x="465.5151515151515" y="-459.56060606060606"/>
    </contour>
  </outline>
</glyph>
<glyph name="B" format="2">
  <advance width="1401.3232323232323"/>
  <unicode hex="0042"/>
  <anchor x="721.5252525252524" y="0.0" name="bottom"/>
  <anchor x="721.5252525252524" y="1480.0" name="top"/>
  <outline>
    <contour>
      <point x="583.2979797979798" y="-17.070707070707066" type="curve" smooth="yes"/>
      <point x="1148.3686868686868" y="-17.070707070707066"/>
      <point x="1342.3131313131312" y="143.93434343434342"/>
      <point x="1342.3131313131312" y="418.35858585858585" type="curve" smooth="yes"/>
      <point x="1342.3131313131312" y="624.0151515151515"/>
      <point x="1221.232323232323" y="741.8787878787879"/>
      <point x="1031.060606060606" y="768.7323232323232" type="curve"/>
      <point x="1029.742424242424" y="755.7070707070707" type="line"/>
      <point x="1201.3888888888887" y="788.560606060606"/>
      <point x="1301.9949494949494" y="916.8939393939394"/>
      <point x="1301.9949494949494" y="1083.2525252525252" type="curve" smooth="yes"/>
      <point x="1301.9949494949494" y="1355.8939393939395"/>
      <point x="1109.651515151515" y="1498.2424242424242"/>
      <point x="647.7020202020202" y="1498.2424242424242" type="curve" smooth="yes"/>
      <point x="477.9494949494949" y="1498.2424242424242"/>
      <point x="288.84343434343435" y="1475.2828282828282"/>
      <point x="143.959595959596" y="1442.5050505050506" type="curve"/>
      <point x="143.959595959596" y="12.646464646464645" type="line"/>
      <point x="279.42424242424244" y="-5.5606060606060606"/>
      <point x="454.76262626262627" y="-17.070707070707066"/>
    </contour>
    <contour>
      <point x="673.6818181818181" y="224.9898989898989" type="curve" smooth="yes"/>
      <point x="605.5555555555554" y="224.9898989898989"/>
      <point x="547.2525252525252" y="226.80808080808072"/>
      <point x="477.46464646464636" y="234.79797979797974" type="curve"/>
      <point x="477.46464646464636" y="1237.0454545454547" type="line"/>
      <point x="539.0353535353535" y="1248.5959595959596"/>
      <point x="607.3737373737373" y="1256.1818181818182"/>
      <point x="688.1515151515151" y="1256.1818181818182" type="curve" smooth="yes"/>
      <point x="904.5252525252525" y="1256.1818181818182"/>
      <point x="982.4848484848485" y="1198.6212121212122"/>
      <point x="982.4848484848485" y="1067.6969696969697" type="curve" smooth="yes"/>
      <point x="982.4848484848485" y="941.9949494949494"/>
      <point x="906.9646464646464" y="880.2626262626262"/>
      <point x="709.7828282828282" y="880.2626262626262" type="curve" smooth="yes"/>
      <point x="439.54545454545445" y="880.2626262626262" type="line"/>
      <point x="439.54545454545445" y="632.89898989899" type="line"/>
      <point x="741.5959595959596" y="632.89898989899" type="line" smooth="yes"/>
      <point x="948.8383838383838" y="632.89898989899"/>
      <point x="1029.7878787878788" y="570.3484848484849"/>
      <point x="1029.7878787878788" y="430.6111111111111" type="curve" smooth="yes"/>
      <point x="1029.7878787878788" y="294.2373737373737"/>
      <point x="949.2575757575758" y="224.9898989898989"/>
    </contour>
  </outline>
</glyph>
<glyph name="C" format="2">
  <advance width="1331.449494949495"/>
  <unicode hex="0043"/>
  <anchor x="803.4393939393939" y="0.0" name="bottom"/>
  <anchor x="798.3131313131313" y="1520.0" name="top"/>
  <outline>
    <contour>
      <point x="919.3282828282827" y="-19.41414141414141" type="curve" smooth="yes"/>
      <point x="1045.4292929292928" y="-19.41414141414141"/>
      <point x="1170.4141414141413" y="-1.7424242424242404"/>
      <point x="1274.0757575757575" y="28.44444444444445" type="curve"/>
      <point x="1274.0757575757575" y="305.7373737373737" type="line"/>
      <point x="1166.212121212121" y="276.121212121212"/>
      <point x="1059.2373737373737" y="259.7676767676767"/>
      <point x="945.7828282828282" y="259.7676767676767" type="curve" smooth="yes"/>
      <point x="614.631313131313" y="259.7676767676767"/>
      <point x="449.24242424242414" y="398.04545454545445"/>
      <point x="449.24242424242414" y="740.5858585858585" type="curve" smooth="yes"/>
      <point x="449.24242424242414" y="1074.1818181818182"/>
      <point x="612.8232323232322" y="1220.2323232323233"/>
      <point x="960.050505050505" y="1220.2323232323233" type="curve" smooth="yes"/>
      <point x="1071.5656565656564" y="1220.2323232323233"/>
      <point x="1174.9848484848485" y="1207.828282828283"/>
      <point x="1274.0757575757575" y="1185.0555555555557" type="curve"/>
      <point x="1274.0757575757575" y="1462.3484848484848" type="line"/>
      <point x="1165.671717171717" y="1487.3636363636363"/>
      <point x="1054.7828282828282" y="1499.4141414141413"/>
      <point x="933.5" y="1499.4141414141413" type="curve" smooth="yes"/>
      <point x="391.24242424242425" y="1499.4141414141413"/>
      <point x="91.5858585858586" y="1234.0404040404042"/>
      <point x="91.5858585858586" y="736.5858585858585" type="curve" smooth="yes"/>
      <point x="91.5858585858586" y="214.01010101010098"/>
      <point x="389.4545454545455" y="-19.41414141414141"/>
    </contour>
  </outline>
</glyph>
<glyph name="F" format="2">
  <advance width="1309.4343434343432"/>
  <unicode hex="0046"/>
  <outline>
    <contour>
      <point x="143.959595959596" y="0.0" type="line"/>
      <point x="485.59595959595947" y="0.0" type="line"/>
      <point x="485.59595959595947" y="1210.0101010101012" type="line"/>
      <point x="1250.151515151515" y="1210.0101010101012" type="line"/>
      <point x="1250.151515151515" y="1480.0" type="line"/>
      <point x="143.959595959596" y="1480.0" type="line"/>
    </contour>
    <contour>
      <point x="348.55555555555554" y="587.2929292929293" type="line"/>
      <point x="1144.8737373737372" y="587.2929292929293" type="line"/>
      <point x="1144.8737373737372" y="857.2828282828283" type="line"/>
      <point x="348.55555555555554" y="857.2828282828283" type="line"/>
    </contour>
  </outline>
</glyph>
<glyph name="H" format="2">
  <advance width="1628.4141414141413"/>
  <unicode hex="0048"/>
  <anchor x="814.9141414141413" y="0.0" name="bottom"/>
  <anchor x="814.9141414141413" y="1194.090909090909" name="center"/>
  <anchor x="814.9141414141413" y="1520.0" name="top"/>
  <anchor x="41.025252525252526" y="1480.0" name="topleft"/>
  <outline>
    <contour>
      <point x="143.959595959596" y="0.0" type="line"/>
      <point x="485.59595959595947" y="0.0" type="line"/>
      <point x="485.59595959595947" y="608.8585858585859" type="line"/>
      <point x="1142.818181818182" y="608.8585858585859" type="line"/>
      <point x="1142.818181818182" y="0.0" type="line"/>
      <point x="1484.4545454545453" y="0.0" type="line"/>
      <point x="1484.4545454545453" y="1480.0" type="line"/>
      <point x="1142.818181818182" y="1480.0" type="line"/>
      <point x="1142.818181818182" y="904.6565656565656" type="line"/>
      <point x="485.59595959595947" y="904.6565656565656" type="line"/>
      <point x="485.59595959595947" y="1480.0" type="line"/>
      <point x="143.959595959596" y="1480.0" type="line"/>
    </contour>
  </outline>
</glyph>
<glyph name="I" format="2">
  <advance width="629.5555555555554"/>
  <unicode hex="0049"/>
  <anchor x="313.7171717171717" y="0.0" name="bottom"/>
  <anchor x="485.59595959595947" y="0.0" name="ogonek"/>
  <anchor x="314.7777777777777" y="1520.0" name="top"/>
  <outline>
    <contour>
      <point x="143.959595959596" y="0.0" type="line"/>
      <point x="485.59595959595947" y="0.0" type="line"/>
      <point x="485.59595959595947" y="1480.0" type="line"/>
      <point x="143.959595959596" y="1480.0" type="line"/>
    </contour>
  </outline>
</glyph>
<glyph name="J" format="2">
  <advance width="629.5555555555554"/>
  <unicode hex="004A"/>
  <anchor x="502.5858585858585" y="0.0" name="bottom"/>
  <anchor x="315.8383838383838" y="1520.0" name="top"/>
  <outline>
    <contour>
      <point x="199.54545454545448" y="-351.3131313131313" type="line"/>
      <point x="409.6717171717171" y="-140.05050505050505"/>
      <point x="481.9343434343433" y="55.23232323232322"/>
      <point x="485.59595959595947" y="299.2272727272727" type="curve"/>
      <point x="485.59595959595947" y="1480.0" type="line"/>
      <point x="146.0808080808081" y="1480.0" type="line"/>
      <point x="146.0808080808081" y="298.020202020202" type="line" smooth="yes"/>
      <point x="146.0808080808081" y="83.52525252525251"/>
      <point x="103.52525252525254" y="-57.12121212121215"/>
      <point x="-14.762626262626256" y="-207.27777777777783" type="curve"/>
    </contour>
  </outline>
</glyph>
<glyph name="K" format="2">
  <advance width="1406.1666666666665"/>
  <unicode hex="004B"/>
  <anchor x="736.1515151515151" y="0.0" name="bottom"/>
  <anchor x="730.8484848484848" y="1480.0" name="top"/>
  <outline>
    <contour>
      <point x="1072.080808080808" y="0.0" type="line"/>
      <point x="1444.9444444444443" y="0.0" type="line"/>
      <point x="877.7222222222222" y="801.5757575757575" type="line"/>
      <point x="870.651515151515" y="716.7676767676768" type="line"/>
      <point x="1399.762626262626" y="1480.0" type="line"/>
      <point x="1039.1515151515152" y="1480.0" type="line"/>
      <point x="535.5959595959596" y="754.4646464646464" type="line"/>
    </contour>
    <contour>
      <point x="143.959595959596" y="0.0" type="line"/>
      <point x="485.59595959595947" y="0.0" type="line"/>
      <point x="485.59595959595947" y="1480.0" type="line"/>
      <point x="143.959595959596" y="1480.0" type="line"/>
    </contour>
    <contour>
      <point x="437.7777777777777" y="608.8585858585859" type="line"/>
      <point x="673.9292929292928" y="608.8585858585859" type="line"/>
      <point x="673.9292929292928" y="904.5101010101009" type="line"/>
      <point x="437.7777777777777" y="904.5101010101009" type="line"/>
    </contour>
  </outline>
</glyph>
<glyph name="M" format="2">
  <advance width="1982.2222222222222"/>
  <unicode hex="004D"/>
  <anchor x="1012.6767676767677" y="0.0" name="bottom"/>
  <anchor x="1012.6767676767677" y="1480.0" name="top"/>
  <outline>
    <contour>
      <point x="147.959595959596" y="0.0" type="line"/>
      <point x="467.090909090909" y="0.0" type="line"/>
      <point x="467.090909090909" y="1193.909090909091" type="line"/>
      <point x="381.7777777777777" y="1193.909090909091" type="line"/>
      <point x="849.1717171717172" y="214.14141414141415" type="line"/>
      <point x="1133.0505050505049" y="214.14141414141415" type="line"/>
      <point x="1584.6565656565656" y="1193.909090909091" type="line"/>
      <point x="1515.1313131313132" y="1193.909090909091" type="line"/>
      <point x="1515.1313131313132" y="0.0" type="line"/>
      <point x="1834.262626262626" y="0.0" type="line"/>
      <point x="1834.262626262626" y="1480.0" type="line"/>
      <point x="1420.3686868686868" y="1480.0" type="line"/>
      <point x="974.989898989899" y="502.80808080808066" type="line"/>
      <point x="1018.3030303030303" y="502.80808080808066" type="line"/>
      <point x="561.8535353535351" y="1480.0" type="line"/>
      <point x="147.959595959596" y="1480.0" type="line"/>
    </contour>
  </outline>
</glyph>
<glyph name="N" format="2">
  <advance width="1644.8333333333333"/>
  <unicode hex="004E"/>
  <anchor x="822.6363636363636" y="0.0" name="bottom"/>
  <anchor x="822.6363636363636" y="1520.0" name="top"/>
  <outline>
    <contour>
      <point x="143.959595959596" y="0.0" type="line"/>
      <point x="465.56565656565647" y="0.0" type="line"/>
      <point x="465.56565656565647" y="1075.6565656565658" type="line"/>
      <point x="407.13636363636357" y="1075.6565656565658" type="line"/>
      <point x="1157.6868686868688" y="0.0" type="line"/>
      <point x="1500.8737373737372" y="0.0" type="line"/>
      <point x="1500.8737373737372" y="1480.0" type="line"/>
      <point x="1179.2676767676767" y="1480.0" type="line"/>
      <point x="1179.2676767676767" y="404.3434343434342" type="line"/>
      <point x="1237.6969696969697" y="404.3434343434342" type="line"/>
      <point x="487.14646464646455" y="1480.0" type="line"/>
      <point x="143.959595959596" y="1480.0" type="line"/>
    </contour>
  </outline>
</glyph>
<glyph name="P" format="2">
  <advance width="1391.4747474747473"/>
  <unicode hex="0050"/>
  <outline>
    <contour>
      <point x="143.959595959596" y="0.0" type="line"/>
      <point x="485.59595959595947" y="0.0" type="line"/>
      <point x="485.59595959595947" y="432.21717171717177" type="line"/>
      <point x="537.9747474747473" y="429.58080808080814"/>
      <point x="585.9949494949494" y="427.1414141414142"/>
      <point x="640.6161616161615" y="427.1414141414142" type="curve" smooth="yes"/>
      <point x="1087.919191919192" y="427.1414141414142"/>
      <point x="1311.9545454545453" y="610.7727272727273"/>
      <point x="1311.9545454545453" y="963.2474747474748" type="curve" smooth="yes"/>
      <point x="1311.9545454545453" y="1334.2474747474748"/>
      <point x="1079.4646464646464" y="1498.2424242424242"/>
      <point x="619.1414141414141" y="1498.2424242424242" type="curve" smooth="yes"/>
      <point x="444.010101010101" y="1498.2424242424242"/>
      <point x="292.02525252525254" y="1480.5858585858587"/>
      <point x="143.959595959596" y="1452.1969696969697" type="curve"/>
    </contour>
    <contour>
      <point x="643.8838383838383" y="674.8585858585858" type="curve" smooth="yes"/>
      <point x="583.9696969696969" y="674.8585858585858"/>
      <point x="538.580808080808" y="677.7373737373737"/>
      <point x="485.59595959595947" y="684.8484848484848" type="curve"/>
      <point x="485.59595959595947" y="1237.5454545454545" type="line"/>
      <point x="536.560606060606" y="1246.4747474747476"/>
      <point x="586.1616161616162" y="1250.5252525252527"/>
      <point x="650.2525252525252" y="1250.5252525252527" type="curve" smooth="yes"/>
      <point x="875.2424242424242" y="1250.5252525252527"/>
      <point x="980.8131313131314" y="1164.2424242424242"/>
      <point x="980.8131313131314" y="961.8080808080808" type="curve" smooth="yes"/>
      <point x="980.8131313131314" y="758.4646464646464"/>
      <point x="878.4646464646464" y="674.8585858585858"/>
    </contour>
  </outline>
</glyph>
<glyph name="Q" format="2">
  <advance width="1680.7070707070707"/>
  <unicode hex="0051"/>
  <outline>
    <contour>
      <point x="1519.1565656565656" y="-324.2424242424242" type="curve"/>
      <point x="1571.9949494949494" y="-63.090909090909115" type="line"/>
      <point x="1311.1161616161614" y="-33.863636363636395"/>
      <point x="1054.9292929292928" y="14.742424242424207"/>
      <point x="821.8535353535353" y="101.03030303030299" type="curve"/>
      <point x="712.5858585858585" y="18.5151515151515" type="line"/>
      <point x="1301.9646464646464" y="-54.525252525252526"/>
      <point x="1589.121212121212" y="242.75252525252523"/>
      <point x="1589.121212121212" y="740.0" type="curve" smooth="yes"/>
      <point x="1589.121212121212" y="1242.2474747474748"/>
      <point x="1296.0505050505049" y="1499.4141414141413"/>
      <point x="840.3535353535353" y="1499.4141414141413" type="curve" smooth="yes"/>
      <point x="384.65656565656565" y="1499.4141414141413"/>
      <point x="91.5858585858586" y="1241.7323232323233"/>
      <point x="91.5858585858586" y="729.3939393939394" type="curve" smooth="yes"/>
      <point x="91.5858585858586" y="191.2979797979798"/>
      <point x="399.6818181818182" y="-168.12121212121207"/>
    </contour>
    <contour>
      <point x="840.3535353535353" y="252.78282828282818" type="curve" smooth="yes"/>
      <point x="587.6969696969696" y="252.78282828282818"/>
      <point x="440.75757575757564" y="393.8585858585858"/>
      <point x="440.75757575757564" y="746.8282828282828" type="curve" smooth="yes"/>
      <point x="440.75757575757564" y="1084.020202020202"/>
      <point x="592.9999999999999" y="1227.2171717171718"/>
      <point x="840.3535353535353" y="1227.2171717171718" type="curve" smooth="yes"/>
      <point x="1087.7070707070707" y="1227.2171717171718"/>
      <point x="1239.949494949495" y="1080.8383838383838"/>
      <point x="1239.949494949495" y="733.1717171717172" type="curve" smooth="yes"/>
      <point x="1239.949494949495" y="399.16161616161605"/>
      <point x="1090.888888888889" y="252.78282828282818"/>
    </contour>
  </outline>
</glyph>
<glyph name="T" format="2">
  <advance width="1367.141414141414"/>
  <unicode hex="0054"/>
  <anchor x="683.7474747474747" y="0.0" name="bottom"/>
  <anchor x="683.7474747474747" y="729.2929292929293" name="center"/>
  <anchor x="683.7474747474747" y="1520.0" name="top"/>
  <outline>
    <contour>
      <point x="512.5757575757576" y="0.0" type="line"/>
      <point x="854.5656565656564" y="0.0" type="line"/>
      <point x="854.5656565656564" y="1204.3535353535353" type="line"/>
      <point x="1349.7878787878785" y="1204.3535353535353" type="line"/>
      <point x="1349.7878787878785" y="1480.0" type="line"/>
      <point x="17.353535353535353" y="1480.0" type="line"/>
      <point x="17.353535353535353" y="1204.3535353535353" type="line"/>
      <point x="512.5757575757576" y="1204.3535353535353" type="line"/>
    </contour>
  </outline>
</glyph>
<glyph name="V" format="2">
  <advance width="1535.6565656565656"/>
  <unicode hex="0056"/>
  <outline>
    <contour>
      <point x="518.6060606060606" y="0.0" type="line"/>
      <point x="1017.0505050505049" y="0.0" type="line"/>
      <point x="1529.651515151515" y="1480.0" type="line"/>
      <point x="1194.4141414141413" y="1480.0" type="line"/>
      <point x="737.9343434343434" y="142.17171717171712" type="line"/>
      <point x="815.4494949494949" y="142.17171717171712" type="line"/>
      <point x="365.39393939393926" y="1480.0" type="line"/>
      <point x="6.005050505050512" y="1480.0" type="line"/>
    </contour>
  </outline>
</glyph>
<glyph name="X" format="2">
  <advance width="1451.6161616161617"/>
  <unicode hex="0058"/>
  <outline>
    <contour>
      <point x="1104.6565656565658" y="0.0" type="line"/>
      <point x="1485.030303030303" y="0.0" type="line"/>
      <point x="924.4545454545453" y="771.3333333333334" type="line"/>
      <point x="726.6919191919192" y="1005.161616161616" type="line"/>
      <point x="382.1818181818181" y="1480.0" type="line"/>
      <point x="0.8939393939394193" y="1480.0" type="line"/>
      <point x="523.1868686868687" y="766.2979797979798" type="line"/>
      <point x="720.9494949494949" y="533.3838383838385" type="line"/>
    </contour>
    <contour>
      <point x="-34.56060606060602" y="0.0" type="line"/>
      <point x="337.8030303030302" y="0.0" type="line"/>
      <point x="720.9494949494949" y="533.3838383838385" type="line"/>
      <point x="924.4545454545453" y="771.3333333333334" type="line"/>
      <point x="1440.030303030303" y="1480.0" type="line"/>
      <point x="1070.580808080808" y="1480.0" type="line"/>
      <point x="726.6919191919192" y="1005.161616161616" type="line"/>
      <point x="523.1868686868687" y="766.2979797979798" type="line"/>
    </contour>
  </outline>
</glyph>
<glyph name="Y" format="2">
  <advance width="1367.141414141414"/>
  <unicode hex="0059"/>
  <anchor x="682.6868686868686" y="0.0" name="bottom"/>
  <anchor x="683.040404040404" y="1520.0" name="top"/>
  <anchor x="2.6262626262626334" y="1480.0" name="topleft"/>
  <outline>
    <contour>
      <point x="515.0505050505051" y="0.0" type="line"/>
      <point x="856.6868686868686" y="0.0" type="line"/>
      <point x="856.6868686868686" y="754.5808080808081" type="line"/>
      <point x="788.1919191919192" y="519.4242424242425" type="line"/>
      <point x="1402.8030303030303" y="1480.0" type="line"/>
      <point x="1064.1363636363637" y="1480.0" type="line"/>
      <point x="643.4141414141413" y="826.5353535353535" type="line"/>
      <point x="741.9292929292928" y="826.5353535353535" type="line"/>
      <point x="314.06060606060595" y="1480.0" type="line"/>
      <point x="-49.671717171717155" y="1480.0" type="line"/>
      <point x="583.5454545454545" y="519.4242424242425" type="line"/>
      <point x="515.0505050505051" y="758.8232323232323" type="line"/>
    </contour>
  </outline>
</glyph>
<glyph name="bracketleft" format="2">
  <advance width="756.5050505050505"/>
  <unicode hex="005B"/>
  <outline>
    <contour>
      <point x="163.959595959596" y="-440.0" type="line"/>
      <point x="774.5858585858585" y="-440.0" type="line"/>
      <point x="774.5858585858585" y="-177.3131313131314" type="line"/>
      <point x="498.1717171717171" y="-177.3131313131314" type="line"/>
      <point x="498.1717171717171" y="1353.3131313131314" type="line"/>
      <point x="785.1919191919192" y="1353.3131313131314" type="line"/>
      <point x="785.1919191919192" y="1616.0" type="line"/>
      <point x="163.959595959596" y="1616.0" type="line"/>
    </contour>
  </outline>
</glyph>
<glyph name="backslash" format="2">
  <advance width="860.9848484848484"/>
  <unicode hex="005C"/>
  <outline>
    <contour>
      <point x="527.5151515151515" y="-240.0" type="line"/>
      <point x="860.9848484848484" y="-240.0" type="line"/>
      <point x="333.4696969696968" y="1616.0" type="line"/>
      <point x="0.0" y="1616.0" type="line"/>
    </contour>
  </outline>
</glyph>
<glyph name="bracketright" format="2">
  <advance width="756.5050505050505"/>
  <unicode hex="005D"/>
  <outline>
    <contour>
      <point x="-18.08080808080809" y="-440.0" type="line"/>
      <point x="592.5454545454545" y="-440.0" type="line"/>
      <point x="592.5454545454545" y="1616.0" type="line"/>
      <point x="-28.686868686868692" y="1616.0" type="line"/>
      <point x="-28.686868686868692" y="1353.3131313131314" type="line"/>
      <point x="258.33333333333337" y="1353.3131313131314" type="line"/>
      <point x="258.33333333333337" y="-177.3131313131314" type="line"/>
      <point x="-18.08080808080809" y="-177.3131313131314" type="line"/>
    </contour>
  </outline>
</glyph>
<glyph name="underscore" format="2">
  <advance width="1296.1919191919192"/>
  <unicode hex="005F"/>
  <outline>
    <contour>
      <point x="90.42929292929293" y="-263.74747474747466" type="line"/>
      <point x="1205.7626262626263" y="-263.74747474747466" type="line"/>
      <point x="1205.7626262626263" y="-1.06060606060606" type="line"/>
      <point x="90.42929292929293" y="-1.06060606060606" type="line"/>
    </contour>
  </outline>
</glyph>
<glyph name="b" format="2">
  <advance width="1322.0252525252524"/>
  <unicode hex="0062"/>
  <anchor x="663.9696969696969" y="0.0" name="bottom"/>
  <anchor x="296.19191919191917" y="1616.0" name="top"/>
  <outline>
    <contour>
      <point x="587.2727272727273" y="-20.474747474747474" type="curve" smooth="yes"/>
      <point x="1025.6565656565656" y="-20.828282828282827"/>
      <point x="1245.3888888888887" y="185.530303030303"/>
      <point x="1245.3888888888887" y="571.6666666666666" type="curve" smooth="yes"/>
      <point x="1245.3888888888887" y="945.8080808080808"/>
      <point x="1036.8333333333333" y="1111.5555555555557"/>
      <point x="789.090909090909" y="1111.5555555555557" type="curve" smooth="yes"/>
      <point x="656.8181818181818" y="1111.5555555555557"/>
      <point x="551.9848484848484" y="1066.7222222222222"/>
      <point x="478.6666666666666" y="988.9040404040404" type="curve"/>
      <point x="463.121212121212" y="988.9040404040404" type="line"/>
      <point x="463.121212121212" y="1616.0" type="line"/>
      <point x="128.90909090909093" y="1616.0" type="line"/>
      <point x="128.90909090909093" y="42.55555555555555" type="line"/>
      <point x="268.9191919191919" y="-1.43939393939394"/>
      <point x="434.52020202020196" y="-20.474747474747474"/>
    </contour>
    <contour>
      <point x="616.959595959596" y="230.7777777777777" type="curve" smooth="yes"/>
      <point x="557.9949494949494" y="230.7777777777777"/>
      <point x="503.7878787878787" y="238.56060606060598"/>
      <point x="463.121212121212" y="249.22222222222211" type="curve"/>
      <point x="463.121212121212" y="771.7525252525253" type="line"/>
      <point x="518.7777777777777" y="820.348484848485"/>
      <point x="594.0151515151515" y="841.919191919192"/>
      <point x="667.3636363636363" y="841.919191919192" type="curve" smooth="yes"/>
      <point x="813.7878787878788" y="841.919191919192"/>
      <point x="911.7727272727273" y="769.7828282828284"/>
      <point x="911.7727272727273" y="546.3434343434343" type="curve" smooth="yes"/>
      <point x="911.7727272727273" y="325.4444444444444"/>
      <point x="813.6666666666666" y="230.7777777777777"/>
    </contour>
  </outline>
</glyph>
<glyph name="f" format="2">
  <advance width="861.2676767676767"/>
  <unicode hex="0066"/>
  <outline>
    <contour>
      <point x="220.92424242424244" y="0.0" type="line"/>
      <point x="554.0757575757575" y="0.0" type="line"/>
      <point x="554.0757575757575" y="1168.949494949495" type="line" smooth="yes"/>
      <point x="554.0757575757575" y="1310.050505050505"/>
      <point x="626.181818181818" y="1374.1414141414143"/>
      <point x="791.1565656565656" y="1374.1414141414143" type="curve" smooth="yes"/>
      <point x="830.4040404040403" y="1374.1414141414143"/>
      <point x="867.6414141414141" y="1371.1161616161617"/>
      <point x="909.4494949494949" y="1365.5050505050506" type="curve"/>
      <point x="909.4494949494949" y="1623.7070707070707" type="line"/>
      <point x="852.7575757575758" y="1631.7070707070707"/>
      <point x="802.7070707070707" y="1636.0"/>
      <point x="738.9444444444443" y="1636.0" type="curve" smooth="yes"/>
      <point x="406.7676767676768" y="1636.0"/>
      <point x="220.92424242424244" y="1456.2525252525252"/>
      <point x="220.92424242424244" y="1155.318181818182" type="curve" smooth="yes"/>
    </contour>
    <contour>
      <point x="33.348484848484844" y="831.4545454545455" type="line"/>
      <point x="860.1717171717171" y="831.4545454545455" type="line"/>
      <point x="860.1717171717171" y="1094.141414141414" type="line"/>
      <point x="33.348484848484844" y="1094.141414141414" type="line"/>
    </contour>
  </outline>
</glyph>
<glyph name="h" format="2">
  <advance width="1310.8030303030303"/>
  <unicode hex="0068"/>
  <anchor x="661.1464646464647" y="0.0" name="bottom"/>
  <anchor x="661.1464646464647" y="547.070707070707" name="center"/>
  <anchor x="128.90909090909093" y="1351.7575757575758" name="stroke"/>
  <anchor x="661.1464646464647" y="1616.0" name="top"/>
  <outline>
    <contour>
      <point x="128.90909090909093" y="0.0" type="line"/>
      <point x="463.121212121212" y="0.0" type="line"/>
      <point x="463.121212121212" y="735.2727272727274" type="line"/>
      <point x="518.6868686868686" y="796.4292929292931"/>
      <point x="604.6969696969696" y="827.5454545454546"/>
      <point x="686.2020202020202" y="827.5454545454546" type="curve" smooth="yes"/>
      <point x="792.7020202020202" y="827.5454545454546"/>
      <point x="857.3181818181819" y="781.8030303030304"/>
      <point x="857.3181818181819" y="639.2121212121212" type="curve" smooth="yes"/>
      <point x="857.3181818181819" y="0.0" type="line"/>
      <point x="1191.530303030303" y="0.0" type="line"/>
      <point x="1191.530303030303" y="659.510101010101" type="line" smooth="yes"/>
      <point x="1191.530303030303" y="983.6262626262626"/>
      <point x="1022.550505050505" y="1111.5555555555557"/>
      <point x="801.4797979797979" y="1111.5555555555557" type="curve" smooth="yes"/>
      <point x="674.3030303030303" y="1111.5555555555557"/>
      <point x="561.7222222222222" y="1068.358585858586"/>
      <point x="478.6666666666666" y="986.8535353535353" type="curve"/>
      <point x="463.121212121212" y="986.8535353535353" type="line"/>
      <point x="463.121212121212" y="1616.0" type="line"/>
      <point x="128.90909090909093" y="1616.0" type="line"/>
    </contour>
  </outline>
</glyph>
<glyph name="i" format="2">
  <advance width="592.3838383838383"/>
  <unicode hex="0069"/>
  <anchor x="296.19191919191917" y="1200.0" name="_top"/>
  <anchor x="296.19191919191917" y="0.0" name="bottom"/>
  <anchor x="463.47474747474735" y="0.0" name="ogonek"/>
  <anchor x="296.19191919191917" y="1200.0" name="top"/>
  <outline>
    <contour>
      <point x="128.90909090909093" y="0.0" type="line"/>
      <point x="463.47474747474735" y="0.0" type="line"/>
      <point x="463.47474747474735" y="1094.141414141414" type="line"/>
      <point x="128.90909090909093" y="1094.141414141414" type="line"/>
    </contour>
    <contour>
      <point x="296.19191919191917" y="1251.818181818182" type="curve" smooth="yes"/>
      <point x="436.13131313131305" y="1251.818181818182"/>
      <point x="501.0202020202019" y="1311.878787878788"/>
      <point x="501.0202020202019" y="1419.171717171717" type="curve" smooth="yes"/>
      <point x="501.0202020202019" y="1526.4646464646464"/>
      <point x="436.13131313131305" y="1587.111111111111"/>
      <point x="296.19191919191917" y="1587.111111111111" type="curve" smooth="yes"/>
      <point x="156.25252525252526" y="1587.111111111111"/>
      <point x="91.36363636363639" y="1526.4646464646464"/>
      <point x="91.36363636363639" y="1419.171717171717" type="curve" smooth="yes"/>
      <point x="91.36363636363639" y="1311.878787878788"/>
      <point x="156.25252525252526" y="1251.818181818182"/>
    </contour>
  </outline>
</glyph>
<glyph name="j" format="2">
  <advance width="592.3838383838383"/>
  <unicode hex="006A"/>
  <anchor x="290.88888888888886" y="1202.6363636363637" name="_top"/>
  <anchor x="290.88888888888886" y="1202.6363636363637" name="top"/>
  <outline>
    <contour>
      <point x="180.25252525252517" y="-471.3131313131313" type="line"/>
      <point x="387.9040404040403" y="-260.0505050505051"/>
      <point x="463.47474747474735" y="-62.4949494949495"/>
      <point x="463.47474747474735" y="188.8232323232323" type="curve" smooth="yes"/>
      <point x="463.47474747474735" y="1094.141414141414" type="line"/>
      <point x="128.90909090909093" y="1094.141414141414" type="line"/>
      <point x="128.90909090909093" y="175.8989898989899" type="line" smooth="yes"/>
      <point x="128.90909090909093" y="-38.59595959595961"/>
      <point x="86.35353535353536" y="-179.24242424242428"/>
      <point x="-31.934343434343425" y="-329.39898989898995" type="curve"/>
    </contour>
    <contour>
      <point x="290.88888888888886" y="1254.4545454545455" type="curve" smooth="yes"/>
      <point x="430.82828282828274" y="1254.4545454545455"/>
      <point x="495.7171717171716" y="1314.5151515151515"/>
      <point x="495.7171717171716" y="1421.8080808080808" type="curve" smooth="yes"/>
      <point x="495.7171717171716" y="1529.1010101010102"/>
      <point x="430.82828282828274" y="1589.7474747474748"/>
      <point x="290.88888888888886" y="1589.7474747474748" type="curve" smooth="yes"/>
      <point x="150.94949494949498" y="1589.7474747474748"/>
      <point x="86.06060606060609" y="1529.1010101010102"/>
      <point x="86.06060606060609" y="1421.8080808080808" type="curve" smooth="yes"/>
      <point x="86.06060606060609" y="1314.5151515151515"/>
      <point x="150.94949494949498" y="1254.4545454545455"/>
    </contour>
  </outline>
</glyph>
<glyph name="k" format="2">
  <advance width="1263.439393939394"/>
  <unicode hex="006B"/>
  <anchor x="660.631313131313" y="0.0" name="bottom"/>
  <anchor x="296.19191919191917" y="1616.0" name="top"/>
  <outline>
    <contour>
      <point x="929.2979797979798" y="0.0" type="line"/>
      <point x="1294.4444444444443" y="0.0" type="line"/>
      <point x="860.0202020202019" y="610.9343434343434" type="line"/>
      <point x="860.0202020202019" y="527.0050505050505" type="line"/>
      <point x="1258.5555555555554" y="1094.141414141414" type="line"/>
      <point x="900.6262626262626" y="1094.141414141414" type="line"/>
      <point x="517.7828282828282" y="561.8989898989898" type="line"/>
    </contour>
    <contour>
      <point x="435.8080808080807" y="427.3737373737374" type="line"/>
      <point x="636.1717171717171" y="427.3737373737374" type="line"/>
      <point x="636.1717171717171" y="696.4242424242424" type="line"/>
      <point x="435.8080808080807" y="696.4242424242424" type="line"/>
    </contour>
    <contour>
      <point x="128.90909090909093" y="0.0" type="line"/>
      <point x="463.121212121212" y="0.0" type="line"/>
      <point x="463.121212121212" y="1616.0" type="line"/>
      <point x="128.90909090909093" y="1616.0" type="line"/>
    </contour>
  </outline>
</glyph>
<glyph name="l" format="2">
  <advance width="592.030303030303"/>
  <unicode hex="006C"/>
  <anchor x="295.1313131313131" y="0.0" name="bottom"/>
  <anchor x="568.3737373737373" y="1616.0" name="caronalt"/>
  <anchor x="724.8939393939393" y="794.0" name="periodcentered"/>
  <anchor x="296.19191919191917" y="714.0" name="slash"/>
  <anchor x="296.19191919191917" y="1616.0" name="top"/>
  <outline>
    <contour>
      <point x="128.90909090909093" y="0.0" type="line"/>
      <point x="463.121212121212" y="0.0" type="line"/>
      <point x="463.121212121212" y="1616.0" type="line"/>
      <point x="128.90909090909093" y="1616.0" type="line"/>
    </contour>
  </outline>
</glyph>
<glyph name="m" format="2">
  <advance width="1919.9191919191917"/>
  <unicode hex="006D"/>
  <anchor x="970.9292929292928" y="0.0" name="bottom"/>
  <anchor x="970.9292929292928" y="1200.0" name="top"/>
  <outline>
    <contour>
      <point x="128.90909090909093" y="0.0" type="line"/>
      <point x="463.121212121212" y="0.0" type="line"/>
      <point x="463.121212121212" y="733.9545454545455" type="line"/>
      <point x="510.42929292929284" y="796.4292929292931"/>
      <point x="584.0101010101009" y="828.1313131313133"/>
      <point x="658.6818181818181" y="828.1313131313133" type="curve" smooth="yes"/>
      <point x="750.9949494949494" y="828.1313131313133"/>
      <point x="806.4747474747475" y="782.1565656565657"/>
      <point x="806.4747474747475" y="640.6868686868687" type="curve" smooth="yes"/>
      <point x="806.4747474747475" y="0.0" type="line"/>
      <point x="1133.969696969697" y="0.0" type="line"/>
      <point x="1133.969696969697" y="666.2272727272727" type="line" smooth="yes"/>
      <point x="1133.969696969697" y="984.3333333333334"/>
      <point x="977.9545454545453" y="1111.5555555555557"/>
      <point x="764.5252525252524" y="1111.5555555555557" type="curve" smooth="yes"/>
      <point x="632.8080808080807" y="1111.5555555555557"/>
      <point x="521.2929292929292" y="1066.858585858586"/>
      <point x="440.8383838383837" y="984.7676767676768" type="curve"/>
      <point x="425.060606060606" y="984.7676767676768" type="line"/>
      <point x="403.50505050505046" y="1094.141414141414" type="line"/>
      <point x="128.90909090909093" y="1094.141414141414" type="line"/>
    </contour>
    <contour>
      <point x="1467.4949494949494" y="0.0" type="line"/>
      <point x="1800.6464646464644" y="0.0" type="line"/>
      <point x="1800.6464646464644" y="658.8030303030304" type="line" smooth="yes"/>
      <point x="1800.6464646464644" y="983.6262626262626"/>
      <point x="1638.7171717171716" y="1111.5555555555557"/>
      <point x="1410.5353535353534" y="1111.5555555555557" type="curve" smooth="yes"/>
      <point x="1282.5252525252524" y="1111.5555555555557"/>
      <point x="1147.5454545454545" y="1065.8838383838383"/>
      <point x="1038.1161616161614" y="945.8131313131313" type="curve"/>
      <point x="1108.3686868686868" y="724.2878787878789" type="line"/>
      <point x="1156.8232323232323" y="796.4292929292931"/>
      <point x="1232.1060606060605" y="828.1313131313133"/>
      <point x="1313.141414141414" y="828.1313131313133" type="curve" smooth="yes"/>
      <point x="1404.8333333333333" y="828.1313131313133"/>
      <point x="1467.4949494949494" y="782.1565656565657"/>
      <point x="1467.4949494949494" y="640.6868686868687" type="curve" smooth="yes"/>
    </contour>
  </outline>
</glyph>
<glyph name="p" format="2">
  <advance width="1322.0252525252524"/>
  <unicode hex="0070"/>
  <outline>
    <contour>
      <point x="128.90909090909093" y="-440.0" type="line"/>
      <point x="463.121212121212" y="-440.0" type="line"/>
      <point x="463.121212121212" y="-10.227272727272721" type="line"/>
      <point x="510.03030303030295" y="-15.42424242424242"/>
      <point x="567.0151515151515" y="-20.474747474747474"/>
      <point x="624.060606060606" y="-20.474747474747474" type="curve" smooth="yes"/>
      <point x="1022.621212121212" y="-20.474747474747474"/>
      <point x="1245.3888888888887" y="189.06565656565655"/>
      <point x="1245.3888888888887" y="568.8383838383838" type="curve" smooth="yes"/>
      <point x="1245.3888888888887" y="955.7070707070707"/>
      <point x="1025.080808080808" y="1111.5555555555557"/>
      <point x="762.2929292929292" y="1111.5555555555557" type="curve" smooth="yes"/>
      <point x="624.6464646464646" y="1111.5555555555557"/>
      <point x="516.1919191919192" y="1058.9444444444443"/>
      <point x="443.6666666666666" y="978.6616161616162" type="curve"/>
      <point x="428.32828282828274" y="978.6616161616162" type="line"/>
      <point x="408.8080808080807" y="1094.141414141414" type="line"/>
      <point x="128.90909090909093" y="1094.141414141414" type="line"/>
    </contour>
    <contour>
      <point x="612.7121212121211" y="231.83838383838375" type="curve" smooth="yes"/>
      <point x="559.0555555555554" y="231.83838383838375"/>
      <point x="503.7878787878787" y="238.44949494949486"/>
      <point x="463.121212121212" y="246.96464646464636" type="curve"/>
      <point x="463.121212121212" y="762.459595959596" type="line"/>
      <point x="517.0101010101009" y="818.9343434343435"/>
      <point x="594.6363636363635" y="842.2727272727274"/>
      <point x="668.6414141414141" y="842.2727272727274" type="curve" smooth="yes"/>
      <point x="812.7272727272727" y="842.2727272727274"/>
      <point x="911.7727272727273" y="770.1363636363637"/>
      <point x="911.7727272727273" y="544.5757575757576" type="curve" smooth="yes"/>
      <point x="911.7727272727273" y="326.50505050505046"/>
      <point x="813.6666666666666" y="231.83838383838375"/>
    </contour>
  </outline>
</glyph>
<glyph name="q" format="2">
  <advance width="1322.0252525252524"/>
  <unicode hex="0071"/>
  <outline>
    <contour>
      <point x="858.9040404040404" y="-440.0" type="line"/>
      <point x="1193.1161616161614" y="-440.0" type="line"/>
      <point x="1193.1161616161614" y="1048.5252525252524" type="line"/>
      <point x="1062.9444444444443" y="1089.1919191919192"/>
      <point x="887.5050505050505" y="1111.5555555555557"/>
      <point x="734.7525252525252" y="1111.5555555555557" type="curve" smooth="yes"/>
      <point x="296.3686868686869" y="1111.5555555555557"/>
      <point x="76.63636363636365" y="905.5505050505051"/>
      <point x="76.63636363636365" y="519.4141414141415" type="curve" smooth="yes"/>
      <point x="76.63636363636365" y="145.27272727272725"/>
      <point x="285.1919191919192" y="-20.474747474747474"/>
      <point x="532.9343434343434" y="-20.474747474747474" type="curve" smooth="yes"/>
      <point x="665.2070707070707" y="-20.474747474747474"/>
      <point x="770.040404040404" y="24.358585858585865"/>
      <point x="843.3585858585859" y="102.17676767676768" type="curve"/>
      <point x="858.9040404040404" y="102.17676767676768" type="line"/>
    </contour>
    <contour>
      <point x="654.6616161616162" y="249.16161616161605" type="curve" smooth="yes"/>
      <point x="508.2373737373737" y="249.16161616161605"/>
      <point x="410.2525252525252" y="321.2979797979797"/>
      <point x="410.2525252525252" y="544.7373737373737" type="curve" smooth="yes"/>
      <point x="410.2525252525252" y="765.6363636363637"/>
      <point x="513.3080808080807" y="860.3030303030304"/>
      <point x="704.7121212121212" y="860.3030303030304" type="curve" smooth="yes"/>
      <point x="764.7373737373737" y="860.3030303030304"/>
      <point x="818.2373737373737" y="852.9595959595961"/>
      <point x="858.9040404040404" y="843.2373737373738" type="curve"/>
      <point x="858.9040404040404" y="319.3282828282828" type="line"/>
      <point x="803.2474747474747" y="270.73232323232315"/>
      <point x="727.1313131313132" y="249.16161616161605"/>
    </contour>
  </outline>
</glyph>
<glyph name="r" format="2">
  <advance width="858.3686868686868"/>
  <unicode hex="0072"/>
  <anchor x="296.19191919191917" y="0.0" name="bottom"/>
  <anchor x="486.25252525252523" y="1200.0" name="top"/>
  <outline>
    <contour>
      <point x="128.90909090909093" y="0.0" type="line"/>
      <point x="463.121212121212" y="0.0" type="line"/>
      <point x="463.121212121212" y="708.4848484848485" type="line"/>
      <point x="522.8030303030303" y="777.6868686868688"/>
      <point x="634.7323232323232" y="811.5353535353536"/>
      <point x="729.8737373737373" y="811.5353535353536" type="curve" smooth="yes"/>
      <point x="766.6666666666666" y="811.5353535353536"/>
      <point x="809.3939393939393" y="809.6818181818182"/>
      <point x="845.989898989899" y="802.5606060606062" type="curve"/>
      <point x="845.989898989899" y="1101.0656565656566" type="line"/>
      <point x="818.2070707070707" y="1105.7979797979797"/>
      <point x="784.4898989898988" y="1109.2121212121212"/>
      <point x="749.4646464646464" y="1109.2121212121212" type="curve" smooth="yes"/>
      <point x="621.8787878787878" y="1109.2121212121212"/>
      <point x="509.66161616161605" y="1060.050505050505"/>
      <point x="443.6666666666666" y="957.9545454545455" type="curve"/>
      <point x="427.8888888888888" y="957.9545454545455" type="line"/>
      <point x="401.7373737373737" y="1094.141414141414" type="line"/>
      <point x="128.90909090909093" y="1094.141414141414" type="line"/>
    </contour>
  </outline>
</glyph>
<glyph name="v" format="2">
  <advance width="1252.641414141414"/>
  <unicode hex="0076"/>
  <anchor x="626.8333333333333" y="0.0" name="bottom"/>
  <anchor x="626.8333333333333" y="1200.0" name="top"/>
  <outline>
    <contour>
      <point x="420.09595959595964" y="0.0" type="line"/>
      <point x="831.4848484848484" y="0.0" type="line"/>
      <point x="1252.6060606060605" y="1094.141414141414" type="line"/>
      <point x="924.7929292929293" y="1094.141414141414" type="line"/>
      <point x="626.7575757575758" y="263.26262626262616" type="line"/>
      <point x="649.121212121212" y="263.26262626262616" type="line"/>
      <point x="351.0858585858585" y="1094.141414141414" type="line"/>
      <point x="0.03535353535355057" y="1094.141414141414" type="line"/>
    </contour>
  </outline>
</glyph>
<glyph name="x" format="2">
  <advance width="1203.3989898989898"/>
  <unicode hex="0078"/>
  <anchor x="602.2121212121211" y="0.0" name="bottom"/>
  <anchor x="602.5656565656566" y="1200.0" name="top"/>
  <outline>
    <contour>
      <point x="835.9848484848485" y="0.0" type="line"/>
      <point x="1206.0454545454545" y="0.0" type="line"/>
      <point x="795.3181818181818" y="555.5454545454545" type="line"/>
      <point x="606.10101010101" y="778.4494949494949" type="line"/>
      <point x="375.87878787878776" y="1094.141414141414" type="line"/>
      <point x="5.818181818181836" y="1094.141414141414" type="line"/>
      <point x="406.04545454545456" y="551.070707070707" type="line"/>
      <point x="599.1515151515151" y="329.0202020202021" type="line"/>
    </contour>
    <contour>
      <point x="-1.9747474747474563" y="0.0" type="line"/>
      <point x="358.39393939393926" y="0.0" type="line"/>
      <point x="599.1515151515151" y="329.0202020202021" type="line"/>
      <point x="795.3181818181818" y="555.5454545454545" type="line"/>
      <point x="1193.070707070707" y="1094.141414141414" type="line"/>
      <point x="833.5808080808081" y="1094.141414141414" type="line"/>
      <point x="606.10101010101" y="778.4494949494949" type="line"/>
      <point x="406.04545454545456" y="551.070707070707" type="line"/>
    </contour>
  </outline>
</glyph>
<glyph name="y" format="2">
  <advance width="1252.641414141414"/>
  <unicode hex="0079"/>
  <anchor x="1032.712121212121" y="0.0" name="bottom"/>
  <anchor x="626.8333333333333" y="1200.0" name="top"/>
  <outline>
    <contour>
      <point x="334.22727272727275" y="-440.0" type="line"/>
      <point x="661.4797979797979" y="-440.0" type="line"/>
      <point x="1252.6060606060605" y="1094.141414141414" type="line"/>
      <point x="924.7929292929293" y="1094.141414141414" type="line"/>
      <point x="626.7575757575758" y="263.26262626262616" type="line"/>
      <point x="505.43939393939394" y="0.0" type="line"/>
    </contour>
    <contour>
      <point x="420.09595959595964" y="0.0" type="line"/>
      <point x="736.8636363636363" y="0.0" type="line"/>
      <point x="351.0858585858585" y="1094.141414141414" type="line"/>
      <point x="0.03535353535355057" y="1094.141414141414" type="line"/>
    </contour>
  </outline>
</glyph>
<glyph name="z" format="2">
  <advance width="1101.8535353535353"/>
  <unicode hex="007A"/>
  <anchor x="559.8939393939394" y="0.0" name="bottom"/>
  <anchor x="559.8939393939394" y="1200.0" name="top"/>
  <outline>
    <contour>
      <point x="75.1060606060606" y="0.0" type="line"/>
      <point x="1043.4747474747473" y="0.0" type="line"/>
      <point x="1043.4747474747473" y="262.6868686868686" type="line"/>
      <point x="455.111111111111" y="262.6868686868686" type="line"/>
      <point x="455.111111111111" y="204.60101010101002" type="line"/>
      <point x="1032.5959595959594" y="880.909090909091" type="line"/>
      <point x="1032.5959595959594" y="1094.141414141414" type="line"/>
      <point x="85.98484848484848" y="1094.141414141414" type="line"/>
      <point x="85.98484848484848" y="831.4545454545455" type="line"/>
      <point x="652.5909090909091" y="831.4545454545455" type="line"/>
      <point x="652.5909090909091" y="889.5404040404042" type="line"/>
      <point x="75.1060606060606" y="213.23232323232315" type="line"/>
    </contour>
  </outline>
</glyph>
<glyph name="braceleft" format="2">
  <advance width="796.5050505050505"/>
  <unicode hex="007B"/>
  <outline>
    <contour>
      <point x="644.7373737373737" y="-460.0" type="curve" smooth="yes"/>
      <point x="714.5454545454545" y="-460.0"/>
      <point x="774.3333333333333" y="-454.5858585858586"/>
      <point x="825.1919191919192" y="-447.17171717171715" type="curve"/>
      <point x="825.1919191919192" y="-192.48484848484856" type="line"/>
      <point x="702.2525252525252" y="-192.48484848484856" type="line" smooth="yes"/>
      <point x="593.661616161616" y="-192.48484848484856"/>
      <point x="538.1717171717171" y="-151.10606060606068"/>
      <point x="538.1717171717171" y="-42.07575757575762" type="curve" smooth="yes"/>
      <point x="538.1717171717171" y="361.3737373737374" type="line" smooth="yes"/>
      <point x="538.1717171717171" y="542.7272727272727"/>
      <point x="444.090909090909" y="640.1818181818181"/>
      <point x="210.45454545454544" y="647.7979797979798" type="curve"/>
      <point x="210.45454545454544" y="610.3434343434343" type="line"/>
      <point x="444.090909090909" y="617.959595959596"/>
      <point x="538.1717171717171" y="715.4141414141415"/>
      <point x="538.1717171717171" y="896.7676767676768" type="curve" smooth="yes"/>
      <point x="538.1717171717171" y="1218.0757575757575" type="line" smooth="yes"/>
      <point x="538.1717171717171" y="1327.1060606060607"/>
      <point x="593.661616161616" y="1368.4848484848485"/>
      <point x="702.2525252525252" y="1368.4848484848485" type="curve" smooth="yes"/>
      <point x="825.1919191919192" y="1368.4848484848485" type="line"/>
      <point x="825.1919191919192" y="1623.171717171717" type="line"/>
      <point x="774.3333333333333" y="1630.5858585858587"/>
      <point x="714.5454545454545" y="1636.0"/>
      <point x="644.7373737373737" y="1636.0" type="curve" smooth="yes"/>
      <point x="352.7676767676768" y="1636.0"/>
      <point x="203.959595959596" y="1496.2777777777778"/>
      <point x="203.959595959596" y="1234.5555555555557" type="curve" smooth="yes"/>
      <point x="203.959595959596" y="896.6161616161615" type="line" smooth="yes"/>
      <point x="203.959595959596" y="808.7575757575758"/>
      <point x="153.27272727272728" y="760.4141414141413"/>
      <point x="68.34343434343435" y="760.4141414141413" type="curve" smooth="yes"/>
      <point x="12.136363636363654" y="760.4141414141413" type="line"/>
      <point x="12.136363636363654" y="497.72727272727275" type="line"/>
      <point x="68.34343434343435" y="497.72727272727275" type="line" smooth="yes"/>
      <point x="153.27272727272728" y="497.72727272727275"/>
      <point x="203.959595959596" y="449.38383838383845"/>
      <point x="203.959595959596" y="361.52525252525254" type="curve" smooth="yes"/>
      <point x="203.959595959596" y="-58.55555555555557" type="line" smooth="yes"/>
      <point x="203.959595959596" y="-320.27777777777777"/>
      <point x="352.7676767676768" y="-460.0"/>
    </contour>
  </outline>
</glyph>
<glyph name="bar" format="2">
  <advance width="590.6666666666666"/>
  <unicode hex="007C"/>
  <outline>
    <contour>
      <point x="143.959595959596" y="-440.0" type="line"/>
      <point x="446.7070707070706" y="-440.0" type="line"/>
      <point x="446.7070707070706" y="1616.0" type="line"/>
      <point x="143.959595959596" y="1616.0" type="line"/>
    </contour>
  </outline>
</glyph>
<glyph name="braceright" format="2">
  <advance width="796.5050505050505"/>
  <unicode hex="007D"/>
  <outline>
    <contour>
      <point x="151.76767676767673" y="-460.0" type="curve" smooth="yes"/>
      <point x="443.7373737373737" y="-460.0"/>
      <point x="592.5454545454545" y="-320.27777777777777"/>
      <point x="592.5454545454545" y="-58.55555555555557" type="curve" smooth="yes"/>
      <point x="592.5454545454545" y="361.52525252525254" type="line" smooth="yes"/>
      <point x="592.5454545454545" y="449.38383838383845"/>
      <point x="643.2323232323231" y="497.72727272727275"/>
      <point x="728.1616161616162" y="497.72727272727275" type="curve" smooth="yes"/>
      <point x="784.3686868686868" y="497.72727272727275" type="line"/>
      <point x="784.3686868686868" y="760.4141414141413" type="line"/>
      <point x="728.1616161616162" y="760.4141414141413" type="line" smooth="yes"/>
      <point x="643.2323232323231" y="760.4141414141413"/>
      <point x="592.5454545454545" y="808.7575757575758"/>
      <point x="592.5454545454545" y="896.6161616161615" type="curve" smooth="yes"/>
      <point x="592.5454545454545" y="1234.5555555555557" type="line" smooth="yes"/>
      <point x="592.5454545454545" y="1496.2777777777778"/>
      <point x="443.7373737373737" y="1636.0"/>
      <point x="151.76767676767673" y="1636.0" type="curve" smooth="yes"/>
      <point x="81.95959595959593" y="1636.0"/>
      <point x="22.171717171717155" y="1630.5858585858587"/>
      <point x="-28.686868686868692" y="1623.171717171717" type="curve"/>
      <point x="-28.686868686868692" y="1368.4848484848485" type="line"/>
      <point x="94.25252525252525" y="1368.4848484848485" type="line" smooth="yes"/>
      <point x="202.84343434343438" y="1368.4848484848485"/>
      <point x="258.33333333333337" y="1327.1060606060607"/>
      <point x="258.33333333333337" y="1218.0757575757575" type="curve" smooth="yes"/>
      <point x="258.33333333333337" y="896.7676767676768" type="line" smooth="yes"/>
      <point x="258.33333333333337" y="715.4141414141415"/>
      <point x="353.4747474747475" y="617.959595959596"/>
      <point x="586.0505050505051" y="610.3434343434343" type="curve"/>
      <point x="586.0505050505051" y="647.7979797979798" type="line"/>
      <point x="353.4747474747475" y="640.1818181818181"/>
      <point x="258.33333333333337" y="542.7272727272727"/>
      <point x="258.33333333333337" y="361.3737373737374" type="curve" smooth="yes"/>
      <point x="258.33333333333337" y="-42.07575757575762" type="line" smooth="yes"/>
      <point x="258.33333333333337" y="-151.10606060606068"/>
      <point x="202.84343434343438" y="-192.48484848484856"/>
      <point x="94.25252525252525" y="-192.48484848484856" type="curve" smooth="yes"/>
      <point x="-28.686868686868692" y="-192.48484848484856" type="line"/>
      <point x="-28.686868686868692" y="-447.17171717171715" type="line"/>
      <point x="22.171717171717155" y="-454.5858585858586"/>
      <point x="81.95959595959593" y="-460.0"/>
    </contour>
  </outline>
</glyph>
<glyph name="asciitilde" format="2">
  <advance width="1135.20202020202"/>
  <unicode hex="007E"/>
  <outline>
    <contour>
      <point x="767.1767676767677" y="575.6161616161617" type="curve" smooth="yes"/>
      <point x="870.2777777777777" y="575.6161616161617"/>
      <point x="945.9343434343434" y="606.2020202020202"/>
      <point x="1008.6717171717171" y="674.1010101010102" type="curve"/>
      <point x="1008.6717171717171" y="932.8686868686868" type="line"/>
      <point x="933.459595959596" y="856.6262626262626"/>
      <point x="862.0353535353535" y="823.4545454545454"/>
      <point x="769.4191919191919" y="823.4545454545454" type="curve" smooth="yes"/>
      <point x="643.5" y="823.4545454545454"/>
      <point x="525.4797979797979" y="940.8686868686868"/>
      <point x="368.02525252525254" y="940.8686868686868" type="curve" smooth="yes"/>
      <point x="264.92424242424244" y="940.8686868686868"/>
      <point x="189.2676767676768" y="910.2828282828282"/>
      <point x="126.53030303030306" y="842.3838383838383" type="curve"/>
      <point x="126.53030303030306" y="583.6161616161617" type="line"/>
      <point x="201.74242424242425" y="659.8585858585859"/>
      <point x="273.1666666666667" y="693.030303030303"/>
      <point x="365.7828282828283" y="693.030303030303" type="curve" smooth="yes"/>
      <point x="491.7020202020202" y="693.030303030303"/>
      <point x="609.7222222222222" y="575.6161616161617"/>
    </contour>
  </outline>
</glyph>
<glyph name="exclamdown" format="2">
  <advance width="630.9191919191919"/>
  <unicode hex="00A1"/>
  <outline>
    <contour>
      <point x="215.8030303030303" y="602.0808080808082" type="line"/>
      <point x="138.7525252525253" y="117.52525252525255" type="line"/>
      <point x="138.7525252525253" y="-380.0" type="line"/>
      <point x="492.1666666666666" y="-380.0" type="line"/>
      <point x="492.1666666666666" y="117.52525252525255" type="line"/>
      <point x="419.00505050505046" y="602.0808080808082" type="line"/>
    </contour>
    <contour>
      <point x="315.45959595959596" y="1111.2121212121212" type="curve" smooth="yes"/>
      <point x="182.94444444444446" y="1111.2121212121212"/>
      <point x="100.02525252525255" y="1035.949494949495"/>
      <point x="100.02525252525255" y="914.5151515151516" type="curve" smooth="yes"/>
      <point x="100.02525252525255" y="793.0808080808082"/>
      <point x="180.11616161616163" y="717.2323232323233"/>
      <point x="315.45959595959596" y="717.2323232323233" type="curve" smooth="yes"/>
      <point x="450.8030303030302" y="717.2323232323233"/>
      <point x="530.8939393939393" y="795.909090909091"/>
      <point x="530.8939393939393" y="914.5151515151516" type="curve" smooth="yes"/>
      <point x="530.8939393939393" y="1033.1212121212122"/>
      <point x="447.97474747474735" y="1111.2121212121212"/>
    </contour>
  </outline>
</glyph>
<glyph name="cent" format="2">
  <advance width="1050.1666666666665"/>
  <unicode hex="00A2"/>
  <outline>
    <contour>
      <point x="687.8989898989898" y="-20.828282828282827" type="curve" smooth="yes"/>
      <point x="798.9646464646464" y="-20.828282828282827"/>
      <point x="904.1919191919192" y="-4.328282828282827"/>
      <point x="987.560606060606" y="22.601010101010104" type="curve"/>
      <point x="987.560606060606" y="282.2171717171716" type="line"/>
      <point x="881.1464646464647" y="255.32323232323225"/>
      <point x="808.9343434343434" y="243.85858585858577"/>
      <point x="730.8131313131312" y="243.85858585858577" type="curve" smooth="yes"/>
      <point x="525.5404040404039" y="243.85858585858577"/>
      <point x="419.09090909090895" y="334.7525252525252"/>
      <point x="419.09090909090895" y="546.8282828282828" type="curve" smooth="yes"/>
      <point x="419.09090909090895" y="754.378787878788"/>
      <point x="520.9696969696969" y="846.868686868687"/>
      <point x="756.2070707070707" y="846.868686868687" type="curve" smooth="yes"/>
      <point x="835.8535353535353" y="846.868686868687"/>
      <point x="905.6717171717171" y="838.4040404040404"/>
      <point x="987.560606060606" y="823.3282828282829" type="curve"/>
      <point x="987.560606060606" y="1082.9444444444443" type="line"/>
      <point x="905.1969696969696" y="1102.1161616161617"/>
      <point x="817.7626262626262" y="1111.5555555555557"/>
      <point x="718.050505050505" y="1111.5555555555557" type="curve" smooth="yes"/>
      <point x="303.95959595959596" y="1111.5555555555557"/>
      <point x="76.63636363636365" y="921.1616161616162"/>
      <point x="76.63636363636365" y="544.5959595959596" type="curve" smooth="yes"/>
      <point x="76.63636363636365" y="170.06565656565655"/>
      <point x="292.04545454545456" y="-20.828282828282827"/>
    </contour>
    <contour>
      <point x="508.82828282828285" y="-240.0" type="line"/>
      <point x="796.2626262626262" y="-240.0" type="line"/>
      <point x="796.2626262626262" y="42.42424242424241" type="line"/>
      <point x="508.82828282828285" y="42.42424242424241" type="line"/>
    </contour>
    <contour>
      <point x="508.82828282828285" y="1051.7171717171718" type="line"/>
      <point x="796.2626262626262" y="1051.7171717171718" type="line"/>
      <point x="796.2626262626262" y="1334.141414141414" type="line"/>
      <point x="508.82828282828285" y="1334.141414141414" type="line"/>
    </contour>
  </outline>
</glyph>
<glyph name="sterling" format="2">
  <advance width="1436.6262626262626"/>
  <unicode hex="00A3"/>
  <outline>
    <contour>
      <point x="286.6969696969697" y="97.05050505050502" type="line"/>
      <point x="615.6060606060605" y="97.05050505050502" type="line"/>
      <point x="615.6060606060605" y="1002.9191919191919" type="line" smooth="yes"/>
      <point x="615.6060606060605" y="1168.2272727272727"/>
      <point x="706.7626262626262" y="1230.1313131313132"/>
      <point x="965.2828282828282" y="1230.1313131313132" type="curve" smooth="yes"/>
      <point x="1079.9898989898988" y="1230.1313131313132"/>
      <point x="1214.8232323232323" y="1212.7171717171718"/>
      <point x="1315.5353535353534" y="1183.9343434343436" type="curve"/>
      <point x="1315.5353535353534" y="1456.6313131313132" type="line"/>
      <point x="1214.449494949495" y="1482.560606060606"/>
      <point x="1083.6363636363635" y="1499.4141414141413"/>
      <point x="946.8636363636363" y="1499.4141414141413" type="curve" smooth="yes"/>
      <point x="504.2929292929293" y="1499.4141414141413"/>
      <point x="286.6969696969697" y="1325.0"/>
      <point x="286.6969696969697" y="987.3636363636364" type="curve" smooth="yes"/>
    </contour>
    <contour>
      <point x="80.0" y="0.0" type="line"/>
      <point x="1365.6666666666665" y="0.0" type="line"/>
      <point x="1365.6666666666665" y="263.39393939393926" type="line"/>
      <point x="80.0" y="263.39393939393926" type="line"/>
    </contour>
    <contour>
      <point x="80.0" y="629.2626262626263" type="line"/>
      <point x="1105.7878787878788" y="629.2626262626263" type="line"/>
      <point x="1105.7878787878788" y="870.7373737373737" type="line"/>
      <point x="80.0" y="870.7373737373737" type="line"/>
    </contour>
  </outline>
</glyph>
<glyph name="currency" format="2">
  <advance width="1312.6262626262626"/>
  <unicode hex="00A4"/>
  <outline>
    <contour>
      <point x="432.3131313131313" y="841.010101010101" type="line"/>
      <point x="555.3030303030303" y="963.4141414141415" type="line"/>
      <point x="383.23232323232315" y="1166.3131313131312" type="line"/>
      <point x="263.89898989898984" y="1288.232323232323" type="line"/>
      <point x="107.49494949494951" y="1131.828282828283" type="line"/>
      <point x="230.0" y="1012.4949494949495" type="line"/>
    </contour>
    <contour>
      <point x="880.3131313131313" y="841.010101010101" type="line"/>
      <point x="1082.6262626262626" y="1012.4949494949495" type="line"/>
      <point x="1205.1313131313132" y="1131.828282828283" type="line"/>
      <point x="1048.7272727272727" y="1288.232323232323" type="line"/>
      <point x="929.3939393939394" y="1166.3131313131312" type="line"/>
      <point x="757.3232323232323" y="963.4141414141415" type="line"/>
    </contour>
    <contour>
      <point x="1048.141414141414" y="191.76767676767682" type="line"/>
      <point x="1204.5454545454545" y="348.17171717171715" type="line"/>
      <point x="1082.6262626262626" y="467.5050505050505" type="line"/>
      <point x="883.2424242424242" y="636.060606060606" type="line"/>
      <point x="760.2525252525253" y="512.4848484848485" type="line"/>
      <point x="928.8080808080808" y="313.6868686868687" type="line"/>
    </contour>
    <contour>
      <point x="264.48484848484844" y="191.76767676767682" type="line"/>
      <point x="383.81818181818176" y="313.6868686868687" type="line"/>
      <point x="552.3737373737373" y="512.4848484848485" type="line"/>
      <point x="429.38383838383834" y="636.060606060606" type="line"/>
      <point x="230.0" y="467.5050505050505" type="line"/>
      <point x="108.08080808080808" y="348.17171717171715" type="line"/>
    </contour>
    <contour>
      <point x="656.3131313131313" y="371.6717171717172" type="curve" smooth="yes"/>
      <point x="866.6464646464646" y="371.6717171717172"/>
      <point x="1023.6111111111111" y="519.0808080808081"/>
      <point x="1023.6111111111111" y="740.0" type="curve" smooth="yes"/>
      <point x="1023.6111111111111" y="958.9191919191919"/>
      <point x="866.6464646464646" y="1106.328282828283"/>
      <point x="656.3131313131313" y="1106.328282828283" type="curve" smooth="yes"/>
      <point x="445.3939393939394" y="1106.328282828283"/>
      <point x="289.0151515151515" y="958.9191919191919"/>
      <point x="289.0151515151515" y="740.0" type="curve" smooth="yes"/>
      <point x="289.0151515151515" y="519.0808080808081"/>
      <point x="445.3939393939394" y="371.6717171717172"/>
    </contour>
    <contour>
      <point x="656.3131313131313" y="548.2171717171717" type="curve" smooth="yes"/>
      <point x="553.2727272727273" y="548.2171717171717"/>
      <point x="478.28787878787875" y="619.7878787878788"/>
      <point x="478.28787878787875" y="740.0" type="curve" smooth="yes"/>
      <point x="478.28787878787875" y="860.2121212121212"/>
      <point x="553.2727272727273" y="931.7828282828283"/>
      <point x="658.3131313131313" y="931.7828282828283" type="curve" smooth="yes"/>
      <point x="766.2828282828283" y="931.7828282828283"/>
      <point x="834.3383838383838" y="851.040404040404"/>
      <point x="834.3383838383838" y="740.0" type="curve" smooth="yes"/>
      <point x="834.3383838383838" y="619.2020202020202"/>
      <point x="759.3535353535353" y="548.2171717171717"/>
    </contour>
  </outline>
</glyph>
<glyph name="yen" format="2">
  <advance width="1379.6666666666665"/>
  <unicode hex="00A5"/>
  <outline>
    <contour>
      <point x="521.3131313131313" y="0.0" type="line"/>
      <point x="862.9494949494948" y="0.0" type="line"/>
      <point x="862.9494949494948" y="754.5808080808081" type="line"/>
      <point x="794.4545454545454" y="519.4242424242425" type="line"/>
      <point x="1410.2373737373737" y="1480.0" type="line"/>
      <point x="1071.5707070707072" y="1480.0" type="line"/>
      <point x="649.6767676767677" y="826.5353535353535" type="line"/>
      <point x="748.1919191919192" y="826.5353535353535" type="line"/>
      <point x="321.49494949494937" y="1480.0" type="line"/>
      <point x="-42.23737373737371" y="1480.0" type="line"/>
      <point x="589.8080808080808" y="519.4242424242425" type="line"/>
      <point x="521.3131313131313" y="758.8232323232323" type="line"/>
    </contour>
    <contour>
      <point x="198.3838383838384" y="256.01010101010104" type="line"/>
      <point x="1185.8787878787878" y="256.01010101010104" type="line"/>
      <point x="1185.8787878787878" y="448.69696969696963" type="line"/>
      <point x="198.3838383838384" y="448.69696969696963" type="line"/>
    </contour>
    <contour>
      <point x="198.3838383838384" y="599.3030303030304" type="line"/>
      <point x="1185.8787878787878" y="599.3030303030304" type="line"/>
      <point x="1185.8787878787878" y="791.989898989899" type="line"/>
      <point x="198.3838383838384" y="791.989898989899" type="line"/>
    </contour>
  </outline>
</glyph>
<glyph name="brokenbar" format="2">
  <advance width="590.6666666666666"/>
  <unicode hex="00A6"/>
  <outline>
    <contour>
      <point x="143.959595959596" y="836.0" type="line"/>
      <point x="446.7070707070706" y="836.0" type="line"/>
      <point x="446.7070707070706" y="1616.0" type="line"/>
      <point x="143.959595959596" y="1616.0" type="line"/>
    </contour>
    <contour>
      <point x="143.959595959596" y="-440.0" type="line"/>
      <point x="446.7070707070706" y="-440.0" type="line"/>
      <point x="446.7070707070706" y="340.0" type="line"/>
      <point x="143.959595959596" y="340.0" type="line"/>
    </contour>
  </outline>
</glyph>
<glyph name="section" format="2">
  <advance width="1198.8686868686868"/>
  <unicode hex="00A7"/>
  <outline>
    <contour>
      <point x="510.67676767676767" y="-20.828282828282827" type="curve" smooth="yes"/>
      <point x="870.8181818181818" y="-20.828282828282827"/>
      <point x="1044.6565656565656" y="113.55555555555554"/>
      <point x="1044.6565656565656" y="328.020202020202" type="curve" smooth="yes"/>
      <point x="1044.6565656565656" y="490.8080808080808"/>
      <point x="937.3131313131313" y="576.040404040404"/>
      <point x="745.4292929292928" y="612.030303030303" type="curve" smooth="yes"/>
      <point x="504.24242424242425" y="655.1717171717171" type="line" smooth="yes"/>
      <point x="407.6464646464646" y="673.530303030303"/>
      <point x="377.7727272727272" y="715.8232323232323"/>
      <point x="377.7727272727272" y="772.5353535353536" type="curve" smooth="yes"/>
      <point x="377.7727272727272" y="813.9494949494949"/>
      <point x="396.570707070707" y="853.909090909091"/>
      <point x="445.17676767676767" y="899.2979797979798" type="curve"/>
      <point x="274.5353535353535" y="1013.5656565656566" type="line"/>
      <point x="166.45959595959596" y="954.0555555555555"/>
      <point x="102.04040404040407" y="868.39898989899"/>
      <point x="102.04040404040407" y="752.3585858585859" type="curve" smooth="yes"/>
      <point x="102.04040404040407" y="574.9545454545455"/>
      <point x="214.24747474747477" y="479.80808080808083"/>
      <point x="397.2171717171717" y="445.8787878787879" type="curve" smooth="yes"/>
      <point x="637.3434343434343" y="403.44444444444446" type="line" smooth="yes"/>
      <point x="714.0808080808081" y="389.32828282828285"/>
      <point x="742.6515151515152" y="361.91414141414145"/>
      <point x="742.6515151515152" y="307.93939393939394" type="curve" smooth="yes"/>
      <point x="742.6515151515152" y="244.83838383838378"/>
      <point x="691.7575757575758" y="202.1414141414141"/>
      <point x="507.0454545454545" y="202.1414141414141" type="curve" smooth="yes"/>
      <point x="388.3939393939394" y="202.1414141414141"/>
      <point x="269.5151515151515" y="215.11616161616155"/>
      <point x="150.62626262626264" y="246.28787878787873" type="curve"/>
      <point x="150.62626262626264" y="22.732323232323232" type="line"/>
      <point x="261.9494949494949" y="-6.5606060606060606"/>
      <point x="396.16666666666663" y="-20.828282828282827"/>
    </contour>
    <contour>
      <point x="912.1818181818181" y="458.6818181818182" type="line"/>
      <point x="1025.8383838383838" y="519.459595959596"/>
      <point x="1096.8282828282827" y="606.9191919191919"/>
      <point x="1096.8282828282827" y="729.7878787878788" type="curve" smooth="yes"/>
      <point x="1096.8282828282827" y="909.1919191919192"/>
      <point x="989.4848484848485" y="999.2525252525252"/>
      <point x="801.4898989898988" y="1032.4141414141413" type="curve" smooth="yes"/>
      <point x="550.7575757575758" y="1073.4343434343434" type="line" smooth="yes"/>
      <point x="474.3131313131312" y="1087.550505050505"/>
      <point x="445.61111111111103" y="1117.9444444444443"/>
      <point x="445.61111111111103" y="1165.8181818181818" type="curve" smooth="yes"/>
      <point x="445.61111111111103" y="1222.1363636363637"/>
      <point x="498.19696969696963" y="1274.4444444444446"/>
      <point x="732.4797979797979" y="1274.4444444444446" type="curve" smooth="yes"/>
      <point x="824.2222222222222" y="1274.4444444444446"/>
      <point x="910.9848484848484" y="1265.4444444444446"/>
      <point x="1003.5353535353534" y="1244.1010101010102" type="curve"/>
      <point x="1003.5353535353534" y="1467.6565656565656" type="line"/>
      <point x="917.060606060606" y="1486.4141414141413"/>
      <point x="809.1919191919192" y="1497.4141414141413"/>
      <point x="707.3787878787878" y="1497.4141414141413" type="curve" smooth="yes"/>
      <point x="304.14141414141415" y="1497.4141414141413"/>
      <point x="143.60606060606062" y="1356.2727272727273"/>
      <point x="143.60606060606062" y="1147.0555555555557" type="curve" smooth="yes"/>
      <point x="143.60606060606062" y="993.3383838383838"/>
      <point x="254.3989898989899" y="901.2525252525253"/>
      <point x="453.27777777777777" y="864.8484848484849" type="curve" smooth="yes"/>
      <point x="693.4040404040404" y="821.7070707070708" type="line" smooth="yes"/>
      <point x="790.2929292929293" y="803.3484848484849"/>
      <point x="821.0959595959596" y="764.0353535353536"/>
      <point x="821.0959595959596" y="702.989898989899" type="curve" smooth="yes"/>
      <point x="821.0959595959596" y="652.8939393939394"/>
      <point x="795.9343434343434" y="617.2020202020202"/>
      <point x="731.9444444444445" y="570.7171717171717" type="curve"/>
    </contour>
  </outline>
</glyph>
<glyph name="dieresis" format="2">
  <advance width="1170.7070707070707"/>
  <unicode hex="00A8"/>
  <anchor x="585.3535353535353" y="1200.0" name="_top"/>
  <anchor x="585.3535353535353" y="1598.4242424242425" name="top"/>
  <outline>
    <contour>
      <point x="844.2424242424241" y="1255.7070707070707" type="curve" smooth="yes"/>
      <point x="962.6161616161615" y="1255.7070707070707"/>
      <point x="1022.5555555555554" y="1317.1818181818182"/>
      <point x="1022.5555555555554" y="1419.171717171717" type="curve" smooth="yes"/>
      <point x="1022.5555555555554" y="1521.1616161616162"/>
      <point x="962.6161616161615" y="1583.2222222222222"/>
      <point x="844.2424242424241" y="1583.2222222222222" type="curve" smooth="yes"/>
      <point x="725.8686868686868" y="1583.2222222222222"/>
      <point x="665.929292929293" y="1521.1616161616162"/>
      <point x="665.929292929293" y="1419.171717171717" type="curve" smooth="yes"/>
      <point x="665.929292929293" y="1317.1818181818182"/>
      <point x="725.8686868686868" y="1255.7070707070707"/>
    </contour>
    <contour>
      <point x="326.4646464646465" y="1255.7070707070707" type="curve" smooth="yes"/>
      <point x="444.83838383838383" y="1255.7070707070707"/>
      <point x="504.7777777777777" y="1317.1818181818182"/>
      <point x="504.7777777777777" y="1419.171717171717" type="curve" smooth="yes"/>
      <point x="504.7777777777777" y="1521.1616161616162"/>
      <point x="444.83838383838383" y="1583.2222222222222"/>
      <point x="326.4646464646465" y="1583.2222222222222" type="curve" smooth="yes"/>
      <point x="208.09090909090912" y="1583.2222222222222"/>
      <point x="148.15151515151518" y="1521.1616161616162"/>
      <point x="148.15151515151518" y="1419.171717171717" type="curve" smooth="yes"/>
      <point x="148.15151515151518" y="1317.1818181818182"/>
      <point x="208.09090909090912" y="1255.7070707070707"/>
    </contour>
  </outline>
</glyph>
<glyph name="copyright" format="2">
  <advance width="1679.6565656565656"/>
  <unicode hex="00A9"/>
  <outline>
    <contour>
      <point x="839.8282828282828" y="-22.0" type="curve" smooth="yes"/>
      <point x="1290.0707070707072" y="-22.0"/>
      <point x="1588.0707070707072" y="282.0"/>
      <point x="1588.0707070707072" y="740.0" type="curve" smooth="yes"/>
      <point x="1588.0707070707072" y="1198.0"/>
      <point x="1290.0707070707072" y="1502.0"/>
      <point x="839.8282828282828" y="1502.0" type="curve" smooth="yes"/>
      <point x="389.5858585858586" y="1502.0"/>
      <point x="91.5858585858586" y="1198.0"/>
      <point x="91.5858585858586" y="740.0" type="curve" smooth="yes"/>
      <point x="91.5858585858586" y="282.0"/>
      <point x="389.5858585858586" y="-22.0"/>
    </contour>
    <contour>
      <point x="899.2828282828283" y="324.0" type="curve" smooth="yes"/>
      <point x="980.1111111111111" y="324.0"/>
      <point x="1052.111111111111" y="336.0"/>
      <point x="1107.3838383838383" y="357.5151515151515" type="curve"/>
      <point x="1107.3838383838383" y="553.6161616161615" type="line"/>
      <point x="1028.2121212121212" y="531.5151515151515"/>
      <point x="977.4242424242424" y="524.3434343434343"/>
      <point x="920.8383838383838" y="524.3434343434343" type="curve" smooth="yes"/>
      <point x="784.2323232323232" y="524.3434343434343"/>
      <point x="704.6565656565656" y="594.7474747474747"/>
      <point x="704.6565656565656" y="733.7575757575758" type="curve" smooth="yes"/>
      <point x="704.6565656565656" y="872.4242424242425"/>
      <point x="779.989898989899" y="943.6565656565657"/>
      <point x="935.7676767676768" y="943.6565656565657" type="curve" smooth="yes"/>
      <point x="995.8686868686868" y="943.6565656565657"/>
      <point x="1046.79797979798" y="936.4848484848485"/>
      <point x="1107.3838383838383" y="924.1414141414142" type="curve"/>
      <point x="1107.3838383838383" y="1120.2424242424242" type="line"/>
      <point x="1049.0404040404042" y="1136.0"/>
      <point x="987.6262626262626" y="1144.0"/>
      <point x="915.3838383838383" y="1144.0" type="curve" smooth="yes"/>
      <point x="640.070707070707" y="1144.0"/>
      <point x="471.44444444444446" y="993.1717171717172"/>
      <point x="471.44444444444446" y="732.5858585858585" type="curve" smooth="yes"/>
      <point x="471.44444444444446" y="470.4848484848485"/>
      <point x="639.5858585858587" y="324.0"/>
    </contour>
    <contour>
      <point x="839.8282828282828" y="147.81818181818176" type="curve" smooth="yes"/>
      <point x="481.9090909090909" y="147.81818181818176"/>
      <point x="268.47474747474746" y="377.1515151515151"/>
      <point x="268.47474747474746" y="740.0" type="curve" smooth="yes"/>
      <point x="268.47474747474746" y="1102.848484848485"/>
      <point x="481.9090909090909" y="1332.1818181818182"/>
      <point x="839.8282828282828" y="1332.1818181818182" type="curve" smooth="yes"/>
      <point x="1197.7474747474748" y="1332.1818181818182"/>
      <point x="1411.1818181818182" y="1102.848484848485"/>
      <point x="1411.1818181818182" y="740.0" type="curve" smooth="yes"/>
      <point x="1411.1818181818182" y="377.1515151515151"/>
      <point x="1197.7474747474748" y="147.81818181818176"/>
    </contour>
  </outline>
</glyph>
<glyph name="ordfeminine" format="2">
  <advance width="1004.2020202020201"/>
  <unicode hex="00AA"/>
  <outline>
    <contour>
      <point x="365.04040404040404" y="593.1717171717172" type="curve" smooth="yes"/>
      <point x="467.9848484848485" y="593.1717171717172"/>
      <point x="564.5757575757576" y="626.3838383838383"/>
      <point x="622.6767676767677" y="695.2626262626263" type="curve"/>
      <point x="636.8080808080808" y="695.2626262626263" type="line"/>
      <point x="659.070707070707" y="610.0" type="line"/>
      <point x="917.6464646464646" y="610.0" type="line"/>
      <point x="917.6464646464646" y="1102.6313131313132" type="line" smooth="yes"/>
      <point x="917.6464646464646" y="1398.6666666666667"/>
      <point x="774.6060606060605" y="1499.0707070707072"/>
      <point x="447.56060606060606" y="1499.0707070707072" type="curve" smooth="yes"/>
      <point x="347.6868686868687" y="1499.0707070707072"/>
      <point x="227.2070707070707" y="1486.4848484848485"/>
      <point x="124.75252525252526" y="1458.6919191919192" type="curve"/>
      <point x="124.75252525252526" y="1240.9040404040404" type="line"/>
      <point x="210.62121212121212" y="1265.1262626262628"/>
      <point x="310.04545454545456" y="1277.9797979797981"/>
      <point x="391.32323232323233" y="1277.9797979797981" type="curve" smooth="yes"/>
      <point x="560.9949494949495" y="1277.9797979797981"/>
      <point x="608.6464646464647" y="1240.5858585858587"/>
      <point x="608.6464646464647" y="1146.7626262626263" type="curve" smooth="yes"/>
      <point x="608.6464646464647" y="834.2525252525252" type="line"/>
      <point x="568.7171717171717" y="804.5"/>
      <point x="518.3434343434343" y="791.2828282828282"/>
      <point x="474.1262626262626" y="791.2828282828282" type="curve" smooth="yes"/>
      <point x="390.2626262626262" y="791.2828282828282"/>
      <point x="351.31313131313124" y="825.9393939393939"/>
      <point x="351.31313131313124" y="884.1161616161615" type="curve" smooth="yes"/>
      <point x="351.31313131313124" y="940.4747474747475"/>
      <point x="388.22727272727263" y="972.8131313131313"/>
      <point x="486.0" y="980.0858585858587" type="curve" smooth="yes"/>
      <point x="695.7626262626263" y="993.2878787878789" type="line"/>
      <point x="662.030303030303" y="1137.6969696969697" type="line"/>
      <point x="437.8333333333333" y="1123.080808080808" type="line" smooth="yes"/>
      <point x="161.15656565656568" y="1108.479797979798"/>
      <point x="45.73737373737376" y="1019.2878787878788"/>
      <point x="45.73737373737376" y="850.1262626262626" type="curve" smooth="yes"/>
      <point x="45.73737373737376" y="700.1161616161617"/>
      <point x="150.53030303030306" y="593.1717171717172"/>
    </contour>
  </outline>
</glyph>
<glyph name="guillemetleft" format="2">
  <advance width="1318.853535353535"/>
  <unicode hex="00AB"/>
  <outline>
    <contour>
      <point x="366.89898989898995" y="132.92929292929293" type="line"/>
      <point x="711.1717171717171" y="132.92929292929293" type="line"/>
      <point x="433.1919191919191" y="567.070707070707" type="line"/>
      <point x="711.1717171717171" y="1001.2121212121212" type="line"/>
      <point x="366.89898989898995" y="1001.2121212121212" type="line"/>
      <point x="88.91919191919195" y="567.070707070707" type="line"/>
    </contour>
    <contour>
      <point x="925.6616161616162" y="132.92929292929293" type="line"/>
      <point x="1269.9343434343432" y="132.92929292929293" type="line"/>
      <point x="991.9545454545453" y="567.070707070707" type="line"/>
      <point x="1269.9343434343432" y="1001.2121212121212" type="line"/>
      <point x="925.6616161616162" y="1001.2121212121212" type="line"/>
      <point x="647.681818181818" y="567.070707070707" type="line"/>
    </contour>
  </outline>
</glyph>
<glyph name="logicalnot" format="2">
  <advance width="1378.878787878788"/>
  <unicode hex="00AC"/>
  <outline>
    <contour>
      <point x="995.7474747474748" y="201.1919191919192" type="line"/>
      <point x="1259.6060606060605" y="201.1919191919192" type="line"/>
      <point x="1259.6060606060605" y="886.0404040404039" type="line"/>
      <point x="126.53030303030306" y="886.0404040404039" type="line"/>
      <point x="126.53030303030306" y="633.9595959595961" type="line"/>
      <point x="995.7474747474748" y="633.9595959595961" type="line"/>
    </contour>
  </outline>
</glyph>
<glyph name="softhyphen" format="2">
  <advance width="996.1717171717171"/>
  <unicode hex="00AD"/>
  <outline>
    <contour>
      <point x="126.53030303030306" y="431.4848484848485" type="line"/>
      <point x="869.6414141414141" y="431.4848484848485" type="line"/>
      <point x="869.6414141414141" y="702.6565656565656" type="line"/>
      <point x="126.53030303030306" y="702.6565656565656" type="line"/>
    </contour>
  </outline>
</glyph>
<glyph name="registered" format="2">
  <advance width="1457.818181818182"/>
  <unicode hex="00AE"/>
  <outline>
    <contour>
      <point x="728.909090909091" y="268.0" type="curve" smooth="yes"/>
      <point x="1090.909090909091" y="268.0"/>
      <point x="1338.909090909091" y="518.0"/>
      <point x="1338.909090909091" y="882.0" type="curve" smooth="yes"/>
      <point x="1338.909090909091" y="1246.0"/>
      <point x="1090.909090909091" y="1498.0"/>
      <point x="728.909090909091" y="1498.0" type="curve" smooth="yes"/>
      <point x="366.90909090909093" y="1498.0"/>
      <point x="118.90909090909093" y="1246.0"/>
      <point x="118.90909090909093" y="882.0" type="curve" smooth="yes"/>
      <point x="118.90909090909093" y="518.0"/>
      <point x="366.90909090909093" y="268.0"/>
    </contour>
    <contour>
      <point x="856.0" y="600.0" type="line"/>
      <point x="1006.9494949494949" y="600.0" type="line"/>
      <point x="847.9191919191919" y="831.7171717171717" type="line"/>
      <point x="714.3838383838385" y="805.7171717171717" type="line"/>
    </contour>
    <contour>
      <point x="728.909090909091" y="397.6363636363636" type="curve" smooth="yes"/>
      <point x="443.3333333333333" y="397.6363636363636"/>
      <point x="257.6161616161616" y="588.1818181818181"/>
      <point x="257.6161616161616" y="882.0" type="curve" smooth="yes"/>
      <point x="257.6161616161616" y="1177.2323232323233"/>
      <point x="443.3333333333333" y="1368.3636363636365"/>
      <point x="728.909090909091" y="1368.3636363636365" type="curve" smooth="yes"/>
      <point x="1014.4848484848485" y="1368.3636363636365"/>
      <point x="1200.2020202020203" y="1177.2323232323233"/>
      <point x="1200.2020202020203" y="882.0" type="curve" smooth="yes"/>
      <point x="1200.2020202020203" y="588.1818181818181"/>
      <point x="1014.4848484848485" y="397.6363636363636"/>
    </contour>
    <contour>
      <point x="511.01010101010104" y="600.0" type="line"/>
      <point x="647.7171717171717" y="600.0" type="line"/>
      <point x="651.959595959596" y="797.7171717171717" type="line"/>
      <point x="719.1515151515151" y="797.7171717171717" type="line" smooth="yes"/>
      <point x="893.8787878787879" y="797.7171717171717"/>
      <point x="977.2929292929293" y="862.3030303030304"/>
      <point x="977.2929292929293" y="993.8585858585859" type="curve" smooth="yes"/>
      <point x="977.2929292929293" y="1125.4141414141413"/>
      <point x="891.8787878787879" y="1192.0"/>
      <point x="719.1515151515151" y="1192.0" type="curve" smooth="yes"/>
      <point x="511.01010101010104" y="1192.0" type="line"/>
    </contour>
    <contour>
      <point x="651.959595959596" y="909.2121212121212" type="line"/>
      <point x="651.959595959596" y="1080.5050505050506" type="line"/>
      <point x="741.0505050505051" y="1080.5050505050506" type="line" smooth="yes"/>
      <point x="807.7979797979798" y="1080.5050505050506"/>
      <point x="843.4141414141415" y="1051.8181818181818"/>
      <point x="843.4141414141415" y="993.8585858585859" type="curve" smooth="yes"/>
      <point x="843.4141414141415" y="935.8989898989898"/>
      <point x="809.7979797979798" y="909.2121212121212"/>
      <point x="741.0505050505051" y="909.2121212121212" type="curve" smooth="yes"/>
    </contour>
  </outline>
</glyph>
<glyph name="degree" format="2">
  <advance width="1002.3232323232323"/>
  <unicode hex="00B0"/>
  <outline>
    <contour>
      <point x="501.16161616161617" y="744.2222222222223" type="curve" smooth="yes"/>
      <point x="722.2020202020202" y="744.2222222222223"/>
      <point x="883.4141414141413" y="903.1919191919192"/>
      <point x="883.4141414141413" y="1122.2323232323233" type="curve" smooth="yes"/>
      <point x="883.4141414141413" y="1341.2727272727273"/>
      <point x="722.2020202020202" y="1498.828282828283"/>
      <point x="501.16161616161617" y="1498.828282828283" type="curve" smooth="yes"/>
      <point x="280.1212121212121" y="1498.828282828283"/>
      <point x="118.90909090909093" y="1341.2727272727273"/>
      <point x="118.90909090909093" y="1122.2323232323233" type="curve" smooth="yes"/>
      <point x="118.90909090909093" y="903.1919191919192"/>
      <point x="280.1212121212121" y="744.2222222222223"/>
    </contour>
    <contour>
      <point x="501.16161616161617" y="934.4343434343434" type="curve" smooth="yes"/>
      <point x="397.8131313131313" y="934.4343434343434"/>
      <point x="321.16666666666663" y="1006.4949494949495"/>
      <point x="321.16666666666663" y="1122.2323232323233" type="curve" smooth="yes"/>
      <point x="321.16666666666663" y="1239.030303030303"/>
      <point x="399.2272727272727" y="1308.6161616161617"/>
      <point x="501.16161616161617" y="1308.6161616161617" type="curve" smooth="yes"/>
      <point x="603.0959595959596" y="1308.6161616161617"/>
      <point x="681.1565656565657" y="1239.030303030303"/>
      <point x="681.1565656565657" y="1122.2323232323233" type="curve" smooth="yes"/>
      <point x="681.1565656565657" y="1006.4949494949495"/>
      <point x="604.510101010101" y="934.4343434343434"/>
    </contour>
  </outline>
</glyph>
<glyph name="plusminus" format="2">
  <advance width="1135.20202020202"/>
  <unicode hex="00B1"/>
  <outline>
    <contour>
      <point x="435.6717171717172" y="378.2222222222222" type="line"/>
      <point x="699.530303030303" y="378.2222222222222" type="line"/>
      <point x="699.530303030303" y="670.2424242424242" type="line"/>
      <point x="1008.6717171717171" y="670.2424242424242" type="line"/>
      <point x="1008.6717171717171" y="922.3232323232322" type="line"/>
      <point x="699.530303030303" y="922.3232323232322" type="line"/>
      <point x="699.530303030303" y="1214.3434343434342" type="line"/>
      <point x="435.6717171717172" y="1214.3434343434342" type="line"/>
      <point x="435.6717171717172" y="922.3232323232322" type="line"/>
      <point x="126.53030303030306" y="922.3232323232322" type="line"/>
      <point x="126.53030303030306" y="670.2424242424242" type="line"/>
      <point x="435.6717171717172" y="670.2424242424242" type="line"/>
    </contour>
    <contour>
      <point x="126.53030303030306" y="0.35353535353535337" type="line"/>
      <point x="1008.6717171717171" y="0.35353535353535337" type="line"/>
      <point x="1008.6717171717171" y="252.43434343434336" type="line"/>
      <point x="126.53030303030306" y="252.43434343434336" type="line"/>
    </contour>
  </outline>
</glyph>
<glyph name="twosuperior" format="2">
  <advance width="894.1565656565656"/>
  <unicode hex="00B2"/>
  <outline>
    <contour>
      <point x="78.73737373737374" y="-136.0" type="line"/>
      <point x="820.2878787878788" y="-136.0" type="line"/>
      <point x="820.2878787878788" y="72.71717171717165" type="line"/>
      <point x="379.86363636363626" y="72.71717171717165" type="line"/>
      <point x="375.4898989898989" y="6.31818181818177" type="line"/>
      <point x="611.8383838383838" y="260.92424242424244" type="line" smooth="yes"/>
      <point x="725.3686868686868" y="383.69191919191917"/>
      <point x="772.10101010101" y="476.45959595959596"/>
      <point x="772.2474747474747" y="581.8282828282828" type="curve" smooth="yes"/>
      <point x="772.3939393939394" y="784.040404040404"/>
      <point x="633.3535353535353" y="877.4141414141415"/>
      <point x="352.3333333333333" y="877.4141414141415" type="curve" smooth="yes"/>
      <point x="248.99494949494948" y="877.4141414141415"/>
      <point x="141.63636363636363" y="863.560606060606"/>
      <point x="66.3838383838384" y="838.7676767676768" type="curve"/>
      <point x="66.3838383838384" y="631.939393939394" type="line"/>
      <point x="131.6919191919192" y="655.1969696969697"/>
      <point x="226.24747474747474" y="674.0"/>
      <point x="315.8939393939394" y="674.0" type="curve" smooth="yes"/>
      <point x="457.1212121212121" y="674.0"/>
      <point x="508.9747474747475" y="634.6262626262627"/>
      <point x="508.9747474747475" y="553.4949494949495" type="curve" smooth="yes"/>
      <point x="508.9747474747475" y="495.49494949494954"/>
      <point x="474.4343434343435" y="436.3636363636364"/>
      <point x="386.0707070707071" y="338.2272727272727" type="curve" smooth="yes"/>
      <point x="78.73737373737374" y="-0.2777777777778141" type="line"/>
    </contour>
  </outline>
</glyph>
<glyph name="threesuperior" format="2">
  <advance width="894.1565656565656"/>
  <unicode hex="00B3"/>
  <outline>
    <contour>
      <point x="363.0" y="-149.41414141414143" type="curve" smooth="yes"/>
      <point x="671.4191919191919" y="-149.41414141414143"/>
      <point x="808.560606060606" y="-36.282828282828284"/>
      <point x="808.560606060606" y="145.8131313131313" type="curve" smooth="yes"/>
      <point x="808.560606060606" y="284.5353535353535"/>
      <point x="723.8484848484848" y="364.1010101010101"/>
      <point x="584.030303030303" y="385.3686868686869" type="curve"/>
      <point x="584.030303030303" y="375.35353535353534" type="line"/>
      <point x="699.6868686868686" y="401.1111111111111"/>
      <point x="773.2070707070707" y="485.57575757575756"/>
      <point x="773.2070707070707" y="601.5454545454545" type="curve" smooth="yes"/>
      <point x="773.2070707070707" y="776.929292929293"/>
      <point x="639.530303030303" y="877.4141414141415"/>
      <point x="363.26262626262627" y="877.4141414141415" type="curve" smooth="yes"/>
      <point x="268.07070707070704" y="877.4141414141415"/>
      <point x="154.6161616161616" y="861.8787878787879"/>
      <point x="84.46969696969698" y="839.6464646464647" type="curve"/>
      <point x="84.46969696969698" y="650.1414141414142" type="line"/>
      <point x="158.3989898989899" y="676.3131313131314"/>
      <point x="256.72222222222223" y="691.0555555555557"/>
      <point x="335.0151515151515" y="691.0555555555557" type="curve" smooth="yes"/>
      <point x="464.83333333333337" y="691.0555555555557"/>
      <point x="519.0050505050506" y="650.3383838383838"/>
      <point x="519.0050505050506" y="580.3686868686868" type="curve" smooth="yes"/>
      <point x="519.0050505050506" y="510.6969696969697"/>
      <point x="467.0808080808081" y="469.3080808080808"/>
      <point x="334.9191919191919" y="469.3080808080808" type="curve" smooth="yes"/>
      <point x="174.91919191919195" y="469.3080808080808" type="line"/>
      <point x="174.91919191919195" y="280.68181818181824" type="line"/>
      <point x="368.3484848484849" y="280.68181818181824" type="line" smooth="yes"/>
      <point x="507.75757575757575" y="280.68181818181824"/>
      <point x="559.6616161616162" y="238.6818181818182"/>
      <point x="559.6616161616162" y="162.39393939393938" type="curve" smooth="yes"/>
      <point x="559.6616161616162" y="82.44444444444441"/>
      <point x="499.8181818181818" y="38.00505050505045"/>
      <point x="349.50505050505046" y="38.00505050505045" type="curve" smooth="yes"/>
      <point x="263.05555555555554" y="38.00505050505045"/>
      <point x="158.06060606060606" y="51.1515151515151"/>
      <point x="66.4040404040404" y="75.99494949494945" type="curve"/>
      <point x="66.4040404040404" y="-113.51010101010101" type="line"/>
      <point x="158.13131313131314" y="-137.32828282828282"/>
      <point x="259.46969696969694" y="-149.41414141414143"/>
    </contour>
  </outline>
</glyph>
<glyph name="acute" format="2">
  <advance width="1170.7070707070707"/>
  <unicode hex="00B4"/>
  <anchor x="585.3535353535353" y="1200.0" name="_top"/>
  <anchor x="585.3535353535353" y="1626.7070707070707" name="top"/>
  <outline>
    <contour>
      <point x="429.0303030303031" y="1232.888888888889" type="line"/>
      <point x="741.6767676767677" y="1232.888888888889" type="line"/>
      <point x="1034.040404040404" y="1616.0" type="line"/>
      <point x="672.3333333333334" y="1616.0" type="line"/>
    </contour>
  </outline>
</glyph>
<glyph name="paragraph" format="2">
  <advance width="1391.4747474747473"/>
  <unicode hex="00B6"/>
  <outline>
    <contour>
      <point x="638.5858585858587" y="0.0" type="line"/>
      <point x="874.5151515151515" y="0.0" type="line"/>
      <point x="874.5151515151515" y="1480.0" type="line"/>
      <point x="780.530303030303" y="1491.888888888889"/>
      <point x="675.0808080808081" y="1498.2424242424242"/>
      <point x="570.0808080808081" y="1498.2424242424242" type="curve" smooth="yes"/>
      <point x="237.4848484848485" y="1498.2424242424242"/>
      <point x="79.52020202020203" y="1334.2474747474748"/>
      <point x="79.52020202020203" y="963.2474747474748" type="curve" smooth="yes"/>
      <point x="79.52020202020203" y="610.7727272727273"/>
      <point x="230.96969696969697" y="427.1414141414142"/>
      <point x="537.5454545454546" y="427.1414141414142" type="curve" smooth="yes"/>
      <point x="574.2878787878789" y="427.1414141414142"/>
      <point x="605.4545454545455" y="429.22727272727275"/>
      <point x="638.5858585858587" y="431.71717171717177" type="curve"/>
    </contour>
    <contour>
      <point x="1011.5858585858585" y="0.0" type="line"/>
      <point x="1247.5151515151515" y="0.0" type="line"/>
      <point x="1247.5151515151515" y="1480.0" type="line"/>
      <point x="1011.5858585858585" y="1480.0" type="line"/>
    </contour>
  </outline>
</glyph>
<glyph name="ordmasculine" format="2">
  <advance width="1089.9595959595958"/>
  <unicode hex="00BA"/>
  <outline>
    <contour>
      <point x="544.6262626262626" y="593.1717171717172" type="curve" smooth="yes"/>
      <point x="856.3888888888888" y="593.1717171717172"/>
      <point x="1038.9898989898988" y="761.3434343434343"/>
      <point x="1038.9898989898988" y="1047.7676767676767" type="curve" smooth="yes"/>
      <point x="1038.9898989898988" y="1334.1919191919192"/>
      <point x="856.3888888888888" y="1499.0707070707072"/>
      <point x="544.6262626262626" y="1499.0707070707072" type="curve" smooth="yes"/>
      <point x="232.86363636363637" y="1499.0707070707072"/>
      <point x="50.969696969697" y="1335.959595959596"/>
      <point x="50.969696969697" y="1047.7676767676767" type="curve" smooth="yes"/>
      <point x="50.969696969697" y="759.5757575757575"/>
      <point x="232.86363636363637" y="593.1717171717172"/>
    </contour>
    <contour>
      <point x="544.6262626262626" y="823.1868686868686" type="curve" smooth="yes"/>
      <point x="432.6111111111111" y="823.1868686868686"/>
      <point x="360.08080808080797" y="885.9696969696969"/>
      <point x="360.08080808080797" y="1047.7676767676767" type="curve" smooth="yes"/>
      <point x="360.08080808080797" y="1209.919191919192"/>
      <point x="432.6111111111111" y="1269.0555555555557"/>
      <point x="544.6262626262626" y="1269.0555555555557" type="curve" smooth="yes"/>
      <point x="658.7626262626263" y="1269.0555555555557"/>
      <point x="729.8787878787879" y="1209.919191919192"/>
      <point x="729.8787878787879" y="1047.7676767676767" type="curve" smooth="yes"/>
      <point x="729.8787878787879" y="885.9696969696969"/>
      <point x="658.7626262626263" y="823.1868686868686"/>
    </contour>
  </outline>
</glyph>
<glyph name="guillemetright" format="2">
  <advance width="1318.853535353535"/>
  <unicode hex="00BB"/>
  <outline>
    <contour>
      <point x="48.919191919191945" y="132.92929292929293" type="line"/>
      <point x="393.1919191919191" y="132.92929292929293" type="line"/>
      <point x="671.1717171717171" y="567.070707070707" type="line"/>
      <point x="393.1919191919191" y="1001.2121212121212" type="line"/>
      <point x="48.919191919191945" y="1001.2121212121212" type="line"/>
      <point x="326.89898989898995" y="567.070707070707" type="line"/>
    </contour>
    <contour>
      <point x="607.681818181818" y="132.92929292929293" type="line"/>
      <point x="951.9545454545453" y="132.92929292929293" type="line"/>
      <point x="1229.9343434343432" y="567.070707070707" type="line"/>
      <point x="951.9545454545453" y="1001.2121212121212" type="line"/>
      <point x="607.681818181818" y="1001.2121212121212" type="line"/>
      <point x="885.6616161616162" y="567.070707070707" type="line"/>
    </contour>
  </outline>
</glyph>
<glyph name="onequarter" format="2">
  <advance width="2194.1464646464647"/>
  <unicode hex="00BC"/>
  <outline>
    <contour>
      <point x="359.30808080808083" y="646.6060606060606" type="line"/>
      <point x="626.590909090909" y="646.6060606060606" type="line"/>
      <point x="626.590909090909" y="1620.0" type="line"/>
      <point x="449.7474747474747" y="1620.0" type="line"/>
      <point x="133.3939393939394" y="1417.6818181818182" type="line"/>
      <point x="133.3939393939394" y="1189.4797979797981" type="line"/>
      <point x="449.7474747474747" y="1391.79797979798" type="line"/>
      <point x="359.30808080808083" y="1477.479797979798" type="line"/>
    </contour>
    <contour>
      <point x="131.65151515151516" y="616.0" type="line"/>
      <point x="841.60101010101" y="616.0" type="line"/>
      <point x="841.60101010101" y="824.7171717171716" type="line"/>
      <point x="131.65151515151516" y="824.7171717171716" type="line"/>
    </contour>
    <contour>
      <point x="536.3030303030303" y="-136.0" type="line"/>
      <point x="814.0707070707069" y="-136.0" type="line"/>
      <point x="1657.8434343434342" y="1616.0" type="line"/>
      <point x="1380.0757575757575" y="1616.0" type="line"/>
    </contour>
    <contour>
      <point x="1324.3585858585857" y="56.25252525252529" type="line"/>
      <point x="2172.181818181818" y="56.25252525252529" type="line"/>
      <point x="2172.181818181818" y="255.5454545454545" type="line"/>
      <point x="1550.883838383838" y="255.5454545454545" type="line"/>
      <point x="1570.5404040404037" y="195.51010101010098" type="line"/>
      <point x="1890.0353535353534" y="864.0" type="line"/>
      <point x="1645.2676767676767" y="864.0" type="line"/>
      <point x="1324.3585858585857" y="195.94949494949492" type="line"/>
    </contour>
    <contour>
      <point x="1809.7575757575755" y="-136.0" type="line"/>
      <point x="2043.5757575757575" y="-136.0" type="line"/>
      <point x="2043.5757575757575" y="526.0" type="line"/>
      <point x="1851.8080808080806" y="526.0" type="line"/>
      <point x="1809.7575757575755" y="255.5454545454545" type="line"/>
    </contour>
  </outline>
</glyph>
<glyph name="onehalf" format="2">
  <advance width="2194.1464646464647"/>
  <unicode hex="00BD"/>
  <outline>
    <contour>
      <point x="359.30808080808083" y="646.6060606060606" type="line"/>
      <point x="626.590909090909" y="646.6060606060606" type="line"/>
      <point x="626.590909090909" y="1620.0" type="line"/>
      <point x="449.7474747474747" y="1620.0" type="line"/>
      <point x="133.3939393939394" y="1417.6818181818182" type="line"/>
      <point x="133.3939393939394" y="1189.4797979797981" type="line"/>
      <point x="449.7474747474747" y="1391.79797979798" type="line"/>
      <point x="359.30808080808083" y="1477.479797979798" type="line"/>
    </contour>
    <contour>
      <point x="131.65151515151516" y="616.0" type="line"/>
      <point x="841.60101010101" y="616.0" type="line"/>
      <point x="841.60101010101" y="824.7171717171716" type="line"/>
      <point x="131.65151515151516" y="824.7171717171716" type="line"/>
    </contour>
    <contour>
      <point x="536.3030303030303" y="-136.0" type="line"/>
      <point x="814.0707070707069" y="-136.0" type="line"/>
      <point x="1657.8434343434342" y="1616.0" type="line"/>
      <point x="1380.0757575757575" y="1616.0" type="line"/>
    </contour>
    <contour>
      <point x="1378.7272727272725" y="-136.0" type="line"/>
      <point x="2120.2777777777774" y="-136.0" type="line"/>
      <point x="2120.2777777777774" y="72.71717171717165" type="line"/>
      <point x="1679.853535353535" y="72.71717171717165" type="line"/>
      <point x="1675.4797979797977" y="6.31818181818177" type="line"/>
      <point x="1911.8282828282827" y="260.92424242424244" type="line" smooth="yes"/>
      <point x="2025.3585858585857" y="383.69191919191917"/>
      <point x="2072.090909090909" y="476.45959595959596"/>
      <point x="2072.2373737373737" y="581.8282828282828" type="curve" smooth="yes"/>
      <point x="2072.3838383838383" y="784.040404040404"/>
      <point x="1933.3434343434342" y="877.4141414141415"/>
      <point x="1652.323232323232" y="877.4141414141415" type="curve" smooth="yes"/>
      <point x="1548.9848484848485" y="877.4141414141415"/>
      <point x="1441.6262626262626" y="863.560606060606"/>
      <point x="1366.3737373737372" y="838.7676767676768" type="curve"/>
      <point x="1366.3737373737372" y="631.939393939394" type="line"/>
      <point x="1431.681818181818" y="655.1969696969697"/>
      <point x="1526.2373737373737" y="674.0"/>
      <point x="1615.8838383838383" y="674.0" type="curve" smooth="yes"/>
      <point x="1757.1111111111109" y="674.0"/>
      <point x="1808.9646464646462" y="634.6262626262627"/>
      <point x="1808.9646464646462" y="553.4949494949495" type="curve" smooth="yes"/>
      <point x="1808.9646464646462" y="495.49494949494954"/>
      <point x="1774.4242424242423" y="436.3636363636364"/>
      <point x="1686.060606060606" y="338.2272727272727" type="curve" smooth="yes"/>
      <point x="1378.7272727272725" y="-0.2777777777778141" type="line"/>
    </contour>
  </outline>
</glyph>
<glyph name="questiondown" format="2">
  <advance width="1054.70202020202"/>
  <unicode hex="00BF"/>
  <outline>
    <contour>
      <point x="677.60101010101" y="630.1010101010102" type="line"/>
      <point x="474.3989898989899" y="630.1010101010102" type="line"/>
      <point x="451.3181818181818" y="423.54040404040404" type="line"/>
      <point x="195.7070707070707" y="349.2222222222222"/>
      <point x="56.45454545454545" y="219.83333333333331"/>
      <point x="56.45454545454545" y="4.348484848484823" type="curve" smooth="yes"/>
      <point x="56.45454545454545" y="-252.47979797979798"/>
      <point x="244.82323232323233" y="-400.0"/>
      <point x="624.5454545454545" y="-400.0" type="curve" smooth="yes"/>
      <point x="758.0656565656565" y="-400.0"/>
      <point x="913.8939393939393" y="-377.25757575757575"/>
      <point x="1017.1868686868686" y="-343.52525252525254" type="curve"/>
      <point x="1017.1868686868686" y="-84.26262626262636" type="line"/>
      <point x="908.2575757575756" y="-121.28787878787887"/>
      <point x="777.3737373737373" y="-142.03030303030312"/>
      <point x="660.3383838383838" y="-142.03030303030312" type="curve" smooth="yes"/>
      <point x="467.4797979797979" y="-142.03030303030312"/>
      <point x="382.7676767676767" y="-79.28282828282835"/>
      <point x="382.7676767676767" y="28.681818181818144" type="curve" smooth="yes"/>
      <point x="382.7676767676767" y="134.22222222222223"/>
      <point x="459.8232323232322" y="211.13636363636365"/>
      <point x="735.2070707070707" y="262.1414141414142" type="curve"/>
    </contour>
    <contour>
      <point x="575.4696969696969" y="1111.2121212121212" type="curve" smooth="yes"/>
      <point x="442.3686868686869" y="1111.2121212121212"/>
      <point x="360.0353535353536" y="1036.7777777777778"/>
      <point x="360.0353535353536" y="926.1818181818182" type="curve" smooth="yes"/>
      <point x="360.0353535353536" y="815.0000000000001"/>
      <point x="440.12626262626264" y="740.5656565656567"/>
      <point x="575.4696969696969" y="740.5656565656567" type="curve" smooth="yes"/>
      <point x="710.8131313131312" y="740.5656565656567"/>
      <point x="790.9040404040403" y="812.1717171717173"/>
      <point x="790.9040404040403" y="926.1818181818182" type="curve" smooth="yes"/>
      <point x="790.9040404040403" y="1039.6060606060605"/>
      <point x="707.9848484848484" y="1111.2121212121212"/>
    </contour>
  </outline>
</glyph>
<glyph name="Agrave" format="2">
  <advance width="1562.6868686868686"/>
  <unicode hex="00C0"/>
  <anchor x="780.5757575757575" y="1520.0" name="_top"/>
  <anchor x="781.6363636363636" y="0.0" name="bottom"/>
  <anchor x="1543.1666666666665" y="0.0" name="ogonek"/>
  <anchor x="780.5757575757575" y="1520.0" name="top"/>
  <outline>
    <contour>
      <point x="19.520202020202035" y="0.0" type="line"/>
      <point x="352.16161616161605" y="0.0" type="line"/>
      <point x="796.5858585858585" y="1333.5858585858587" type="line"/>
      <point x="761.9797979797979" y="1333.5858585858587" type="line"/>
      <point x="1207.111111111111" y="0.0" type="line"/>
      <point x="1543.1666666666665" y="0.0" type="line"/>
      <point x="1028.333333333333" y="1480.0" type="line"/>
      <point x="534.3535353535354" y="1480.0" type="line"/>
    </contour>
    <contour>
      <point x="397.3939393939394" y="392.59595959595964" type="line"/>
      <point x="1162.8181818181818" y="392.59595959595964" type="line"/>
      <point x="1086.9595959595958" y="655.8686868686868" type="line"/>
      <point x="474.31313131313124" y="655.8686868686868" type="line"/>
    </contour>
    <contour>
      <point x="628.8484848484849" y="1594.7878787878788" type="line"/>
      <point x="932.3030303030303" y="1594.7878787878788" type="line"/>
      <point x="737.3383838383837" y="1897.8989898989898" type="line"/>
      <point x="383.6767676767677" y="1897.8989898989898" type="line"/>
    </contour>
  </outline>
</glyph>
<glyph name="Atilde" format="2">
  <advance width="1562.6868686868686"/>
  <unicode hex="00C3"/>
  <anchor x="780.5757575757575" y="1520.0" name="_top"/>
  <anchor x="781.6363636363636" y="0.0" name="bottom"/>
  <anchor x="1543.1666666666665" y="0.0" name="ogonek"/>
  <anchor x="780.5757575757575" y="1520.0" name="top"/>
  <outline>
    <contour>
      <point x="19.520202020202035" y="0.0" type="line"/>
      <point x="352.16161616161605" y="0.0" type="line"/>
      <point x="796.5858585858585" y="1333.5858585858587" type="line"/>
      <point x="761.9797979797979" y="1333.5858585858587" type="line"/>
      <point x="1207.111111111111" y="0.0" type="line"/>
      <point x="1543.1666666666665" y="0.0" type="line"/>
      <point x="1028.333333333333" y="1480.0" type="line"/>
      <point x="534.3535353535354" y="1480.0" type="line"/>
    </contour>
    <contour>
      <point x="397.3939393939394" y="392.59595959595964" type="line"/>
      <point x="1162.8181818181818" y="392.59595959595964" type="line"/>
      <point x="1086.9595959595958" y="655.8686868686868" type="line"/>
      <point x="474.31313131313124" y="655.8686868686868" type="line"/>
    </contour>
    <contour>
      <point x="960.1515151515151" y="1618.6616161616162" type="curve" smooth="yes"/>
      <point x="1055.510101010101" y="1618.6616161616162"/>
      <point x="1119.969696969697" y="1640.3686868686868"/>
      <point x="1175.5" y="1689.060606060606" type="curve"/>
      <point x="1175.5" y="1873.2272727272727" type="line"/>
      <point x="1110.909090909091" y="1826.9949494949494"/>
      <point x="1052.7171717171716" y="1805.20202020202"/>
      <point x="967.2222222222222" y="1805.20202020202" type="curve" smooth="yes"/>
      <point x="842.2929292929293" y="1805.20202020202"/>
      <point x="744.8080808080807" y="1880.909090909091"/>
      <point x="601.0" y="1880.909090909091" type="curve" smooth="yes"/>
      <point x="505.6414141414141" y="1880.909090909091"/>
      <point x="441.1818181818182" y="1857.7878787878788"/>
      <point x="385.6515151515151" y="1809.0959595959596" type="curve"/>
      <point x="385.6515151515151" y="1624.929292929293" type="line"/>
      <point x="450.24242424242425" y="1671.1616161616162"/>
      <point x="508.4343434343434" y="1692.9545454545455"/>
      <point x="593.9292929292928" y="1692.9545454545455" type="curve" smooth="yes"/>
      <point x="718.8585858585858" y="1692.9545454545455"/>
      <point x="816.3434343434343" y="1618.6616161616162"/>
    </contour>
  </outline>
</glyph>
<glyph name="Adieresis" format="2">
  <advance width="1562.6868686868686"/>
  <unicode hex="00C4"/>
  <anchor x="780.5757575757575" y="1520.0" name="_top"/>
  <anchor x="781.6363636363636" y="0.0" name="bottom"/>
  <anchor x="1543.1666666666665" y="0.0" name="ogonek"/>
  <anchor x="780.5757575757575" y="1520.0" name="top"/>
  <outline>
    <contour>
      <point x="19.520202020202035" y="0.0" type="line"/>
      <point x="352.16161616161605" y="0.0" type="line"/>
      <point x="796.5858585858585" y="1333.5858585858587" type="line"/>
      <point x="761.9797979797979" y="1333.5858585858587" type="line"/>
      <point x="1207.111111111111" y="0.0" type="line"/>
      <point x="1543.1666666666665" y="0.0" type="line"/>
      <point x="1028.333333333333" y="1480.0" type="line"/>
      <point x="534.3535353535354" y="1480.0" type="line"/>
    </contour>
    <contour>
      <point x="397.3939393939394" y="392.59595959595964" type="line"/>
      <point x="1162.8181818181818" y="392.59595959595964" type="line"/>
      <point x="1086.9595959595958" y="655.8686868686868" type="line"/>
      <point x="474.31313131313124" y="655.8686868686868" type="line"/>
    </contour>
    <contour>
      <point x="1052.040404040404" y="1605.1515151515152" type="curve" smooth="yes"/>
      <point x="1170.7676767676767" y="1605.1515151515152"/>
      <point x="1227.8787878787878" y="1659.5555555555557"/>
      <point x="1227.8787878787878" y="1750.5858585858587" type="curve" smooth="yes"/>
      <point x="1227.8787878787878" y="1841.6161616161617"/>
      <point x="1170.7676767676767" y="1896.6060606060605"/>
      <point x="1052.040404040404" y="1896.6060606060605" type="curve" smooth="yes"/>
      <point x="933.3131313131313" y="1896.6060606060605"/>
      <point x="876.2020202020202" y="1841.6161616161617"/>
      <point x="876.2020202020202" y="1750.5858585858587" type="curve" smooth="yes"/>
      <point x="876.2020202020202" y="1659.5555555555557"/>
      <point x="933.3131313131313" y="1605.1515151515152"/>
    </contour>
    <contour>
      <point x="509.1111111111111" y="1605.1515151515152" type="curve" smooth="yes"/>
      <point x="627.8383838383838" y="1605.1515151515152"/>
      <point x="684.9494949494949" y="1659.5555555555557"/>
      <point x="684.9494949494949" y="1750.5858585858587" type="curve" smooth="yes"/>
      <point x="684.9494949494949" y="1841.6161616161617"/>
      <point x="627.8383838383838" y="1896.6060606060605"/>
      <point x="509.1111111111111" y="1896.6060606060605" type="curve" smooth="yes"/>
      <point x="390.3838383838384" y="1896.6060606060605"/>
      <point x="333.2727272727273" y="1841.6161616161617"/>
      <point x="333.2727272727273" y="1750.5858585858587" type="curve" smooth="yes"/>
      <point x="333.2727272727273" y="1659.5555555555557"/>
      <point x="390.3838383838384" y="1605.1515151515152"/>
    </contour>
  </outline>
</glyph>
<glyph name="Aring" format="2">
  <advance width="1562.6868686868686"/>
  <unicode hex="00C5"/>
  <anchor x="781.3080808080807" y="1467.2727272727273" name="_top"/>
  <anchor x="781.6363636363636" y="0.0" name="bottom"/>
  <anchor x="1543.1666666666665" y="0.0" name="ogonek"/>
  <anchor x="780.5757575757575" y="1520.0" name="top"/>
  <outline>
    <contour>
      <point x="19.520202020202035" y="0.0" type="line"/>
      <point x="352.16161616161605" y="0.0" type="line"/>
      <point x="796.5858585858585" y="1333.5858585858587" type="line"/>
      <point x="761.9797979797979" y="1333.5858585858587" type="line"/>
      <point x="1207.111111111111" y="0.0" type="line"/>
      <point x="1543.1666666666665" y="0.0" type="line"/>
      <point x="1028.333333333333" y="1480.0" type="line"/>
      <point x="534.3535353535354" y="1480.0" type="line"/>
    </contour>
    <contour>
      <point x="397.3939393939394" y="392.59595959595964" type="line"/>
      <point x="1162.8181818181818" y="392.59595959595964" type="line"/>
      <point x="1086.9595959595958" y="655.8686868686868" type="line"/>
      <point x="474.31313131313124" y="655.8686868686868" type="line"/>
    </contour>
    <contour>
      <point x="781.3080808080807" y="1529.4292929292928" type="curve" smooth="yes"/>
      <point x="905.6919191919192" y="1529.4292929292928"/>
      <point x="996.4191919191919" y="1617.3282828282827"/>
      <point x="996.4191919191919" y="1738.8838383838383" type="curve" smooth="yes"/>
      <point x="996.4191919191919" y="1860.439393939394"/>
      <point x="905.6919191919192" y="1948.3383838383838"/>
      <point x="781.3080808080807" y="1948.3383838383838" type="curve" smooth="yes"/>
      <point x="656.9242424242424" y="1948.3383838383838"/>
      <point x="566.1969696969696" y="1860.439393939394"/>
      <point x="566.1969696969696" y="1738.8838383838383" type="curve" smooth="yes"/>
      <point x="566.1969696969696" y="1617.3282828282827"/>
      <point x="656.9242424242424" y="1529.4292929292928"/>
    </contour>
    <contour>
      <point x="781.3080808080807" y="1642.2373737373737" type="curve" smooth="yes"/>
      <point x="726.520202020202" y="1642.2373737373737"/>
      <point x="688.0757575757575" y="1679.510101010101"/>
      <point x="688.0757575757575" y="1738.8838383838383" type="curve" smooth="yes"/>
      <point x="688.0757575757575" y="1798.2575757575758"/>
      <point x="726.520202020202" y="1835.530303030303"/>
      <point x="781.3080808080807" y="1835.530303030303" type="curve" smooth="yes"/>
      <point x="836.0959595959596" y="1835.530303030303"/>
      <point x="874.540404040404" y="1798.2575757575758"/>
      <point x="874.540404040404" y="1738.8838383838383" type="curve" smooth="yes"/>
      <point x="874.540404040404" y="1679.510101010101"/>
      <point x="836.0959595959596" y="1642.2373737373737"/>
    </contour>
  </outline>
</glyph>
<glyph name="Ccedilla" format="2">
  <advance width="1331.449494949495"/>
  <unicode hex="00C7"/>
  <anchor x="803.4393939393939" y="0.0" name="_bottom"/>
  <anchor x="803.4393939393939" y="0.0" name="bottom"/>
  <anchor x="798.3131313131313" y="1520.0" name="top"/>
  <outline>
    <contour>
      <point x="919.3282828282827" y="-19.41414141414141" type="curve" smooth="yes"/>
      <point x="1045.4292929292928" y="-19.41414141414141"/>
      <point x="1170.4141414141413" y="-1.7424242424242404"/>
      <point x="1274.0757575757575" y="28.44444444444445" type="curve"/>
      <point x="1274.0757575757575" y="305.7373737373737" type="line"/>
      <point x="1166.212121212121" y="276.121212121212"/>
      <point x="1059.2373737373737" y="259.7676767676767"/>
      <point x="945.7828282828282" y="259.7676767676767" type="curve" smooth="yes"/>
      <point x="614.631313131313" y="259.7676767676767"/>
      <point x="449.24242424242414" y="398.04545454545445"/>
      <point x="449.24242424242414" y="740.5858585858585" type="curve" smooth="yes"/>
      <point x="449.24242424242414" y="1074.1818181818182"/>
      <point x="612.8232323232322" y="1220.2323232323233"/>
      <point x="960.050505050505" y="1220.2323232323233" type="curve" smooth="yes"/>
      <point x="1071.5656565656564" y="1220.2323232323233"/>
      <point x="1174.9848484848485" y="1207.828282828283"/>
      <point x="1274.0757575757575" y="1185.0555555555557" type="curve"/>
      <point x="1274.0757575757575" y="1462.3484848484848" type="line"/>
      <point x="1165.671717171717" y="1487.3636363636363"/>
      <point x="1054.7828282828282" y="1499.4141414141413"/>
      <point x="933.5" y="1499.4141414141413" type="curve" smooth="yes"/>
      <point x="391.24242424242425" y="1499.4141414141413"/>
      <point x="91.5858585858586" y="1234.0404040404042"/>
      <point x="91.5858585858586" y="736.5858585858585" type="curve" smooth="yes"/>
      <point x="91.5858585858586" y="214.01010101010098"/>
      <point x="389.4545454545455" y="-19.41414141414141"/>
    </contour>
    <contour>
      <point x="773.3686868686868" y="-442.4242424242424" type="curve" smooth="yes"/>
      <point x="959.1262626262626" y="-442.4242424242424"/>
      <point x="1052.4747474747473" y="-373.5050505050505"/>
      <point x="1052.4747474747473" y="-259.1818181818182" type="curve" smooth="yes"/>
      <point x="1052.4747474747473" y="-146.27272727272728"/>
      <point x="966.9040404040404" y="-80.53535353535355"/>
      <point x="792.7171717171717" y="-80.53535353535355" type="curve"/>
      <point x="862.550505050505" y="-127.85858585858587" type="line"/>
      <point x="862.550505050505" y="20.0" type="line"/>
      <point x="706.1464646464647" y="20.0" type="line"/>
      <point x="706.1464646464647" y="-177.08080808080808" type="line"/>
      <point x="757.5808080808081" y="-177.08080808080808" type="line" smooth="yes"/>
      <point x="837.2070707070707" y="-177.08080808080808"/>
      <point x="880.8686868686868" y="-197.65656565656565"/>
      <point x="880.8686868686868" y="-248.92929292929293" type="curve" smooth="yes"/>
      <point x="880.8686868686868" y="-298.4343434343434"/>
      <point x="837.9141414141413" y="-317.949494949495"/>
      <point x="757.8131313131313" y="-317.949494949495" type="curve" smooth="yes"/>
      <point x="697.8737373737374" y="-317.949494949495"/>
      <point x="627.2929292929293" y="-307.8636363636364"/>
      <point x="561.8989898989898" y="-284.7020202020202" type="curve"/>
      <point x="561.8989898989898" y="-409.28787878787875" type="line"/>
      <point x="623.8484848484849" y="-430.33838383838383"/>
      <point x="693.959595959596" y="-442.4242424242424"/>
    </contour>
  </outline>
</glyph>
<glyph name="Egrave" format="2">
  <advance width="1345.1565656565656"/>
  <unicode hex="00C8"/>
  <anchor x="720.3737373737374" y="1520.0" name="_top"/>
  <anchor x="721.2525252525252" y="0.0" name="bottom"/>
  <anchor x="1172.4747474747473" y="0.0" name="ogonek"/>
  <anchor x="720.3737373737374" y="1520.0" name="top"/>
  <anchor x="40.31818181818182" y="1480.0" name="topleft"/>
  <outline>
    <contour>
      <point x="143.959595959596" y="0.0" type="line"/>
      <point x="1263.0808080808079" y="0.0" type="line"/>
      <point x="1263.0808080808079" y="263.97979797979787" type="line"/>
      <point x="481.3535353535352" y="263.97979797979787" type="line"/>
      <point x="481.3535353535352" y="1216.020202020202" type="line"/>
      <point x="1253.0808080808079" y="1216.020202020202" type="line"/>
      <point x="1253.0808080808079" y="1480.0" type="line"/>
      <point x="143.959595959596" y="1480.0" type="line"/>
    </contour>
    <contour>
      <point x="327.19191919191917" y="624.7676767676768" type="line"/>
      <point x="1149.9242424242423" y="624.7676767676768" type="line"/>
      <point x="1149.9242424242423" y="888.7474747474747" type="line"/>
      <point x="327.19191919191917" y="888.7474747474747" type="line"/>
    </contour>
    <contour>
      <point x="568.6464646464647" y="1594.7878787878788" type="line"/>
      <point x="872.10101010101" y="1594.7878787878788" type="line"/>
      <point x="677.1363636363635" y="1897.8989898989898" type="line"/>
      <point x="323.4747474747475" y="1897.8989898989898" type="line"/>
    </contour>
  </outline>
</glyph>
<glyph name="Ecircumflex" format="2">
  <advance width="1345.1565656565656"/>
  <unicode hex="00CA"/>
  <anchor x="720.3737373737374" y="1520.0" name="_top"/>
  <anchor x="721.2525252525252" y="0.0" name="bottom"/>
  <anchor x="1172.4747474747473" y="0.0" name="ogonek"/>
  <anchor x="720.3737373737374" y="1520.0" name="top"/>
  <anchor x="40.31818181818182" y="1480.0" name="topleft"/>
  <outline>
    <contour>
      <point x="143.959595959596" y="0.0" type="line"/>
      <point x="1263.0808080808079" y="0.0" type="line"/>
      <point x="1263.0808080808079" y="263.97979797979787" type="line"/>
      <point x="481.3535353535352" y="263.97979797979787" type="line"/>
      <point x="481.3535353535352" y="1216.020202020202" type="line"/>
      <point x="1253.0808080808079" y="1216.020202020202" type="line"/>
      <point x="1253.0808080808079" y="1480.0" type="line"/>
      <point x="143.959595959596" y="1480.0" type="line"/>
    </contour>
    <contour>
      <point x="327.19191919191917" y="624.7676767676768" type="line"/>
      <point x="1149.9242424242423" y="624.7676767676768" type="line"/>
      <point x="1149.9242424242423" y="888.7474747474747" type="line"/>
      <point x="327.19191919191917" y="888.7474747474747" type="line"/>
    </contour>
    <contour>
      <point x="292.0404040404041" y="1594.7878787878788" type="line"/>
      <point x="555.6616161616162" y="1594.7878787878788" type="line"/>
      <point x="748.9545454545454" y="1806.469696969697" type="line"/>
      <point x="691.7929292929293" y="1806.469696969697" type="line"/>
      <point x="885.0858585858587" y="1594.7878787878788" type="line"/>
      <point x="1148.7070707070707" y="1594.7878787878788" type="line"/>
      <point x="861.9595959595958" y="1897.8989898989898" type="line"/>
      <point x="578.7878787878789" y="1897.8989898989898" type="line"/>
    </contour>
  </outline>
</glyph>
<glyph name="Edieresis" format="2">
  <advance width="1345.1565656565656"/>
  <unicode hex="00CB"/>
  <anchor x="720.3737373737374" y="1520.0" name="_top"/>
  <anchor x="721.2525252525252" y="0.0" name="bottom"/>
  <anchor x="1172.4747474747473" y="0.0" name="ogonek"/>
  <anchor x="720.3737373737374" y="1520.0" name="top"/>
  <anchor x="40.31818181818182" y="1480.0" name="topleft"/>
  <outline>
    <contour>
      <point x="143.959595959596" y="0.0" type="line"/>
      <point x="1263.0808080808079" y="0.0" type="line"/>
      <point x="1263.0808080808079" y="263.97979797979787" type="line"/>
      <point x="481.3535353535352" y="263.97979797979787" type="line"/>
      <point x="481.3535353535352" y="1216.020202020202" type="line"/>
      <point x="1253.0808080808079" y="1216.020202020202" type="line"/>
      <point x="1253.0808080808079" y="1480.0" type="line"/>
      <point x="143.959595959596" y="1480.0" type="line"/>
    </contour>
    <contour>
      <point x="327.19191919191917" y="624.7676767676768" type="line"/>
      <point x="1149.9242424242423" y="624.7676767676768" type="line"/>
      <point x="1149.9242424242423" y="888.7474747474747" type="line"/>
      <point x="327.19191919191917" y="888.7474747474747" type="line"/>
    </contour>
    <contour>
      <point x="991.8383838383838" y="1605.1515151515152" type="curve" smooth="yes"/>
      <point x="1110.5656565656564" y="1605.1515151515152"/>
      <point x="1167.6767676767677" y="1659.5555555555557"/>
      <point x="1167.6767676767677" y="1750.5858585858587" type="curve" smooth="yes"/>
      <point x="1167.6767676767677" y="1841.6161616161617"/>
      <point x="1110.5656565656564" y="1896.6060606060605"/>
      <point x="991.8383838383838" y="1896.6060606060605" type="curve" smooth="yes"/>
      <point x="873.1111111111111" y="1896.6060606060605"/>
      <point x="816.0" y="1841.6161616161617"/>
      <point x="816.0" y="1750.5858585858587" type="curve" smooth="yes"/>
      <point x="816.0" y="1659.5555555555557"/>
      <point x="873.1111111111111" y="1605.1515151515152"/>
    </contour>
    <contour>
      <point x="448.9090909090909" y="1605.1515151515152" type="curve" smooth="yes"/>
      <point x="567.6363636363636" y="1605.1515151515152"/>
      <point x="624.7474747474746" y="1659.5555555555557"/>
      <point x="624.7474747474746" y="1750.5858585858587" type="curve" smooth="yes"/>
      <point x="624.7474747474746" y="1841.6161616161617"/>
      <point x="567.6363636363636" y="1896.6060606060605"/>
      <point x="448.9090909090909" y="1896.6060606060605" type="curve" smooth="yes"/>
      <point x="330.1818181818182" y="1896.6060606060605"/>
      <point x="273.0707070707071" y="1841.6161616161617"/>
      <point x="273.0707070707071" y="1750.5858585858587" type="curve" smooth="yes"/>
      <point x="273.0707070707071" y="1659.5555555555557"/>
      <point x="330.1818181818182" y="1605.1515151515152"/>
    </contour>
  </outline>
</glyph>
<glyph name="Igrave" format="2">
  <advance width="629.5555555555554"/>
  <unicode hex="00CC"/>
  <anchor x="314.7777777777777" y="1520.0" name="_top"/>
  <anchor x="313.7171717171717" y="0.0" name="bottom"/>
  <anchor x="485.59595959595947" y="0.0" name="ogonek"/>
  <anchor x="314.7777777777777" y="1520.0" name="top"/>
  <outline>
    <contour>
      <point x="143.959595959596" y="0.0" type="line"/>
      <point x="485.59595959595947" y="0.0" type="line"/>
      <point x="485.59595959595947" y="1480.0" type="line"/>
      <point x="143.959595959596" y="1480.0" type="line"/>
    </contour>
    <contour>
      <point x="163.05050505050508" y="1594.7878787878788" type="line"/>
      <point x="466.5050505050504" y="1594.7878787878788" type="line"/>
      <point x="271.5404040404039" y="1897.8989898989898" type="line"/>
      <point x="-82.12121212121208" y="1897.8989898989898" type="line"/>
    </contour>
  </outline>
</glyph>
<glyph name="Iacute" format="2">
  <advance width="629.5555555555554"/>
  <unicode hex="00CD"/>
  <anchor x="314.7777777777777" y="1520.0" name="_top"/>
  <anchor x="313.7171717171717" y="0.0" name="bottom"/>
  <anchor x="485.59595959595947" y="0.0" name="ogonek"/>
  <anchor x="314.7777777777777" y="1520.0" name="top"/>
  <outline>
    <contour>
      <point x="143.959595959596" y="0.0" type="line"/>
      <point x="485.59595959595947" y="0.0" type="line"/>
      <point x="485.59595959595947" y="1480.0" type="line"/>
      <point x="143.959595959596" y="1480.0" type="line"/>
    </contour>
    <contour>
      <point x="160.92929292929296" y="1594.7878787878788" type="line"/>
      <point x="464.38383838383834" y="1594.7878787878788" type="line"/>
      <point x="709.5555555555554" y="1897.8989898989898" type="line"/>
      <point x="355.8939393939394" y="1897.8989898989898" type="line"/>
    </contour>
  </outline>
</glyph>
<glyph name="Icircumflex" format="2">
  <advance width="629.5555555555554"/>
  <unicode hex="00CE"/>
  <anchor x="314.7777777777777" y="1520.0" name="_top"/>
  <anchor x="313.7171717171717" y="0.0" name="bottom"/>
  <anchor x="485.59595959595947" y="0.0" name="ogonek"/>
  <anchor x="314.7777777777777" y="1520.0" name="top"/>
  <outline>
    <contour>
      <point x="143.959595959596" y="0.0" type="line"/>
      <point x="485.59595959595947" y="0.0" type="line"/>
      <point x="485.59595959595947" y="1480.0" type="line"/>
      <point x="143.959595959596" y="1480.0" type="line"/>
    </contour>
    <contour>
      <point x="-113.55555555555553" y="1594.7878787878788" type="line"/>
      <point x="150.06565656565652" y="1594.7878787878788" type="line"/>
      <point x="343.3585858585858" y="1806.469696969697" type="line"/>
      <point x="286.19696969696963" y="1806.469696969697" type="line"/>
      <point x="479.48989898989896" y="1594.7878787878788" type="line"/>
      <point x="743.1111111111111" y="1594.7878787878788" type="line"/>
      <point x="456.36363636363626" y="1897.8989898989898" type="line"/>
      <point x="173.1919191919192" y="1897.8989898989898" type="line"/>
    </contour>
  </outline>
</glyph>
<glyph name="Idieresis" format="2">
  <advance width="629.5555555555554"/>
  <unicode hex="00CF"/>
  <anchor x="314.7777777777777" y="1520.0" name="_top"/>
  <anchor x="313.7171717171717" y="0.0" name="bottom"/>
  <anchor x="485.59595959595947" y="0.0" name="ogonek"/>
  <anchor x="314.7777777777777" y="1520.0" name="top"/>
  <outline>
    <contour>
      <point x="143.959595959596" y="0.0" type="line"/>
      <point x="485.59595959595947" y="0.0" type="line"/>
      <point x="485.59595959595947" y="1480.0" type="line"/>
      <point x="143.959595959596" y="1480.0" type="line"/>
    </contour>
    <contour>
      <point x="586.2424242424242" y="1605.1515151515152" type="curve" smooth="yes"/>
      <point x="704.9696969696969" y="1605.1515151515152"/>
      <point x="762.0808080808081" y="1659.5555555555557"/>
      <point x="762.0808080808081" y="1750.5858585858587" type="curve" smooth="yes"/>
      <point x="762.0808080808081" y="1841.6161616161617"/>
      <point x="704.9696969696969" y="1896.6060606060605"/>
      <point x="586.2424242424242" y="1896.6060606060605" type="curve" smooth="yes"/>
      <point x="467.5151515151515" y="1896.6060606060605"/>
      <point x="410.4040404040404" y="1841.6161616161617"/>
      <point x="410.4040404040404" y="1750.5858585858587" type="curve" smooth="yes"/>
      <point x="410.4040404040404" y="1659.5555555555557"/>
      <point x="467.5151515151515" y="1605.1515151515152"/>
    </contour>
    <contour>
      <point x="43.313131313131294" y="1605.1515151515152" type="curve" smooth="yes"/>
      <point x="162.04040404040398" y="1605.1515151515152"/>
      <point x="219.15151515151507" y="1659.5555555555557"/>
      <point x="219.15151515151507" y="1750.5858585858587" type="curve" smooth="yes"/>
      <point x="219.15151515151507" y="1841.6161616161617"/>
      <point x="162.04040404040398" y="1896.6060606060605"/>
      <point x="43.313131313131294" y="1896.6060606060605" type="curve" smooth="yes"/>
      <point x="-75.4141414141414" y="1896.6060606060605"/>
      <point x="-132.52525252525248" y="1841.6161616161617"/>
      <point x="-132.52525252525248" y="1750.5858585858587" type="curve" smooth="yes"/>
      <point x="-132.52525252525248" y="1659.5555555555557"/>
      <point x="-75.4141414141414" y="1605.1515151515152"/>
    </contour>
  </outline>
</glyph>
<glyph name="Ntilde" format="2">
  <advance width="1644.8333333333333"/>
  <unicode hex="00D1"/>
  <anchor x="822.6363636363636" y="1520.0" name="_top"/>
  <anchor x="822.6363636363636" y="0.0" name="bottom"/>
  <anchor x="822.6363636363636" y="1520.0" name="top"/>
  <outline>
    <contour>
      <point x="143.959595959596" y="0.0" type="line"/>
      <point x="465.56565656565647" y="0.0" type="line"/>
      <point x="465.56565656565647" y="1075.6565656565658" type="line"/>
      <point x="407.13636363636357" y="1075.6565656565658" type="line"/>
      <point x="1157.6868686868688" y="0.0" type="line"/>
      <point x="1500.8737373737372" y="0.0" type="line"/>
      <point x="1500.8737373737372" y="1480.0" type="line"/>
      <point x="1179.2676767676767" y="1480.0" type="line"/>
      <point x="1179.2676767676767" y="404.3434343434342" type="line"/>
      <point x="1237.6969696969697" y="404.3434343434342" type="line"/>
      <point x="487.14646464646455" y="1480.0" type="line"/>
      <point x="143.959595959596" y="1480.0" type="line"/>
    </contour>
    <contour>
      <point x="1002.2121212121211" y="1618.6616161616162" type="curve" smooth="yes"/>
      <point x="1097.5707070707072" y="1618.6616161616162"/>
      <point x="1162.030303030303" y="1640.3686868686868"/>
      <point x="1217.560606060606" y="1689.060606060606" type="curve"/>
      <point x="1217.560606060606" y="1873.2272727272727" type="line"/>
      <point x="1152.969696969697" y="1826.9949494949494"/>
      <point x="1094.7777777777778" y="1805.20202020202"/>
      <point x="1009.2828282828282" y="1805.20202020202" type="curve" smooth="yes"/>
      <point x="884.3535353535353" y="1805.20202020202"/>
      <point x="786.8686868686868" y="1880.909090909091"/>
      <point x="643.060606060606" y="1880.909090909091" type="curve" smooth="yes"/>
      <point x="547.7020202020202" y="1880.909090909091"/>
      <point x="483.24242424242425" y="1857.7878787878788"/>
      <point x="427.71212121212125" y="1809.0959595959596" type="curve"/>
      <point x="427.71212121212125" y="1624.929292929293" type="line"/>
      <point x="492.3030303030303" y="1671.1616161616162"/>
      <point x="550.4949494949495" y="1692.9545454545455"/>
      <point x="635.989898989899" y="1692.9545454545455" type="curve" smooth="yes"/>
      <point x="760.9191919191919" y="1692.9545454545455"/>
      <point x="858.4040404040404" y="1618.6616161616162"/>
    </contour>
  </outline>
</glyph>
<glyph name="Oacute" format="2">
  <advance width="1680.7070707070707"/>
  <unicode hex="00D3"/>
  <anchor x="840.3535353535353" y="1520.0" name="_top"/>
  <anchor x="840.3535353535353" y="0.0" name="bottom"/>
  <anchor x="840.3535353535353" y="740.0" name="center"/>
  <anchor x="1007.8787878787879" y="0.0" name="ogonek"/>
  <anchor x="840.3535353535353" y="1520.0" name="top"/>
  <anchor x="53.01010101010101" y="1480.0" name="topleft"/>
  <anchor x="1044.2070707070707" y="1480.0" name="topright"/>
  <outline>
    <contour>
      <point x="840.3535353535353" y="-19.41414141414141" type="curve" smooth="yes"/>
      <point x="1294.9898989898988" y="-19.41414141414141"/>
      <point x="1589.121212121212" y="240.38888888888886"/>
      <point x="1589.121212121212" y="740.0" type="curve" smooth="yes"/>
      <point x="1589.121212121212" y="1239.611111111111"/>
      <point x="1297.3686868686868" y="1499.4141414141413"/>
      <point x="840.3535353535353" y="1499.4141414141413" type="curve" smooth="yes"/>
      <point x="384.65656565656565" y="1499.4141414141413"/>
      <point x="91.5858585858586" y="1241.7323232323233"/>
      <point x="91.5858585858586" y="740.0" type="curve" smooth="yes"/>
      <point x="91.5858585858586" y="238.26767676767676"/>
      <point x="384.3989898989899" y="-19.41414141414141"/>
    </contour>
    <contour>
      <point x="840.3535353535353" y="252.78282828282818" type="curve" smooth="yes"/>
      <point x="589.8181818181818" y="252.78282828282818"/>
      <point x="440.75757575757564" y="395.9797979797979"/>
      <point x="440.75757575757564" y="746.8282828282828" type="curve" smooth="yes"/>
      <point x="440.75757575757564" y="1084.020202020202"/>
      <point x="592.9999999999999" y="1227.2171717171718"/>
      <point x="840.3535353535353" y="1227.2171717171718" type="curve" smooth="yes"/>
      <point x="1087.7070707070707" y="1227.2171717171718"/>
      <point x="1239.949494949495" y="1080.8383838383838"/>
      <point x="1239.949494949495" y="733.1717171717172" type="curve" smooth="yes"/>
      <point x="1239.949494949495" y="399.16161616161605"/>
      <point x="1090.888888888889" y="252.78282828282818"/>
    </contour>
    <contour>
      <point x="686.5050505050506" y="1594.7878787878788" type="line"/>
      <point x="989.9595959595958" y="1594.7878787878788" type="line"/>
      <point x="1235.131313131313" y="1897.8989898989898" type="line"/>
      <point x="881.469696969697" y="1897.8989898989898" type="line"/>
    </contour>
  </outline>
</glyph>
<glyph name="Otilde" format="2">
  <advance width="1680.7070707070707"/>
  <unicode hex="00D5"/>
  <anchor x="840.3535353535353" y="1520.0" name="_top"/>
  <anchor x="840.3535353535353" y="0.0" name="bottom"/>
  <anchor x="840.3535353535353" y="740.0" name="center"/>
  <anchor x="1007.8787878787879" y="0.0" name="ogonek"/>
  <anchor x="840.3535353535353" y="1520.0" name="top"/>
  <anchor x="53.01010101010101" y="1480.0" name="topleft"/>
  <anchor x="1044.2070707070707" y="1480.0" name="topright"/>
  <outline>
    <contour>
      <point x="840.3535353535353" y="-19.41414141414141" type="curve" smooth="yes"/>
      <point x="1294.9898989898988" y="-19.41414141414141"/>
      <point x="1589.121212121212" y="240.38888888888886"/>
      <point x="1589.121212121212" y="740.0" type="curve" smooth="yes"/>
      <point x="1589.121212121212" y="1239.611111111111"/>
      <point x="1297.3686868686868" y="1499.4141414141413"/>
      <point x="840.3535353535353" y="1499.4141414141413" type="curve" smooth="yes"/>
      <point x="384.65656565656565" y="1499.4141414141413"/>
      <point x="91.5858585858586" y="1241.7323232323233"/>
      <point x="91.5858585858586" y="740.0" type="curve" smooth="yes"/>
      <point x="91.5858585858586" y="238.26767676767676"/>
      <point x="384.3989898989899" y="-19.41414141414141"/>
    </contour>
    <contour>
      <point x="840.3535353535353" y="252.78282828282818" type="curve" smooth="yes"/>
      <point x="589.8181818181818" y="252.78282828282818"/>
      <point x="440.75757575757564" y="395.9797979797979"/>
      <point x="440.75757575757564" y="746.8282828282828" type="curve" smooth="yes"/>
      <point x="440.75757575757564" y="1084.020202020202"/>
      <point x="592.9999999999999" y="1227.2171717171718"/>
      <point x="840.3535353535353" y="1227.2171717171718" type="curve" smooth="yes"/>
      <point x="1087.7070707070707" y="1227.2171717171718"/>
      <point x="1239.949494949495" y="1080.8383838383838"/>
      <point x="1239.949494949495" y="733.1717171717172" type="curve" smooth="yes"/>
      <point x="1239.949494949495" y="399.16161616161605"/>
      <point x="1090.888888888889" y="252.78282828282818"/>
    </contour>
    <contour>
      <point x="1019.9292929292928" y="1618.6616161616162" type="curve" smooth="yes"/>
      <point x="1115.2878787878788" y="1618.6616161616162"/>
      <point x="1179.7474747474746" y="1640.3686868686868"/>
      <point x="1235.2777777777778" y="1689.060606060606" type="curve"/>
      <point x="1235.2777777777778" y="1873.2272727272727" type="line"/>
      <point x="1170.6868686868686" y="1826.9949494949494"/>
      <point x="1112.4949494949494" y="1805.20202020202"/>
      <point x="1027.0" y="1805.20202020202" type="curve" smooth="yes"/>
      <point x="902.0707070707069" y="1805.20202020202"/>
      <point x="804.5858585858585" y="1880.909090909091"/>
      <point x="660.7777777777777" y="1880.909090909091" type="curve" smooth="yes"/>
      <point x="565.4191919191919" y="1880.909090909091"/>
      <point x="500.95959595959596" y="1857.7878787878788"/>
      <point x="445.4292929292929" y="1809.0959595959596" type="curve"/>
      <point x="445.4292929292929" y="1624.929292929293" type="line"/>
      <point x="510.02020202020196" y="1671.1616161616162"/>
      <point x="568.2121212121212" y="1692.9545454545455"/>
      <point x="653.7070707070707" y="1692.9545454545455" type="curve" smooth="yes"/>
      <point x="778.6363636363635" y="1692.9545454545455"/>
      <point x="876.121212121212" y="1618.6616161616162"/>
    </contour>
  </outline>
</glyph>
<glyph name="multiply" format="2">
  <advance width="1066.3636363636363"/>
  <unicode hex="00D7"/>
  <outline>
    <contour>
      <point x="269.02020202020196" y="318.2020202020202" type="line"/>
      <point x="533.1818181818181" y="582.3636363636365" type="line"/>
      <point x="797.3434343434343" y="318.2020202020202" type="line"/>
      <point x="974.9797979797979" y="495.83838383838383" type="line"/>
      <point x="710.8181818181818" y="760.0" type="line"/>
      <point x="974.9797979797979" y="1024.1616161616162" type="line"/>
      <point x="797.3434343434343" y="1201.7979797979797" type="line"/>
      <point x="533.1818181818181" y="937.6363636363635" type="line"/>
      <point x="269.02020202020196" y="1201.7979797979797" type="line"/>
      <point x="91.38383838383841" y="1024.1616161616162" type="line"/>
      <point x="355.5454545454546" y="760.0" type="line"/>
      <point x="91.38383838383841" y="495.83838383838383" type="line"/>
    </contour>
  </outline>
</glyph>
<glyph name="Uacute" format="2">
  <advance width="1595.111111111111"/>
  <unicode hex="00DA"/>
  <anchor x="800.8535353535353" y="1520.0" name="_top"/>
  <anchor x="800.8535353535353" y="0.0" name="bottom"/>
  <anchor x="1024.2525252525252" y="0.8787878787878798" name="ogonek"/>
  <anchor x="800.8535353535353" y="1520.0" name="top"/>
  <anchor x="1134.3636363636365" y="1480.0" name="topright"/>
  <outline>
    <contour>
      <point x="800.8535353535353" y="-19.41414141414141" type="curve" smooth="yes"/>
      <point x="1258.6868686868686" y="-19.41414141414141"/>
      <point x="1457.7373737373737" y="202.90909090909088"/>
      <point x="1457.7373737373737" y="635.1767676767677" type="curve" smooth="yes"/>
      <point x="1457.7373737373737" y="1480.0" type="line"/>
      <point x="1122.3434343434344" y="1480.0" type="line"/>
      <point x="1122.3434343434344" y="604.3181818181818" type="line" smooth="yes"/>
      <point x="1122.3434343434344" y="361.4545454545454"/>
      <point x="1016.939393939394" y="257.2929292929292"/>
      <point x="800.8535353535353" y="257.2929292929292" type="curve" smooth="yes"/>
      <point x="584.7676767676767" y="257.2929292929292"/>
      <point x="479.0101010101009" y="361.4545454545454"/>
      <point x="479.0101010101009" y="604.3181818181818" type="curve" smooth="yes"/>
      <point x="479.0101010101009" y="1480.0" type="line"/>
      <point x="137.3737373737374" y="1480.0" type="line"/>
      <point x="137.3737373737374" y="635.1767676767677" type="line" smooth="yes"/>
      <point x="137.3737373737374" y="202.90909090909088"/>
      <point x="337.01010101010104" y="-19.41414141414141"/>
    </contour>
    <contour>
      <point x="647.0050505050506" y="1594.7878787878788" type="line"/>
      <point x="950.4595959595958" y="1594.7878787878788" type="line"/>
      <point x="1195.6313131313132" y="1897.8989898989898" type="line"/>
      <point x="841.969696969697" y="1897.8989898989898" type="line"/>
    </contour>
  </outline>
</glyph>
<glyph name="Udieresis" format="2">
  <advance width="1595.111111111111"/>
  <unicode hex="00DC"/>
  <anchor x="800.8535353535353" y="1520.0" name="_top"/>
  <anchor x="800.8535353535353" y="0.0" name="bottom"/>
  <anchor x="1024.2525252525252" y="0.8787878787878798" name="ogonek"/>
  <anchor x="800.8535353535353" y="1520.0" name="top"/>
  <anchor x="1134.3636363636365" y="1480.0" name="topright"/>
  <outline>
    <contour>
      <point x="800.8535353535353" y="-19.41414141414141" type="curve" smooth="yes"/>
      <point x="1258.6868686868686" y="-19.41414141414141"/>
      <point x="1457.7373737373737" y="202.90909090909088"/>
      <point x="1457.7373737373737" y="635.1767676767677" type="curve" smooth="yes"/>
      <point x="1457.7373737373737" y="1480.0" type="line"/>
      <point x="1122.3434343434344" y="1480.0" type="line"/>
      <point x="1122.3434343434344" y="604.3181818181818" type="line" smooth="yes"/>
      <point x="1122.3434343434344" y="361.4545454545454"/>
      <point x="1016.939393939394" y="257.2929292929292"/>
      <point x="800.8535353535353" y="257.2929292929292" type="curve" smooth="yes"/>
      <point x="584.7676767676767" y="257.2929292929292"/>
      <point x="479.0101010101009" y="361.4545454545454"/>
      <point x="479.0101010101009" y="604.3181818181818" type="curve" smooth="yes"/>
      <point x="479.0101010101009" y="1480.0" type="line"/>
      <point x="137.3737373737374" y="1480.0" type="line"/>
      <point x="137.3737373737374" y="635.1767676767677" type="line" smooth="yes"/>
      <point x="137.3737373737374" y="202.90909090909088"/>
      <point x="337.01010101010104" y="-19.41414141414141"/>
    </contour>
    <contour>
      <point x="1072.3181818181818" y="1605.1515151515152" type="curve" smooth="yes"/>
      <point x="1191.0454545454545" y="1605.1515151515152"/>
      <point x="1248.1565656565656" y="1659.5555555555557"/>
      <point x="1248.1565656565656" y="1750.5858585858587" type="curve" smooth="yes"/>
      <point x="1248.1565656565656" y="1841.6161616161617"/>
      <point x="1191.0454545454545" y="1896.6060606060605"/>
      <point x="1072.3181818181818" y="1896.6060606060605" type="curve" smooth="yes"/>
      <point x="953.5909090909091" y="1896.6060606060605"/>
      <point x="896.4797979797979" y="1841.6161616161617"/>
      <point x="896.4797979797979" y="1750.5858585858587" type="curve" smooth="yes"/>
      <point x="896.4797979797979" y="1659.5555555555557"/>
      <point x="953.5909090909091" y="1605.1515151515152"/>
    </contour>
    <contour>
      <point x="529.3888888888889" y="1605.1515151515152" type="curve" smooth="yes"/>
      <point x="648.1161616161615" y="1605.1515151515152"/>
      <point x="705.2272727272726" y="1659.5555555555557"/>
      <point x="705.2272727272726" y="1750.5858585858587" type="curve" smooth="yes"/>
      <point x="705.2272727272726" y="1841.6161616161617"/>
      <point x="648.1161616161615" y="1896.6060606060605"/>
      <point x="529.3888888888889" y="1896.6060606060605" type="curve" smooth="yes"/>
      <point x="410.66161616161617" y="1896.6060606060605"/>
      <point x="353.5505050505051" y="1841.6161616161617"/>
      <point x="353.5505050505051" y="1750.5858585858587" type="curve" smooth="yes"/>
      <point x="353.5505050505051" y="1659.5555555555557"/>
      <point x="410.66161616161617" y="1605.1515151515152"/>
    </contour>
  </outline>
</glyph>
